<?xml version="1.0" encoding="utf-8"?>
<!-- Generator: Adobe Illustrator 24.2.3, SVG Export Plug-In . SVG Version: 6.00 Build 0)  -->
<svg version="1.1" id="Слой_1" xmlns="http://www.w3.org/2000/svg" xmlns:xlink="http://www.w3.org/1999/xlink" x="0px" y="0px"
	 viewBox="0 0 1440 937" style="enable-background:new 0 0 1440 937;" xml:space="preserve">
<style type="text/css">
	.st0{fill:#E5E5E5;}
	.st1{clip-path:url(#SVGID_2_);}
	.st2{fill:#213952;}
	.st3{fill:url(#SVGID_3_);}
	.st4{clip-path:url(#SVGID_5_);}
	.st5{fill:none;}
	.st6{clip-path:url(#SVGID_7_);}
	.st7{fill-rule:evenodd;clip-rule:evenodd;fill:url(#SVGID_8_);}
	.st8{fill:#FFFFFF;}
	.st9{fill:#203D90;}
	.st10{fill-rule:evenodd;clip-rule:evenodd;fill:#36BDE6;}
	.st11{opacity:0.3;fill:#FFFFFF;enable-background:new    ;}
	.st12{clip-path:url(#SVGID_10_);}
	.st13{fill:none;stroke:#FFFFFF;stroke-width:2;stroke-miterlimit:10;}
	.st14{fill:none;stroke:#FFFFFF;}
	.st15{fill:url(#SVGID_11_);}
	.st16{fill:url(#SVGID_12_);}
</style>
<rect y="-0.1" class="st0" width="1440" height="937"/>
<g>
	<defs>
		<rect id="SVGID_1_" y="-0.1" width="1440" height="937.2"/>
	</defs>
	<clipPath id="SVGID_2_">
		<use xlink:href="#SVGID_1_"  style="overflow:visible;"/>
	</clipPath>
	<g class="st1">
		<rect y="2.3" class="st2" width="1440" height="933.7"/>
		
			<linearGradient id="SVGID_3_" gradientUnits="userSpaceOnUse" x1="720" y1="-340.432" x2="720" y2="-1189.5819" gradientTransform="matrix(1 0 0 -1 0 938)">
			<stop  offset="0" style="stop-color:#041537"/>
			<stop  offset="1" style="stop-color:#041537;stop-opacity:0"/>
		</linearGradient>
		<rect y="857" class="st3" width="1440" height="1270.6"/>
		<g>
			<defs>
				<rect id="SVGID_4_" y="-977.1" width="1440" height="1918"/>
			</defs>
			<clipPath id="SVGID_5_">
				<use xlink:href="#SVGID_4_"  style="overflow:visible;"/>
			</clipPath>
			<g class="st4">
				<rect x="-119.5" y="-943.3" class="st5" width="1834.8" height="947.5"/>
			</g>
		</g>
		<g>
			<defs>
				<rect id="SVGID_6_" y="-0.1" width="1440" height="937"/>
			</defs>
			<clipPath id="SVGID_7_">
				<use xlink:href="#SVGID_6_"  style="overflow:visible;"/>
			</clipPath>
			<g class="st6">
				
					<linearGradient id="SVGID_8_" gradientUnits="userSpaceOnUse" x1="0" y1="501.5" x2="1440" y2="501.5" gradientTransform="matrix(1 0 0 -1 0 938)">
					<stop  offset="0" style="stop-color:#203D90"/>
					<stop  offset="6.580340e-02" style="stop-color:#1E4596"/>
					<stop  offset="0.2772" style="stop-color:#135DA9"/>
					<stop  offset="0.4456" style="stop-color:#056CB5"/>
					<stop  offset="0.5488" style="stop-color:#0172B9"/>
					<stop  offset="0.6282" style="stop-color:#056CB5"/>
					<stop  offset="0.7576" style="stop-color:#135DA9"/>
					<stop  offset="0.9199" style="stop-color:#1E4596"/>
					<stop  offset="1" style="stop-color:#20388C"/>
				</linearGradient>
				<path class="st7" d="M714.6-64.1C277.8-64.1,0-3,0-3V736l0,140c0,0,288.6,61.1,725.4,61.1c436.8,0,714.6-61.1,714.6-61.1V736
					V257V-3C1440-3,1151.4-64.1,714.6-64.1z"/>
				<path class="st8" d="M526.1,139.8l-11,25.2c-1.4,3.2-2.7,5.5-3.9,6.8c-1.2,1.4-2.6,2.4-4.3,3.1c-1.7,0.7-3.7,1-6.1,1
					c-2,0-3.9-0.2-5.7-0.7v-6.5c1.4,0.6,3.2,0.9,5.3,0.9c1.4,0,2.4-0.3,3.3-0.9c0.8-0.6,1.5-1.7,2.1-3.3l-12.4-25.6h8l8.8,19.9h0.2
					l0.4-1.2l7.4-18.7H526.1z M545.8,145.6c-2.8,0-5.1,1.1-6.6,3.2c-1.6,2.1-2.3,5.1-2.3,8.9c0,8,3,11.9,9,11.9
					c2.5,0,5.5-0.6,9.1-1.9v6.3c-2.9,1.2-6.2,1.8-9.8,1.8c-5.2,0-9.2-1.6-11.9-4.7c-2.8-3.2-4.1-7.7-4.1-13.6c0-3.7,0.7-7,2-9.7
					c1.4-2.8,3.3-4.9,5.8-6.4c2.5-1.5,5.5-2.2,8.9-2.2c3.5,0,7,0.8,10.5,2.5l-2.4,6.2c-1.3-0.6-2.7-1.2-4-1.7
					S547.1,145.6,545.8,145.6z M590.8,175.5h-7.5v-29.4h-8.7l-0.4,3.3c-1,8.3-1.9,14.2-2.7,17.5c-0.8,3.4-1.9,5.7-3.4,7.1
					c-1.5,1.4-3.5,2-6,2c-1.4,0-2.6-0.2-3.6-0.5v-6.2c0.9,0.3,1.8,0.5,2.7,0.5c0.9,0,1.5-0.4,2-1.2c0.5-0.8,1-2.3,1.4-4.4
					c0.5-2.1,1.1-5.7,1.8-10.5c0.7-4.9,1.4-9.5,1.9-13.8h22.5V175.5z M632.2,157.6c0,5.9-1.5,10.4-4.4,13.6
					c-2.9,3.2-7.1,4.8-12.6,4.8s-9.7-1.6-12.6-4.8c-2.9-3.2-4.4-7.7-4.4-13.7c0-5.9,1.5-10.5,4.4-13.6c2.9-3.1,7.2-4.7,12.6-4.7
					s9.7,1.6,12.6,4.7C630.7,147.2,632.2,151.7,632.2,157.6z M606.1,157.6c0,4,0.8,7,2.3,9c1.5,2,3.8,3,6.8,3c6,0,9.1-4,9.1-12
					c0-8-3-12.1-9-12.1c-3,0-5.3,1-6.8,3.1C606.9,150.6,606.1,153.6,606.1,157.6z M639.6,139.8h11.1c5.1,0,8.7,0.7,11,2.2
					c2.3,1.4,3.4,3.7,3.4,6.9c0,2.1-0.5,3.9-1.5,5.2c-1,1.4-2.3,2.2-4,2.5v0.2c2.3,0.5,3.9,1.4,4.9,2.8c1,1.4,1.5,3.2,1.5,5.5
					c0,3.3-1.2,5.8-3.5,7.6c-2.3,1.8-5.5,2.7-9.6,2.7h-13.4V139.8z M647.2,154h4.4c2,0,3.5-0.3,4.4-1c0.9-0.6,1.4-1.7,1.4-3.1
					c0-1.4-0.5-2.3-1.5-2.9c-1-0.6-2.6-0.9-4.7-0.9h-4V154z M647.2,160v9.3h4.9c2.1,0,3.6-0.4,4.6-1.2c1-0.8,1.5-2,1.5-3.7
					c0-3-2.1-4.4-6.3-4.4H647.2z M673.2,139.8h6.8v17.2l-0.1,4.6l-0.2,5.2h0.1l16.5-27.1h9.1v35.7h-6.7v-17.1
					c0-2.3,0.1-5.7,0.4-10.2h-0.2l-16.6,27.3h-9.1V139.8z M726.4,161.8l-8.3,13.7h-8.4l10.2-15.7c-2-0.8-3.6-2.1-4.6-3.8
					c-1.1-1.7-1.6-3.7-1.6-6c0-3.3,1.2-5.8,3.5-7.5c2.3-1.8,5.7-2.7,10-2.7h11.6v35.7H731v-13.7H726.4z M731,146h-3.7
					c-2,0-3.5,0.4-4.5,1.1c-1.1,0.7-1.6,1.9-1.6,3.5c0,1.6,0.5,2.8,1.6,3.7c1,0.9,2.6,1.4,4.8,1.4h3.5V146z M782.4,175.5l-2.6-8.5
					h-13l-2.6,8.5h-8.2l12.6-35.8h9.3l12.6,35.8H782.4z M778,160.7c-2.4-7.7-3.7-12.1-4.1-13.1c-0.3-1-0.5-1.8-0.6-2.4
					c-0.5,2.1-2.1,7.2-4.6,15.5H778z M824.2,175.5h-8.6l-12.9-18.1v18.1h-7.6v-35.7h7.6v17.3l12.8-17.3h8.1l-13,17.1L824.2,175.5z
					 M857,169.5h5.3v16.4H855v-10.4h-26.3v-35.7h7.6v29.4h13.1v-29.4h7.5V169.5z M867.8,139.8h6.8v17.2l-0.1,4.6l-0.2,5.2h0.1
					l16.5-27.1h9.1v35.7h-6.7v-17.1c0-2.3,0.1-5.7,0.4-10.2h-0.2l-16.6,27.3h-9.1V139.8z M908.9,139.8h6.8v17.2l-0.1,4.6l-0.2,5.2
					h0.1l16.5-27.1h9.1v35.7h-6.7v-17.1c0-2.3,0.1-5.7,0.4-10.2h-0.2L918,175.5h-9.1V139.8z"/>
				<path class="st9" d="M1180.2,450.8c48.2,0,87.2-39,87.2-87.2c0-48.2-39-87.2-87.2-87.2c-48.1,0-87.2,39-87.2,87.2
					C1093,411.7,1132.1,450.8,1180.2,450.8z"/>
				<path class="st10" d="M1093,364c0-48.1,39-87.1,87.1-87.1c5,0,9.9,0.4,14.7,1.2c-41.1,7-72.4,42.8-72.4,85.9
					c0,43.1,31.3,78.9,72.4,85.9c-4.8,0.8-9.7,1.2-14.7,1.2C1132,451.1,1093,412.1,1093,364z"/>
				<path class="st8" d="M1242.8,352.7c-15.4-5.4-31.3-8.3-47.5-10c-9-1-18.1-2-27,0.6c-21.1,6.3-40.2,16.8-56.8,31.3
					c-3.4,2.9-5.5,7.3-8.1,11l0.5,3.4c3.2,3.8,7.6,4.6,12.2,4.6c3.6,0,7.2-0.2,10.6-0.4c0.2,0.4,0.4,0.6,0.4,0.7
					c3.2,11.1,10.5,18,22,19.4c11.1,1.3,20.3-4.2,26.1-14.9c3.4-6.3,11-7.6,16.6-3.1c2.7,2.2,5.5,4.3,8.4,6
					c18.1,10,36.3-4.8,36.4-21.3c0-1.1,0.2-2.2,0.2-3.4c1.5-0.3,2.8-0.5,4-0.9c6.7-2,14-3,18.2-9.6l-0.6-4.1
					C1254.4,357.4,1248.7,354.8,1242.8,352.7z M1230.7,385.7c-0.6,2.6-1.6,5-3,7.2c-4.7,7.2-19.6,8.7-27,4.6c-7-4-10-9-17.5-7.9
					c-7.6,1-9.9,7.6-15.7,13.5c-2.8,2.8-7.3,4.8-11.9,5.5c-5.2,0.7-10.7-0.1-14.1-3c-4-3.3-6.7-8.1-7.5-13.7
					c-0.9-5.9,0.7-11.6,3.8-16.1c3.2-4.4,8-7.6,13.7-8.4l55.8-8.1c11.4-1.6,22,6.6,23.8,18.4
					C1231.5,380.4,1231.3,383.1,1230.7,385.7z M1236.4,372.5c-2.2-3.4-3.7-6.9-6.1-9.6c-6-7-14-9.7-23.1-8.4
					c-19.4,2.8-38.8,5.5-58.2,8.5c-13.2,2-20.2,10.2-22.6,26.3c-5-0.1-10.2-0.1-15.2-0.7c-3.3-0.4-3.9-2.2-1.8-4.9
					c2.1-2.8,4.4-5.4,7.1-7.6c15.8-12.7,33.1-22.7,52.7-28.1c6.8-1.9,14.5-1.6,21.7-1c18.9,1.3,37.5,4.7,55.2,11.8
					c3.2,1.3,6,3.5,9.6,5.6C1249.4,370.3,1242.5,370.8,1236.4,372.5z"/>
				<path class="st11" d="M1200.8,397.4c-7-4-10-9-17.6-7.9c-7.6,1-9.9,7.6-15.7,13.5c-5.9,6.1-19.6,8-26,2.5
					c-4-3.4-6.7-8.1-7.5-13.7c-1.7-11.9,6.1-22.8,17.5-24.5l55.8-8.1c11.4-1.6,22,6.6,23.8,18.4c0.8,5.6-0.5,11-3.4,15.3
					C1223.2,400.1,1208.3,401.6,1200.8,397.4z"/>
				<path class="st8" d="M1173.5,318.6l-2.8,0.1l-1.6,2.4l-0.9-2.7l-2.8-0.7l2.2-1.6l-0.2-2.8l2.3,1.6l2.7-1l-0.8,2.7L1173.5,318.6z
					"/>
				<path class="st8" d="M1221.6,325.5l-3.4,0.1l-1.9,2.9l-1.1-3.3l-3.4-0.9l2.8-2.1l-0.2-3.5l2.8,2l3.2-1.3l-1,3.4L1221.6,325.5z"
					/>
				<path class="st8" d="M1147.3,317.7h-2.9l-1.6,2.5l-1-2.8l-2.8-0.7l2.3-1.8l-0.2-2.8l2.4,1.6l2.7-1l-0.8,2.8L1147.3,317.7z"/>
				<path class="st8" d="M1170.4,298.3l-2.1-0.8l-1.9,1.3l0.2-2.2l-1.8-1.3l2.2-0.6l0.8-2.1l1.2,1.9l2.2,0.1l-1.4,1.7L1170.4,298.3z
					"/>
				<path class="st8" d="M1216.6,309.2l-2.1-0.8l-1.9,1.3l0.2-2.2l-1.8-1.4l2.2-0.5l0.8-2.2l1.2,1.9l2.2,0.1l-1.4,1.7L1216.6,309.2z
					"/>
				<path class="st8" d="M1203.4,311.2c0,9-7.2,16.2-16.2,16.2c-1.7,0-3.4-0.3-4.9-0.7c6.6-2.1,11.3-8.2,11.3-15.5
					c0-7.2-4.8-13.4-11.3-15.5c1.6-0.5,3.2-0.7,4.9-0.7C1196.2,294.9,1203.4,302.2,1203.4,311.2z"/>
				<path class="st9" d="M720,451.9c48.1,0,87.1-39,87.1-87.1c0-48.1-39-87.1-87.1-87.1s-87.1,39-87.1,87.1
					C632.9,412.9,671.9,451.9,720,451.9z"/>
				<path class="st10" d="M719.9,451.9C720,451.9,720,451.9,719.9,451.9c48.2,0,87.2-39,87.2-87.1c0-48.1-39-87.1-87.1-87.1
					c0,0,0,0-0.1,0V451.9z"/>
				<path class="st8" d="M741.7,317.8c0,1.2-1,2.2-2.2,2.2c-1.2,0-2.2-1-2.2-2.2h-2.2c0,1.2-1,2.2-2.2,2.2c-1.2,0-2.2-1-2.2-2.2
					h-2.2c0,1.2-1,2.2-2.2,2.2c-1.2,0-2.2-1-2.2-2.2h-2.2c0,1.2-1,2.2-2.2,2.2c-1.2,0-2.2-1-2.2-2.2h-2.2c0,1.2-1,2.2-2.2,2.2
					c-1.2,0-2.2-1-2.2-2.2h-2.2c0,1.2-1,2.2-2.2,2.2c-1.2,0-2.2-1-2.2-2.2h-2.2c0,1.2-1,2.2-2.2,2.2c-1.2,0-2.2-1-2.2-2.2h-1.1v91.7
					h45.8v-91.7H741.7z M736.6,393.3h-33.1c-0.4,0-0.7-0.3-0.7-0.7s0.3-0.7,0.7-0.7h33.1c0.4,0,0.7,0.3,0.7,0.7
					S737,393.3,736.6,393.3z M736.6,389.2h-33.1c-0.4,0-0.7-0.3-0.7-0.7c0-0.4,0.3-0.7,0.7-0.7h33.1c0.4,0,0.7,0.3,0.7,0.7
					S737,389.2,736.6,389.2z M706,355.8l0.6-1l1.4,1l-0.2-1.7h1.2l-0.2,1.7l1.4-1l0.6,1l-1.6,0.7l1.6,0.7l-0.6,1l-1.4-1l0.2,1.7
					h-1.2l0.2-1.7l-1.4,1l-0.6-1l1.6-0.7L706,355.8z M712.2,355.8l0.6-1l1.4,1l-0.2-1.7h1.2l-0.2,1.7l1.4-1l0.6,1l-1.6,0.7l1.6,0.7
					l-0.6,1l-1.4-1l0.2,1.7H714l0.2-1.7l-1.4,1l-0.6-1l1.6-0.7L712.2,355.8z M718.5,355.8l0.6-1l1.4,1l-0.2-1.7h1.2l-0.2,1.7l1.4-1
					l0.6,1l-1.6,0.7l1.6,0.7l-0.6,1l-1.4-1l0.2,1.7h-1.2l0.2-1.7l-1.4,1l-0.6-1l1.6-0.7L718.5,355.8z M729.2,355.8l0.6-1l1.4,1
					l-0.2-1.7h1.2l-0.2,1.7l1.4-1l0.6,1l-1.6,0.7l1.6,0.7l-0.6,1l-1.4-1l0.2,1.7H731l0.2-1.7l-1.4,1l-0.6-1l1.6-0.7L729.2,355.8z
					 M736.6,339.5h-33.1c-0.4,0-0.7-0.3-0.7-0.7s0.3-0.7,0.7-0.7h33.1c0.4,0,0.7,0.3,0.7,0.7S737,339.5,736.6,339.5z M736.6,335.4
					h-33.1c-0.4,0-0.7-0.3-0.7-0.7c0-0.4,0.3-0.7,0.7-0.7h33.1c0.4,0,0.7,0.3,0.7,0.7S737,335.4,736.6,335.4z"/>
				<path class="st8" d="M743.6,294.9h-47.2c-6,0-10.7,4.9-10.7,10.7v115.9c0,6,4.9,10.7,10.7,10.7h47.2c6,0,10.7-4.9,10.7-10.7
					V305.7C754.3,299.7,749.5,294.9,743.6,294.9z M716.3,299.9h7.7c0.4,0,0.8,0.4,0.8,0.8c0,0.4-0.4,0.8-0.8,0.8h-7.7
					c-0.4,0-0.8-0.4-0.8-0.8C715.4,300.3,715.8,299.9,716.3,299.9z M751.5,420.9h-63.1V306.3h63L751.5,420.9L751.5,420.9z"/>
				<path class="st9" d="M260.5,453.4c48.1,0,87.1-39,87.1-87.1s-39-87.1-87.1-87.1s-87.1,39-87.1,87.1S212.4,453.4,260.5,453.4z"/>
				<path class="st10" d="M245.8,452.1c4.8,0.8,9.7,1.2,14.7,1.2c48.1,0,87.1-39,87.1-87.1s-39-87.1-87.1-87.1
					c-5,0-9.9,0.4-14.7,1.2c41.1,7,72.4,42.8,72.4,85.9S286.9,445.2,245.8,452.1z"/>
				<path class="st8" d="M239.7,343c-0.1,0.3-0.5,0.5-0.9,0.6c-0.3,0.1-1-0.1-1.3-0.7c-0.2-0.5-0.2-1-0.8-1.4
					c-0.4-0.2-0.8-0.3-1.3-0.3c-0.8,0-1.9,0.3-2,1.6c-0.1,1.5,0.7,2.9,1.9,4.7c1.6,2.4,3.1,4.9,1.4,6.7c-0.9,1-2.2,1.5-3.8,1.5
					c-2,0-3.7-0.8-4.5-2.1c-0.5-0.8-0.2-1.4,0.1-1.7c0.6-0.4,1.2-0.1,1.5,0.2c0.7,0.7,0.9,2.1,2.6,2.5c0.5,0.1,1.2-0.1,1.5-0.5
					c1.2-1.3-0.4-3.7-1.8-5.4c-0.2-0.2-0.4-0.5-0.5-0.7c-1.2-1.6-1.5-3.4-1-4.8c0.5-1.3,1.6-2.3,3.3-2.7c0.5-0.1,1-0.1,1.6-0.1
					c1.3,0,2.2,0.4,2.9,0.8C239.6,341.5,239.9,342.4,239.7,343z M228.9,340.4c0,0-0.2-0.1-0.4-0.1c-1-0.1-1.6,0.3-1.7,0.4
					c-0.2,0.4-0.4,1.2-0.6,1.9c-0.2,0.7-0.4,1.5-0.7,2.1c-2.8,6.5-6,9.3-7,9.4c-0.5,0.1-0.7-0.1-0.8-0.4c-0.2-0.5,0.2-1.6,0.7-2.8
					c0.1-0.2,0.1-0.4,0.2-0.6c0.9-2.2,1.5-3.9,2-6c0.4-1.9,0.3-3-0.4-3.5c-0.4-0.3-0.8-0.4-1.3-0.4c-0.4,0-0.8,0.1-0.9,0.2
					c0,0.1,0,0.1,0,0.1c0.2,0.7,0.4,2.1-1.2,6.4c-0.1,0.1-0.1,0.4-0.2,0.6l-0.2,0.6c-0.2,0.5-0.4,1.3-0.7,2
					c-0.4,1.1-0.5,2.1-0.5,2.8c0,0.3,0,0.5,0,0.7c0,0.1,0.1,0.2,0.1,0.4c0.2,0.7,0.8,1.2,1.8,1.2c0.4,0,0.9,0.1,1.3-0.1
					c1.3-0.4,2.5-1.2,3.7-2.5c0.9-0.9,2.3-3,2.3-3s0.7-1.4,0.7-1.4l-0.2,1.4c-1.2,6-2.8,10.1-8.1,12.2c-0.5,0.2-1,0.3-1.3,0.4
					c-0.4,0.1-0.6,0.1-0.7,0.2c0.1,0.1,0.4,0.5,1.3,0.7c0.2,0.1,0.4,0.1,0.7,0.1c1.8,0,4.6-1.1,5.8-2.4c3.5-3.4,4.3-7.2,4.9-10.6
					c0.1-0.7,0.3-1.3,0.4-2.1C228.1,347.4,229,342,228.9,340.4z M179.8,354.5c-1.4-1.3-1.4-3.4-0.7-5.7c1.4-5.1,3.3-9.8,4.6-12.9
					c0.6-1.6,1.2-2.9,1.2-3.1c-0.1-0.1-0.4-0.3-0.9-0.3c-0.4,0-1,0.1-1.6,0.5s-1.4,2.3-1.6,3c-0.9,2.2-2.3,6.3-3.4,9.5
					c-0.1,0.5-0.5,1.6-0.5,1.6c-0.7,2.1-1.9,5.5-3.4,6.2c-0.1,0.1-0.4,0.1-0.7,0.1c-0.4,0-0.6,0-0.8-0.3c-0.4-0.5-0.5-1.3-0.1-2.7
					c0.1-0.4,0.1-0.7,0.2-1.1l0.1-0.2c0.5-1.9,1.2-3.7,1.6-4.9c0.1-0.4,0.3-0.7,0.4-1c-0.1,0-0.1,0-0.2,0c-0.7,0-1.9,0.4-2.4,1.5
					c-0.8,1.8-2.9,6.2-4.9,8.2c-0.9,0.9-1.9,1.3-2.3,1.3c-0.4-0.1-0.7-0.2-0.8-0.5c-0.3-0.4-0.4-1-0.1-1.9c1.3-5,5.8-8.9,9.7-10
					c1.2-0.4,1.6-0.2,1.8-0.5c0.1-0.3-0.1-0.6-0.7-0.9c-0.4-0.2-1-0.4-1.9-0.4c-1,0-2.3,0.2-4.4,1.3c-2.2,1.2-5.9,4.5-6.9,8.7
					c-0.4,1.9-0.4,3.4,0.4,4.4c0.4,0.6,1.4,1,2.3,1c0.6,0,1.2-0.1,1.7-0.4c1.9-1,3.5-2.9,3.9-3.5c0.1-0.2,0.3-0.4,0.3-0.4
					s-0.4,1.2,0,2.5c0.3,1,1.3,1.8,2.2,1.8c0.1,0,0.1,0,0.1,0c1.8-0.1,2.9-1.3,4.3-3.7c0-0.1,0.1-0.2,0.1-0.2s0.1,3.4,2.8,4.4
					c1.3,0.4,2.1,0.1,2.3-0.3C181.5,355.1,180.5,355.1,179.8,354.5z M213.2,354.5c-0.7-0.7-1.2-1.6-0.7-3.8c0.1-0.8,0.7-2.7,0.9-3.4
					c0.4-1.3,0.8-2.3,1-3.1c0.1-0.4,0.3-0.7,0.4-1c0,0-0.1,0-0.2,0c-0.7,0-1.9,0.4-2.4,1.5c-0.8,1.8-2.9,6.2-4.9,8.2
					c-0.9,0.9-1.6,1.3-2.3,1.3c-0.4,0-0.6-0.1-0.8-0.4c-0.4-0.4-0.4-1.2-0.2-2c1-4,4-7.1,7.1-8.9h0.1c0.1-0.1,0.2-0.1,0.3-0.1
					l0.1-0.1c0.1-0.1,0.1-0.1,0.2-0.1c0.1,0,0.1-0.1,0.1-0.1c0.1,0,0.1-0.1,0.2-0.1c0.1,0,0.1-0.1,0.2-0.1c0,0,0.1,0,0.1-0.1
					c0.4-0.2,0.9-0.4,1.3-0.4c1.2-0.4,1.6-0.2,1.8-0.5c0.1-0.3-0.1-0.6-0.7-0.9c-0.4-0.2-1-0.4-1.9-0.4c-1,0-2.3,0.2-4.4,1.3
					c-0.5,0.3-1.1,0.7-1.8,1.2c-0.6,0.4-1.2,1-1.8,1.6c-0.7,0.4-1.4,0.6-2,0.6c-0.1,0-0.2,0-0.3,0c-0.7-0.1-1-0.5-1-1.3v-0.1
					c0.1-0.1,0.1-0.3,0.2-0.5c0.3-0.7,0.8-2,0.5-2.6c-0.1-0.1-0.4-0.3-0.9-0.3c-0.1,0-0.3,0-0.4,0.1c-0.8,0.1-1.5,0.6-1.9,1.3
					c-0.4,0.7-0.5,1.6-0.3,2.5v0.1c-0.3,1.5-0.7,2.4-1.3,3.7l-0.3,0.6c-0.2,0.3-0.3,0.6-0.4,0.9c-0.8,1.9-2.8,5.3-4.2,5.4
					c-0.2,0-0.4-0.1-0.4-0.2c-1.5-0.7-0.1-4.1,1.6-8.4l0.2-0.6c0.1-0.4,0.3-0.8,0.4-1.1c0.1-0.5,0.3-1.2,0.1-1.6
					c-0.1-0.1-0.2-0.2-0.4-0.3c-0.2-0.1-0.4-0.1-0.5-0.1c-0.5,0-0.8,0.1-1.3,1.4v0.1c-0.2,0.4-0.3,0.7-0.5,1.1
					c-1.9,3.9-3.8,6.7-5.6,8.2c-0.4,0.4-0.7,0.5-1,0.5H185c-0.1,0-0.4-0.1-0.6-0.4c-0.4-0.6,0.2-1.6,1.8-5.2
					c0.2-0.4,0.4-0.9,0.6-1.4l0.2-0.5c0.7-1.7,1.5-4.1,0-5c-0.4-0.2-0.8-0.3-1.1-0.3c-0.5,0-1,0.1-1.1,0.4l-0.1,0.1
					c0.1,2.1-0.7,4-1.6,6c-0.2,0.5-0.4,1-0.7,1.5s-0.4,0.9-0.5,1.3c-0.3,0.8-0.4,1.6-0.6,2.4c0,0.2,0,0.4,0,0.7
					c0,0.3,0.1,0.6,0.2,0.9c0.3,0.8,1,1.5,1.7,1.6c0.1,0,0.2,0,0.4,0c1.3,0,2.5-0.7,2.8-1.1l0.1-0.1c1-1,2.1-2.3,2.7-3l0.7-1
					c0,0-0.1,0.1-0.3,1.1c-0.3,1.2-0.1,2.5,0.4,3.2c0.4,0.6,1.3,1,2.3,1c0.7,0,1.3-0.1,2.1-0.4c1.4-0.5,3-2.2,4.4-4.6
					c0.5-0.9,1.3-2.5,1.9-4.4c0-0.1,0.1-0.1,0.1-0.1h0.1h0.1c0.3,0.1,0.5,0.1,0.9,0.1c0.6,0,1.3-0.2,2-0.6c-1,1.3-1.8,2.8-2.2,4.5
					c-0.4,1.9-0.4,3.4,0.4,4.4c0.4,0.6,1.3,1,2.2,1c0.6,0,1.3-0.1,1.9-0.4c1.9-1,3.4-2.9,3.8-3.5c0.2-0.2,0.2-0.4,0.2-0.4
					s-0.4,3.7,2.3,4.6c1.2,0.4,2.1,0.1,2.3-0.3C214.8,355.1,213.8,355.1,213.2,354.5z"/>
				<path class="st8" d="M248.4,422.1h-95c-4.6,0-8.2-3.7-8.2-8.2v-95c0-4.6,3.7-8.2,8.2-8.2h95c4.6,0,8.2,3.7,8.2,8.2v95
					C256.7,418.4,253,422.1,248.4,422.1z M153.4,312.4c-3.5,0-6.3,2.8-6.3,6.3v95c0,3.5,2.8,6.3,6.3,6.3h95c3.5,0,6.3-2.8,6.3-6.3
					v-95c0-3.5-2.8-6.3-6.3-6.3L153.4,312.4L153.4,312.4z"/>
				<path class="st8" d="M200.9,330.5c-21.9,0-39.4-5.7-52.4-16.9l1.3-1.4c22,19.2,57.6,21.6,105.8,7.4l0.5,1.8
					C235.4,327.4,216.9,330.5,200.9,330.5z"/>
				<path class="st8" d="M193.4,330.9c-27.4,0-43.3-7.2-47.5-10.5l1.2-1.5c4.8,3.7,25.2,12.7,61.4,9.4l0.1,1.9
					C203.2,330.6,198.1,330.9,193.4,330.9z"/>
				<path class="st8" d="M255.2,378.2c-6.7-5.2-28.2-14.3-61.4-11.3l-0.1-1.9c33.8-3.1,55.8,6.3,62.7,11.7L255.2,378.2z"/>
				<path class="st8" d="M200.9,414.6c-0.3,0-0.6,0-0.9-0.1c-3.8-0.4-6.9-3.4-7.3-7.2c-0.1-1.5,0.1-3,0.7-4.3
					c0.7-1.6,1.1-3.3,1.1-4.7v-6.6c0-1.6-0.4-3.2-1.1-5c-0.4-1-0.7-2.1-0.7-3.3c0-2.4,1-4.6,2.8-6.2c1.7-1.6,4.1-2.3,6.5-2.1
					c3.8,0.4,6.9,3.4,7.3,7.2c0.1,1.5-0.1,3-0.7,4.3c-0.7,1.6-1.1,3.3-1.1,4.7v6.6c0,1.6,0.4,3.2,1.1,5c0.4,1,0.7,2.1,0.7,3.3
					c0,2.4-1,4.6-2.8,6.2C204.9,413.9,203,414.6,200.9,414.6z M200.9,377c-1.6,0-3.1,0.6-4.3,1.6c-1.3,1.2-2.2,3-2.2,4.8
					c0,0.9,0.1,1.7,0.5,2.5c0.9,2,1.3,3.9,1.3,5.7v6.6c0,1.7-0.4,3.6-1.3,5.5c-0.4,1-0.6,2.2-0.5,3.4c0.4,2.9,2.7,5.3,5.7,5.6
					c1.9,0.2,3.7-0.4,5-1.6c1.3-1.2,2.2-3,2.2-4.8c0-0.9-0.1-1.7-0.5-2.5c-0.9-2-1.3-3.9-1.3-5.7v-6.6c0-1.7,0.4-3.6,1.3-5.5
					c0.4-1,0.6-2.2,0.5-3.4c-0.4-2.9-2.7-5.3-5.7-5.6C201.4,377.1,201.2,377,200.9,377z"/>
				<path class="st8" d="M200.7,408.9c0-0.2,0.2-0.4,0.4-0.5c0.2,0,0.4,0.2,0.5,0.4c0,0.3-0.2,0.4-0.4,0.5
					C200.9,409.3,200.7,409.1,200.7,408.9z M198.5,408.7c-0.2-0.1-0.3-0.4-0.2-0.7c0.2-0.2,0.4-0.3,0.7-0.1c0.2,0.1,0.3,0.4,0.1,0.7
					c-0.1,0.1-0.2,0.2-0.4,0.2C198.7,408.7,198.6,408.7,198.5,408.7z M203,408.4c-0.1-0.2-0.1-0.5,0.1-0.7c0.2-0.1,0.5-0.1,0.7,0.1
					s0.1,0.5-0.1,0.7c-0.1,0.1-0.2,0.1-0.3,0.1C203.2,408.5,203.1,408.5,203,408.4z M196.7,406.7c-0.1-0.2,0-0.5,0.2-0.6
					c0.2-0.1,0.5,0,0.6,0.2c0.2,0.2,0,0.5-0.2,0.6c-0.1,0.1-0.1,0.1-0.2,0.1C197,406.9,196.8,406.9,196.7,406.7z M204.7,406.6
					c-0.2-0.1-0.4-0.4-0.3-0.6c0.1-0.2,0.4-0.4,0.6-0.3c0.2,0.1,0.4,0.4,0.3,0.6c-0.1,0.2-0.2,0.3-0.4,0.3
					C204.8,406.6,204.8,406.6,204.7,406.6z M196.7,404.5c-0.2-0.1-0.4-0.3-0.4-0.5c0.1-0.2,0.3-0.4,0.5-0.4c0.3,0.1,0.4,0.3,0.4,0.5
					C197.2,404.4,197,404.5,196.7,404.5z M204.6,403.9c-0.1-0.2,0.1-0.5,0.4-0.6c0.2-0.1,0.5,0.1,0.6,0.4c0.1,0.2-0.1,0.5-0.4,0.6
					h-0.1C204.9,404.2,204.6,404.1,204.6,403.9z M197.4,402.2c-0.2-0.1-0.4-0.3-0.3-0.6c0.1-0.2,0.3-0.4,0.6-0.3
					c0.2,0.1,0.4,0.3,0.3,0.6c-0.1,0.2-0.2,0.4-0.4,0.4C197.5,402.2,197.5,402.2,197.4,402.2z M203.8,401.6
					c-0.1-0.2,0.1-0.5,0.4-0.6c0.2-0.1,0.5,0.1,0.6,0.4c0.1,0.2-0.1,0.5-0.4,0.5c-0.1,0-0.1,0-0.1,0
					C204.1,401.9,203.9,401.8,203.8,401.6z M197.3,399.4c0-0.2,0.2-0.4,0.4-0.4s0.4,0.2,0.4,0.4c0,0.3-0.2,0.4-0.4,0.4
					S197.3,399.6,197.3,399.4z M203.7,399c0-0.3,0.2-0.4,0.4-0.4c0.3,0,0.4,0.2,0.4,0.4c0,0.2-0.2,0.4-0.4,0.4
					S203.7,399.2,203.7,399z M197.3,396.9c0-0.3,0.2-0.4,0.4-0.4s0.4,0.2,0.4,0.4c0,0.3-0.2,0.4-0.4,0.4S197.3,397.2,197.3,396.9z
					 M203.7,396.6c0-0.3,0.2-0.4,0.4-0.4c0.3,0,0.4,0.2,0.4,0.4c0,0.3-0.2,0.4-0.4,0.4S203.7,396.9,203.7,396.6z M197.3,394.5
					c0-0.2,0.2-0.4,0.4-0.4s0.4,0.2,0.4,0.4c0,0.3-0.2,0.4-0.4,0.4S197.3,394.8,197.3,394.5z M203.7,394.1c0-0.3,0.2-0.4,0.4-0.4
					c0.3,0,0.4,0.2,0.4,0.4s-0.2,0.4-0.4,0.4C203.9,394.6,203.7,394.4,203.7,394.1z M197.3,392c0-0.3,0.2-0.4,0.4-0.4
					s0.4,0.2,0.4,0.4s-0.2,0.4-0.4,0.4C197.5,392.5,197.3,392.3,197.3,392z M203.7,391.7c0-0.3,0.2-0.4,0.4-0.4
					c0.3,0,0.4,0.2,0.4,0.4c0,0.3-0.2,0.4-0.4,0.4S203.7,391.9,203.7,391.7z M197.3,389.6c0-0.2,0.2-0.4,0.4-0.5
					c0.3,0,0.4,0.2,0.5,0.4c0,0.3-0.2,0.4-0.4,0.5C197.5,390.1,197.3,389.8,197.3,389.6z M204.1,389.7c-0.3,0-0.4-0.2-0.4-0.5
					c0-0.2,0.2-0.4,0.5-0.4c0.2,0,0.4,0.2,0.4,0.5C204.6,389.5,204.4,389.7,204.1,389.7z M196.8,387.4c-0.1-0.2,0-0.5,0.3-0.6
					c0.2-0.1,0.5,0,0.6,0.3c0.1,0.2-0.1,0.5-0.3,0.6c-0.1,0-0.1,0.1-0.1,0.1C197.1,387.7,196.9,387.6,196.8,387.4z M204.6,387.3
					c-0.2-0.1-0.4-0.4-0.2-0.6c0,0,0,0,0-0.1c0.1-0.2,0.4-0.4,0.6-0.2c0.2,0.1,0.4,0.4,0.2,0.6c-0.1,0.1-0.2,0.3-0.4,0.3
					C204.7,387.4,204.6,387.4,204.6,387.3z M196.7,385.4c-0.3,0-0.4-0.2-0.4-0.5c0-0.2,0.2-0.4,0.5-0.4c0.3,0,0.4,0.2,0.4,0.5
					C197.2,385.1,197,385.4,196.7,385.4z M204.6,384.5c-0.1-0.2,0.1-0.5,0.4-0.5c0.3-0.1,0.5,0.2,0.5,0.4c0.1,0.3-0.2,0.5-0.4,0.5
					h-0.1C204.9,384.9,204.6,384.8,204.6,384.5z M197.3,383c-0.2-0.1-0.2-0.4-0.1-0.7c0.1-0.2,0.4-0.2,0.7-0.1
					c0.2,0.1,0.2,0.4,0.1,0.7c-0.1,0.1-0.2,0.2-0.4,0.2C197.5,383,197.4,383,197.3,383z M203.7,382.6c-0.2-0.2-0.2-0.4,0-0.7
					c0.2-0.1,0.5-0.1,0.7,0c0.2,0.2,0.2,0.5,0,0.7c-0.1,0.1-0.2,0.1-0.3,0.1C203.9,382.8,203.7,382.7,203.7,382.6z M199.1,381.3
					c-0.1-0.2,0.1-0.5,0.3-0.6c0.2-0.1,0.5,0.1,0.6,0.3c0.1,0.2-0.1,0.5-0.3,0.6c-0.1,0-0.1,0-0.1,0
					C199.3,381.6,199.2,381.6,199.1,381.3z M201.8,381.5c-0.2-0.1-0.4-0.3-0.4-0.6c0.1-0.2,0.3-0.4,0.6-0.4c0.2,0.1,0.4,0.3,0.4,0.6
					c-0.1,0.2-0.2,0.4-0.4,0.4C201.9,381.6,201.9,381.6,201.8,381.5z"/>
				<path class="st8" d="M200.9,417.7c-0.4,0-0.7,0-1-0.1c-4.5-0.5-8.1-4.1-8.7-8.6c-0.1-0.6-0.1-1.3,0-2v-1.6
					c0-1.1-0.4-2.8-3.5-4.5c-1.3-0.8-1.8-1.6-1.8-2.9v-9.6c0-1.3,0.4-2.2,1.8-2.9c3.4-1.9,3.5-3.6,3.5-4.2V381
					c0.2-2.7,1.5-5.1,3.6-6.7c2-1.6,4.6-2.5,7.3-2.2c4.5,0.5,8.1,4.1,8.7,8.6v0.3c0,1.2,0.4,2.8,3.5,4.6c1.3,0.7,1.8,1.6,1.8,2.9
					v9.6c0,1.3-0.4,2.2-1.8,2.9c-3.2,1.7-3.5,3.4-3.5,4.5l0.1,2.3c0,2.8-1.2,5.5-3.3,7.3C205.7,416.8,203.4,417.7,200.9,417.7z
					 M201,374c-1.9,0-3.6,0.6-5,1.8c-1.6,1.3-2.7,3.3-2.8,5.4v0.3c-0.1,2.4-1.6,4.3-4.5,5.7c-0.7,0.4-0.8,0.7-0.8,1.3v9.6
					c0,0.6,0.1,0.8,0.8,1.3c3,1.6,4.5,3.7,4.5,6.1v1.6c-0.1,0.7-0.1,1.2,0,1.7c0.4,3.6,3.4,6.5,6.9,6.9c2.3,0.2,4.5-0.4,6.2-1.9
					c1.6-1.5,2.6-3.7,2.6-5.9l-0.1-2.3c0-2.5,1.5-4.5,4.5-6.1c0.7-0.4,0.8-0.7,0.8-1.3v-9.6c0-0.6-0.1-0.8-0.8-1.3
					c-3-1.6-4.5-3.7-4.5-6.1V381c-0.4-3.6-3.4-6.5-6.9-6.9C201.6,374,201.3,374,201,374z"/>
				<path class="st8" d="M255.8,383.9h-45.6c-0.5,0-1-0.4-1-1c0-0.5,0.4-1,1-1h45.6c0.5,0,1,0.4,1,1
					C256.7,383.4,256.3,383.9,255.8,383.9z"/>
				<path class="st8" d="M191.6,383.9h-45.5c-0.5,0-1-0.4-1-1c0-0.5,0.4-1,1-1h45.5c0.5,0,1,0.4,1,1
					C192.5,383.4,192.1,383.9,191.6,383.9z"/>
				<path class="st8" d="M255.7,405.4h-45.9c-0.5,0-1-0.4-1-1c0-0.5,0.4-1,1-1h45.9c0.5,0,1,0.4,1,1
					C256.7,405,256.2,405.4,255.7,405.4z"/>
				<path class="st8" d="M192,403.6h-45.9v1.9H192V403.6z"/>
				<path class="st8" d="M253.3,383.6c-14.2-12.4-34.8-18.1-59.5-16.8l-1.7,0.1c-12.8,0.7-27.3,1.5-45.2,10.7L146,376
					c18.2-9.5,32.9-10.3,45.9-11l1.7-0.1c25.2-1.4,46.3,4.6,60.8,17.2L253.3,383.6z"/>
				<path class="st8" d="M153.1,374.2h-1.9v8.9h1.9V374.2z"/>
				<path class="st8" d="M160.7,371.3h-1.9V383h1.9V371.3z"/>
				<path class="st8" d="M168.1,369.1h-1.9V383h1.9V369.1z"/>
				<path class="st8" d="M175.7,367.6h-1.9V383h1.9V367.6z"/>
				<path class="st8" d="M183.2,366.7h-1.9V383h1.9V366.7z"/>
				<path class="st8" d="M190.7,366.1h-1.9V383h1.9V366.1z"/>
				<path class="st8" d="M198.2,365.7h-1.9v8.1h1.9V365.7z"/>
				<path class="st8" d="M205.7,365.9h-1.9v8h1.9V365.9z"/>
				<path class="st8" d="M213.2,366.3h-1.9V383h1.9V366.3z"/>
				<path class="st8" d="M220.8,367.4h-1.9V383h1.9V367.4z"/>
				<path class="st8" d="M228.3,369.2h-1.9V383h1.9V369.2z"/>
				<path class="st8" d="M235.8,371.6h-1.9V383h1.9V371.6z"/>
				<path class="st8" d="M243.3,375.1h-1.9v7.9h1.9V375.1z"/>
				<path class="st8" d="M250.8,379.7H249v3.3h1.9V379.7z"/>
				<g>
					<defs>
						<rect id="SVGID_9_" x="265.2" y="311.3" width="110.6" height="110.6"/>
					</defs>
					<clipPath id="SVGID_10_">
						<use xlink:href="#SVGID_9_"  style="overflow:visible;"/>
					</clipPath>
					<g class="st12">
						<path class="st8" d="M375,413.5c-0.6,0-1.2-0.2-1.7-0.6c-0.4-0.3-0.7-0.6-1.1-0.8c-2.9-1.6-4.9-5.9-4.9-13
							c0-1.4,0.1-2.9,0.2-4.3c-0.6,1.3-1.2,2.6-1.9,3.8c-3.5,6.2-7.4,8.9-10.7,8.8c-0.5,0-1,0.1-1.4,0.2c-0.7,0.1-1.3,0-1.8-0.3
							c-0.5-0.3-0.9-0.8-1.1-1.4c-0.2-0.5-0.3-0.9-0.6-1.3c-1.7-2.9-1.3-7.6,2.2-13.8c0.7-1.3,1.5-2.5,2.4-3.6
							c-1.1,0.9-2.4,1.7-3.6,2.4c-6.2,3.5-10.9,3.9-13.8,2.2c-0.4-0.2-0.9-0.4-1.3-0.6c-0.6-0.2-1.1-0.6-1.4-1.1
							c-0.3-0.5-0.4-1.1-0.3-1.8c0.1-0.5,0.2-1,0.2-1.4c0-3.3,2.6-7.2,8.8-10.7c1.3-0.7,2.6-1.4,3.8-1.9c-1.4,0.2-2.9,0.2-4.3,0.2
							c-7.1,0-11.4-2-13-4.9c-0.2-0.4-0.5-0.8-0.8-1.1c-0.4-0.6-0.6-1.1-0.6-1.7c0-0.6,0.2-1.2,0.6-1.7c0.3-0.4,0.6-0.7,0.8-1.1
							c1.6-2.9,5.9-4.9,13-4.9c1.4,0,2.9,0.1,4.3,0.2c-1.3-0.6-2.6-1.2-3.8-1.9c-6.2-3.5-8.9-7.4-8.8-10.7c0-0.5-0.1-1-0.2-1.4
							c-0.1-0.7,0-1.3,0.3-1.8s0.8-0.9,1.4-1.1c0.5-0.2,0.9-0.3,1.3-0.6c2.9-1.7,7.6-1.3,13.8,2.2c1.3,0.7,2.5,1.5,3.6,2.4
							c-0.9-1.1-1.7-2.4-2.4-3.6c-3.5-6.2-3.9-10.9-2.2-13.8c0.2-0.4,0.4-0.9,0.6-1.3c0.2-0.6,0.6-1.1,1.1-1.4
							c0.5-0.3,1.1-0.4,1.8-0.3c0.5,0.1,1,0.2,1.4,0.2c3.3,0,7.2,2.6,10.7,8.8c0.7,1.3,1.4,2.6,1.9,3.8c-0.2-1.4-0.2-2.9-0.2-4.3
							c0-7.1,2-11.4,4.9-13c0.4-0.2,0.8-0.5,1.1-0.8c0.6-0.4,1.1-0.6,1.7-0.6v31.3c-1.1,0-2.2,0.1-3.2,0.3c-0.6-0.6-1-1.5-1.5-2.5
							c0.1,1,0,2.1-0.1,3c-2.1,0.7-4,1.8-5.6,3.2c-0.8-0.3-1.7-0.8-2.6-1.4c0.6,0.9,1,1.8,1.4,2.6c-1.4,1.6-2.6,3.5-3.2,5.6
							c-0.9,0.2-1.8,0.2-3,0.1c1,0.5,1.8,1,2.5,1.5c-0.2,1-0.3,2.2-0.3,3.2c0,1.1,0.1,2.2,0.3,3.2c-0.6,0.6-1.5,1.1-2.5,1.5
							c1-0.1,2.1,0,3,0.1c0.7,2.1,1.8,4,3.2,5.6c-0.3,0.8-0.8,1.7-1.4,2.6c0.9-0.6,1.8-1,2.6-1.4c1.6,1.4,3.5,2.6,5.6,3.2
							c0.2,0.9,0.2,1.8,0.1,3c0.5-1,1-1.8,1.5-2.5c1,0.2,2.2,0.3,3.2,0.3V413.5z"/>
						<path class="st13" d="M368.9,312.1h-96.7c-3.4,0-6.2,2.8-6.2,6.2v96.7c0,3.4,2.8,6.2,6.2,6.2h96.7c3.4,0,6.2-2.8,6.2-6.2
							v-96.7C375,314.9,372.3,312.1,368.9,312.1z"/>
						<path class="st14" d="M353.7,373.8l2.2,25.9h-89.3v-25.9H353.7z"/>
						<path class="st8" d="M321.2,356.2c-0.6,0.1-1.8-0.1-2.4-1c-0.9-1.4-0.5-3.2,0-5.4c0.2-0.5,0.3-1.1,0.4-1.7
							c1-4.9,0.5-6.7,0.2-7.3c0.6,0.1,1.4,0.6,1.6,1c0.6,1,0.7,2.2,0.3,4.2c-0.2,0.6-0.6,2.8-1,4.1c-0.6,1.9-0.6,2.4-0.7,2.9
							C319.3,354.7,319.9,355.6,321.2,356.2z"/>
						<path class="st8" d="M317.7,355.7c-0.5,0.1-1.6-0.2-2.1-0.9c-0.2-0.4-0.4-0.9-0.5-1.4l-0.1-0.6l-0.2,0.5
							c-0.6,1.4-1.8,2.2-3.4,2.2c-0.1,0-0.2,0-0.3,0c-0.9-0.1-1.7-0.5-2.1-1.1c-0.6-0.7-0.7-1.8-0.5-3c0.5-2.2,2.1-4,3.8-4.1
							c0.2,0,0.3,0,0.4,0c0.7,0.2,1.1,0.6,1.2,1.4c0.1,1.4-1.2,3.7-3.4,5l-0.2,0.1l0.1,0.2c0.3,0.5,0.8,0.9,1.5,0.8
							c2.3-0.2,3-1.9,3.2-2.6c0.1-1.4,0.4-2.9,0.7-4.3c0.1-0.2,0.1-0.4,0.2-0.6c1-4.3,0.6-6.2,0.3-6.9c0.6,0,1,0.2,1.4,0.6
							c0.6,0.7,0.6,1.8,0.3,3.8c0,0-0.6,2.8-1,4.5c-0.6,2.3-0.6,2.6-0.6,2.9C316.2,354.4,317.2,355.4,317.7,355.7z M312.1,347.9
							c-1,0-1.7,2-1.9,3.2c-0.2,0.7-0.2,1.4-0.1,2l0.1,0.3l0.2-0.2c1.4-1.4,2.4-3.8,2.2-4.8c0-0.2-0.1-0.4-0.3-0.4
							C312.2,347.9,312.2,347.9,312.1,347.9z"/>
						<path class="st8" d="M284,356.8c-0.6,0-1.1-0.2-1.6-0.6c-1.9-1.7-1.4-5.7-0.4-8.5c0.4-1.1,0.8-2.2,1.2-3c0.9-2.2,1.4-3.4,1-4
							c-0.1-0.2-0.2-0.2-0.5-0.3c-0.1,0-0.1,0-0.2,0c-0.2,0-0.4,0.1-0.6,0.2c-1.8,1-4.9,7.3-5.4,9.4c-0.6,2.4-0.6,4.4-0.3,5.8h-0.1
							c-0.6,0-1-0.2-1.3-0.4c-1.3-1.1-0.6-4.2-0.2-6.2c0.1-0.2,0.2-0.5,0.2-0.7l0.1-0.5c1-5,1-7.3-0.3-7.6c-0.2,0-0.3-0.1-0.5-0.1
							c-1.1,0-2.1,1.1-2.6,2.2c-0.5,1.1-0.7,2.3-0.5,2.9c-0.1,0.1-0.2,0.1-0.2,0.1c-0.1,0-0.1,0-0.2-0.1c-0.1-0.1-0.8-0.7,0.2-2.8
							c0.8-1.7,2.2-2.6,3.5-2.7h0.1c0.5,0,1,0.2,1.4,0.6c1,1,1.6,3,1.3,5.4c0,0.2-0.1,0.4,0,0.4c0.1,0.1,0.1,0,0.2-0.2
							c0.6-1.4,2.6-5.4,4.8-6.2c0.2-0.1,0.5-0.2,0.7-0.2c0.2,0,0.4,0,0.6,0.1c0.6,0.2,1,0.6,1.2,1c0.7,1.5-0.1,3.5-1.3,6.2
							c-0.1,0.2-0.2,0.5-0.3,0.7c-1.4,3.3-1.6,6.6-0.8,7.9c0.2,0.2,0.6,0.7,1.3,1c-0.2,0.1-0.2,0.1-0.4,0.1
							C284.3,356.8,284.2,356.8,284,356.8z"/>
						<path class="st8" d="M327.8,355.5c-0.3,0-0.6-0.1-0.8-0.2c-0.6-0.3-0.9-0.8-1-1.5l-0.1-0.4l-0.2,0.4c-0.5,0.9-1,1.5-1.8,1.7
							c-0.2,0.1-0.5,0.1-0.6,0.1c-0.7,0-1.2-0.3-1.4-0.7c-0.5-0.7-0.6-1.8-0.2-3.1c0.6-2.6,2.2-3.9,3.6-4c0.6,0,1.1,0.2,1.4,0.5
							l0.1,0.1l0.1-0.1c0.4-0.2,1-0.4,1.4-0.4c0.2,0,0.2,0.1,0.2,0.1s0,0.1,0,0.2c-0.6,1.4-1,3.4-1.1,4.2c-0.2,1.5,0.1,2.3,0.5,2.6
							c0.2,0.1,0.3,0.2,0.5,0.2h0.1c0.2,0,0.6-0.1,0.7-0.2c0.2-0.1,0.2-0.2,0.4-0.2C329,355.1,328.4,355.5,327.8,355.5z
							 M325.6,348.3c-0.7,0-1.9,1-2.3,3c-0.3,1.6-0.3,2.6,0,3.1c0.2,0.2,0.4,0.3,0.6,0.3c0.2,0,0.3-0.1,0.4-0.1c1.1-0.6,1.4-2,1.5-3
							v-0.1c0-0.2,0.1-0.3,0.1-0.5c0.2-0.7,0.3-1.3,0.4-2C326.3,348.5,326,348.3,325.6,348.3z"/>
						<path class="st8" d="M304.2,356.7c-1.3,0-2.4-1-2.6-2.6l-0.1-0.5l-0.2,0.4c-0.4,1-1,1.5-1.9,1.5h-0.1c-0.5,0-1-0.2-1.4-0.6
							c-0.1-0.1-0.1-0.2-0.2-0.2l-0.1-0.2l-0.2,0.2c-0.5,0.5-1.2,1-2.2,1.1c-0.2,0-0.4,0-0.6-0.1c-0.6-0.1-1-0.5-1.2-1l-0.1-0.2
							l-0.2,0.2c-0.5,0.7-1.2,1.1-1.8,1.1c-0.3,0-0.6-0.1-0.9-0.2c-0.6-0.3-0.9-0.8-1-1.5l-0.1-0.4l-0.2,0.4c-0.5,0.9-1,1.5-1.8,1.7
							c-0.2,0.1-0.5,0.1-0.6,0.1c-0.7,0-1.2-0.3-1.4-0.7c-0.5-0.7-0.6-1.8-0.2-3.1c0.6-2.6,2.2-3.9,3.6-4c0.6,0,1.1,0.2,1.4,0.5
							l0.1,0.1l0.1-0.1c0.4-0.2,1-0.4,1.4-0.4c0.2,0,0.2,0.1,0.2,0.1s0,0.1,0,0.2c-0.6,1.4-1,3.4-1.1,4.2c-0.2,1.5,0.1,2.3,0.5,2.6
							c0.2,0.1,0.3,0.2,0.5,0.2c0.5,0,1.2-0.6,1.5-1.6c0-0.1,0-0.2,0.1-0.2v-0.1v-0.1c0-2.2,0.9-5.7,1.1-6.2l0.1-0.2
							c0,0-2.2-0.4-3.4,0.5c0.2-0.5,0.6-0.9,1-1.1c0.8-0.5,1.4-0.6,2-0.6c0.6,0,0.9,0,0.9,0v-0.1c0.1-0.2,0.5-1.5,0.4-2
							c0.2,0,0.6,0.2,0.8,0.4c0.2,0.2,0.2,0.7,0.2,1.2c-0.1,0.2-0.1,0.3-0.1,0.4l-0.1,0.2c0.3,0.1,1.4,0.1,1.8,0
							c0.8-0.1,1.4-0.3,1.8-0.6c-0.2,0.5-0.5,0.9-1,1.2c-0.5,0.2-1.2,0.6-2.1,0.6c-0.4,0-1,0-1,0v0.2c-1.3,4.6-1.4,7.3-0.5,8
							c0.1,0.1,0.3,0.2,0.6,0.2c0.3,0,0.6-0.1,1-0.3c0.2-0.2,0.5-0.3,0.6-0.6l0.1-0.1v-0.1c-0.4-0.6-0.4-1.2-0.3-2
							c0.2-1.3,0.5-2.9,0.7-3.4c0.2-0.4,1.4-0.7,1.8-0.8c0.1,0,0.2,0,0.2,0.1c0,0,0,0.1,0,0.2l-0.1,0.2c-0.2,0.6-0.6,1.4-1,3.4
							c-0.2,1.3-0.2,2.3,0.2,2.8c0.2,0.2,0.3,0.2,0.6,0.2h0.1c0.5-0.1,1.1-0.4,1.6-2.8c0.2-1.1,0.6-2.7,0.8-3.6
							c0.1-0.4,1-0.6,1.5-0.6c0.2,0,0.2,0.1,0.2,0.1s0,0.1,0,0.2c-0.6,1.4-1,3.4-1.1,4.2c-0.2,1.6-0.1,2.9,0.5,3.6
							c0.3,0.4,0.9,0.7,1.4,0.7c0.1,0,0.1,0,0.2,0h0.1C304.8,356.7,304.5,356.7,304.2,356.7z M289.1,348.6c-0.7,0-1.9,1-2.3,3
							c-0.3,1.6-0.3,2.6,0,3.1c0.2,0.2,0.4,0.3,0.6,0.3c0.2,0,0.3-0.1,0.4-0.1c1.1-0.6,1.4-2,1.5-3v-0.1c0-0.2,0.1-0.3,0.1-0.5
							c0.2-0.7,0.3-1.3,0.4-2C289.8,348.9,289.5,348.6,289.1,348.6z"/>
						<path class="st8" d="M306.3,355.5c-0.2,0-0.4,0-0.6-0.1c-1.4-0.5-1.1-2.3-0.6-4.2l0.1-0.5c0.4-1.8,0.6-3.1,0.2-3.8
							c-0.2-0.2-0.3-0.3-0.6-0.4c0.2-0.1,0.5-0.2,0.7-0.2c0.3,0,0.6,0.1,0.9,0.2c0.2,0.2,0.4,0.4,0.4,1.3v0.6c0,0,1.3-2.8,2.7-3
							c0.6-0.1,1.3,0.3,1.4,1c-0.6-0.1-1.6-0.5-3.4,2.3c-0.1,0.1-0.8,1.1-1.3,4.2v0.1C306,354.1,305.9,355,306.3,355.5
							C306.3,355.5,306.4,355.5,306.3,355.5z"/>
						<path class="st8" d="M308.3,339.5c2.2-1,2.2-2.1,2-2.6c-0.2-0.4-1-1.1-3.2-0.2c-1.5,0.6-2.7,1.8-3.3,2.5
							c-0.1-0.1-0.2-0.2-0.3-0.3c0.8-0.5,2.1-1.8,3-3.4c1.2-2.2,0.6-3.1,0.2-3.4c-0.4-0.2-1.5-0.2-2.8,1.9c-0.9,1.6-1.3,3.4-1.3,4.3
							c-0.2-0.1-0.3-0.1-0.5-0.1c0.3-0.8,0.5-2.2,0.3-3.6c-0.3-2.1-1.3-2.4-1.7-2.3c-0.4,0.1-1.3,0.6-1,2.7c0.2,1.4,0.8,2.7,1.3,3.4
							c-0.2,0.1-0.3,0.2-0.5,0.2c-0.2-0.6-0.6-1.4-1.3-2.2c-1.1-1.2-1.9-0.9-2.2-0.6c-0.2,0.2-0.6,1,0.5,2.2
							c0.6,0.7,1.4,1.2,2.1,1.4c0,0,0,0.1-0.1,0.1c-0.1,0.1-0.1,0.2-0.2,0.2c-0.4-0.3-1-0.7-1.8-0.9c-1.2-0.2-1.5,0.4-1.6,0.7
							c-0.1,0.3,0.1,1,1.3,1.2c0.7,0.2,1.5,0,2-0.2c0,0.9,0.5,1.8,1.3,2.2c0.8,0.5,1.8,0.4,2.6-0.1c0.1,0.5,0.4,1.2,0.9,1.8
							c0.8,0.9,1.4,0.6,1.7,0.4s0.6-0.9-0.2-1.8c-0.5-0.6-1.2-1-1.7-1c0.1-0.1,0.1-0.2,0.2-0.2c0-0.1,0.1-0.1,0.1-0.2
							c0.6,0.5,1.6,1,2.7,1.1c1.8,0.3,2.3-0.3,2.4-0.7c0.1-0.4-0.2-1.2-1.9-1.6c-1.1-0.2-2.2-0.2-2.9,0c0-0.2,0-0.3-0.1-0.5
							C305.1,340.5,306.7,340.3,308.3,339.5z"/>
					</g>
				</g>
				<path class="st8" d="M176.9,540h-5.2l-7.8-10.9V540h-4.5v-21.4h4.5v10.4l7.7-10.4h4.8l-7.8,10.3L176.9,540z M176.9,523.6h4.9
					l3.1,9.2c0.3,0.8,0.4,1.7,0.5,2.8h0.1c0.1-1,0.3-2,0.6-2.8l3-9.2h4.8l-6.9,18.5c-0.6,1.7-1.5,3-2.7,3.8
					c-1.2,0.8-2.5,1.3-4.1,1.3c-0.8,0-1.5-0.1-2.3-0.2v-3.5c0.5,0.1,1.1,0.2,1.8,0.2c0.8,0,1.5-0.2,2.1-0.7c0.6-0.5,1.1-1.2,1.4-2.2
					l0.3-0.8L176.9,523.6z M211.2,523.6V540h-4.5v-13h-5.9v13h-4.5v-16.4H211.2z M220.2,523.6v6.5c0,0.7-0.1,2.4-0.3,5l7.6-11.5h5.4
					V540h-4.3v-6.5c0-1.2,0.1-2.8,0.3-4.9l-7.5,11.5h-5.4v-16.4H220.2z M249.8,523.6v6.3h6.2v-6.3h4.5V540H256v-6.8h-6.2v6.8h-4.5
					v-16.4H249.8z M268.7,531.8c0,1.6,0.3,2.8,0.8,3.7c0.5,0.8,1.4,1.2,2.6,1.2c1.2,0,2-0.4,2.6-1.2c0.5-0.8,0.8-2.1,0.8-3.7
					c0-1.6-0.3-2.8-0.8-3.6c-0.5-0.8-1.4-1.2-2.6-1.2c-1.2,0-2.1,0.4-2.6,1.2C269,528.9,268.7,530.1,268.7,531.8z M280.1,531.8
					c0,2.7-0.7,4.8-2.1,6.3c-1.4,1.5-3.4,2.3-5.9,2.3c-1.6,0-3-0.3-4.2-1c-1.2-0.7-2.1-1.7-2.8-3c-0.6-1.3-1-2.8-1-4.5
					c0-2.7,0.7-4.8,2.1-6.2c1.4-1.5,3.4-2.2,5.9-2.2c1.6,0,3,0.3,4.2,1c1.2,0.7,2.1,1.7,2.8,2.9C279.7,528.5,280.1,530,280.1,531.8z
					 M287.7,523.6v6c0,1.4,0.7,2.1,2,2.1c0.9,0,1.7-0.1,2.4-0.3c0.7-0.2,1.5-0.4,2.2-0.8v-7.1h4.5V540h-4.5v-6.5
					c-1,0.5-2,0.9-2.9,1.2c-0.9,0.2-1.7,0.3-2.6,0.3c-1.8,0-3.2-0.5-4.1-1.4c-1-0.9-1.5-2.2-1.5-3.9v-6.1H287.7z M307.9,523.6v6.3
					h6.2v-6.3h4.5V540h-4.5v-6.8h-6.2v6.8h-4.5v-16.4H307.9z M327.8,529.9h2.2c2.5,0,4.4,0.4,5.6,1.2c1.2,0.8,1.8,2,1.8,3.6
					c0,1.7-0.6,3-1.8,3.9c-1.2,0.9-3,1.3-5.4,1.3h-6.8v-16.4h4.5V529.9z M332.8,534.8c0-0.6-0.3-1.1-0.8-1.4
					c-0.5-0.3-1.3-0.4-2.3-0.4h-2v3.9h2.1C331.8,536.9,332.8,536.2,332.8,534.8z M344.1,540h-4.5v-16.4h4.5V540z M355.6,526.5
					c-0.9,0-1.7,0.3-2.2,0.9c-0.5,0.6-0.8,1.4-0.9,2.5h6.3c0-1.1-0.3-2-0.9-2.5C357.3,526.8,356.6,526.5,355.6,526.5z M356.2,540.3
					c-2.6,0-4.7-0.7-6.2-2.2c-1.5-1.5-2.2-3.5-2.2-6.2c0-2.7,0.7-4.9,2.1-6.4c1.4-1.5,3.3-2.3,5.7-2.3c2.3,0,4.1,0.7,5.4,2
					c1.3,1.3,1.9,3.1,1.9,5.5v2.2h-10.6c0,1.3,0.4,2.3,1.1,3c0.7,0.7,1.7,1.1,3,1.1c1,0,1.9-0.1,2.8-0.3c0.9-0.2,1.8-0.5,2.8-1v3.5
					c-0.8,0.4-1.6,0.7-2.5,0.9C358.6,540.2,357.5,540.3,356.2,540.3z M112.8,580l-1.6-5.1h-7.8l-1.6,5.1H97l7.6-21.5h5.6l7.6,21.5
					H112.8z M110.1,571.1c-1.4-4.6-2.2-7.2-2.4-7.8c-0.2-0.6-0.3-1.1-0.4-1.4c-0.3,1.2-1.2,4.3-2.8,9.3H110.1z M124.5,580H120v-22.8
					h4.5V580z M142.7,580l-1.3-5.7l-1.7-7.2h-0.1l-3,13h-4.8l-4.7-16.4h4.5l1.9,7.2c0.3,1.3,0.6,3.1,0.9,5.4h0.1
					c0-0.7,0.2-1.9,0.5-3.5l0.2-1.2l2-7.9h4.9l1.9,7.9c0,0.2,0.1,0.5,0.2,1c0.1,0.4,0.2,0.9,0.2,1.3c0.1,0.5,0.1,0.9,0.2,1.4
					c0.1,0.5,0.1,0.8,0.1,1.1h0.1c0.1-0.7,0.2-1.7,0.5-2.9c0.2-1.2,0.4-2.1,0.5-2.5l2-7.2h4.4l-4.7,16.4H142.7z M165.3,580l-0.9-2.2
					h-0.1c-0.8,0.9-1.5,1.6-2.3,2c-0.8,0.4-1.8,0.5-3.1,0.5c-1.6,0-2.8-0.4-3.7-1.3c-0.9-0.9-1.3-2.2-1.3-3.8c0-1.7,0.6-3,1.8-3.8
					c1.2-0.8,3.1-1.3,5.5-1.4l2.8-0.1v-0.7c0-1.7-0.8-2.5-2.5-2.5c-1.3,0-2.8,0.4-4.6,1.2l-1.5-3c1.9-1,4-1.5,6.3-1.5
					c2.2,0,3.9,0.5,5.1,1.4s1.8,2.4,1.8,4.4V580H165.3z M164,572.4l-1.7,0.1c-1.3,0-2.3,0.3-2.9,0.7c-0.6,0.4-1,1.1-1,2
					c0,1.3,0.7,1.9,2.2,1.9c1,0,1.9-0.3,2.5-0.9c0.6-0.6,0.9-1.4,0.9-2.4V572.4z M170.7,563.6h4.9l3.1,9.2c0.3,0.8,0.4,1.7,0.5,2.8
					h0.1c0.1-1,0.3-2,0.6-2.8l3-9.2h4.8l-6.9,18.5c-0.6,1.7-1.5,3-2.7,3.8c-1.2,0.8-2.5,1.3-4.1,1.3c-0.8,0-1.5-0.1-2.3-0.2v-3.5
					c0.5,0.1,1.1,0.2,1.8,0.2c0.8,0,1.5-0.2,2.1-0.7c0.6-0.5,1.1-1.2,1.4-2.2l0.3-0.8L170.7,563.6z M201.5,575.1
					c0,1.7-0.6,3-1.8,3.8c-1.2,0.9-2.9,1.3-5.2,1.3c-1.2,0-2.2-0.1-3-0.2c-0.8-0.2-1.6-0.4-2.4-0.7v-3.7c0.8,0.4,1.8,0.7,2.8,1
					c1,0.3,2,0.4,2.8,0.4c1.6,0,2.4-0.5,2.4-1.4c0-0.4-0.1-0.6-0.3-0.8c-0.2-0.2-0.6-0.5-1.1-0.7c-0.5-0.3-1.2-0.6-2.1-1
					c-1.3-0.5-2.2-1-2.8-1.5c-0.6-0.5-1-1-1.3-1.5c-0.3-0.6-0.4-1.3-0.4-2.2c0-1.5,0.6-2.6,1.7-3.4c1.1-0.8,2.7-1.2,4.8-1.2
					c2,0,3.9,0.4,5.8,1.3l-1.3,3.2c-0.8-0.4-1.6-0.6-2.3-0.9c-0.7-0.2-1.4-0.3-2.2-0.3c-1.3,0-2,0.4-2,1.1c0,0.4,0.2,0.7,0.6,1
					c0.4,0.3,1.4,0.7,2.8,1.3c1.3,0.5,2.2,1,2.8,1.5c0.6,0.4,1,1,1.3,1.6C201.4,573.6,201.5,574.3,201.5,575.1z M217.1,563.6v6.5
					c0,0.7-0.1,2.4-0.3,5l7.6-11.5h5.4V580h-4.3v-6.5c0-1.2,0.1-2.8,0.3-4.9l-7.5,11.5h-5.4v-16.4H217.1z M249.1,580h-4.5v-13h-4.1
					c-0.3,3.7-0.7,6.4-1.1,8.2c-0.4,1.8-1,3.1-1.8,3.9c-0.7,0.8-1.7,1.2-2.9,1.2c-1,0-1.9-0.2-2.5-0.5v-3.6c0.5,0.2,1,0.3,1.4,0.3
					c0.6,0,1-0.4,1.4-1.2c0.4-0.8,0.7-2.1,1-4c0.3-1.9,0.6-4.4,0.8-7.7h12.4V580z M258.1,563.6v6.5c0,0.7-0.1,2.4-0.3,5l7.6-11.5
					h5.4V580h-4.3v-6.5c0-1.2,0.1-2.8,0.3-4.9l-7.5,11.5h-5.4v-16.4H258.1z M302.6,580h-5.8l-9.3-16.2h-0.1c0.2,2.9,0.3,4.9,0.3,6.1
					V580h-4.1v-21.4h5.7l9.3,16h0.1c-0.1-2.8-0.2-4.8-0.2-5.9v-10.1h4.1V580z M318,580l-0.9-2.2H317c-0.8,0.9-1.5,1.6-2.3,2
					c-0.8,0.4-1.8,0.5-3.1,0.5c-1.6,0-2.8-0.4-3.7-1.3c-0.9-0.9-1.3-2.2-1.3-3.8c0-1.7,0.6-3,1.8-3.8c1.2-0.8,3.1-1.3,5.5-1.4
					l2.8-0.1v-0.7c0-1.7-0.9-2.5-2.5-2.5c-1.3,0-2.8,0.4-4.6,1.2l-1.5-3c1.9-1,4-1.5,6.3-1.5c2.2,0,3.9,0.5,5.1,1.4
					c1.2,1,1.8,2.4,1.8,4.4V580H318z M316.7,572.4l-1.7,0.1c-1.3,0-2.3,0.3-2.9,0.7c-0.6,0.4-1,1.1-1,2c0,1.3,0.7,1.9,2.2,1.9
					c1,0,1.9-0.3,2.5-0.9c0.6-0.6,0.9-1.4,0.9-2.4V572.4z M332.7,576.7c0.8,0,1.7-0.2,2.8-0.5v3.3c-1.1,0.5-2.5,0.7-4.1,0.7
					c-1.8,0-3.1-0.4-3.9-1.3c-0.8-0.9-1.2-2.3-1.2-4.1V567h-2.1v-1.9l2.5-1.5l1.3-3.5h2.9v3.5h4.6v3.4h-4.6v7.9
					c0,0.6,0.2,1.1,0.5,1.4C331.6,576.6,332.1,576.7,332.7,576.7z M350.4,580l-0.6-2.1h-0.2c-0.5,0.8-1.2,1.4-2,1.8
					c-0.9,0.4-1.9,0.6-3,0.6c-1.9,0-3.4-0.5-4.3-1.5c-1-1-1.5-2.5-1.5-4.5v-10.7h4.5v9.6c0,1.2,0.2,2.1,0.6,2.7
					c0.4,0.6,1.1,0.9,2,0.9c1.2,0,2.2-0.4,2.7-1.2c0.6-0.8,0.8-2.2,0.8-4.2v-7.7h4.5V580H350.4z M367.6,563.3c0.6,0,1.1,0,1.5,0.1
					l-0.3,4.2c-0.4-0.1-0.8-0.1-1.3-0.1c-1.4,0-2.5,0.4-3.3,1.1c-0.8,0.7-1.2,1.8-1.2,3.1v8.3h-4.5v-16.4h3.4l0.7,2.8h0.2
					c0.5-0.9,1.2-1.7,2.1-2.2C365.7,563.6,366.6,563.3,367.6,563.3z M378.9,566.5c-0.9,0-1.7,0.3-2.2,0.9c-0.5,0.6-0.8,1.4-0.9,2.5
					h6.3c0-1.1-0.3-2-0.9-2.5C380.6,566.8,379.9,566.5,378.9,566.5z M379.5,580.3c-2.6,0-4.7-0.7-6.2-2.2c-1.5-1.5-2.2-3.5-2.2-6.2
					c0-2.7,0.7-4.9,2.1-6.4c1.4-1.5,3.3-2.3,5.7-2.3c2.3,0,4.1,0.7,5.4,2c1.3,1.3,1.9,3.1,1.9,5.5v2.2h-10.6c0,1.3,0.4,2.3,1.1,3
					c0.7,0.7,1.7,1.1,3,1.1c1,0,1.9-0.1,2.8-0.3c0.9-0.2,1.8-0.5,2.8-1v3.5c-0.8,0.4-1.6,0.7-2.5,0.9
					C381.9,580.2,380.8,580.3,379.5,580.3z M394.3,580h-4.5v-22.8h4.5V580z M403.5,580H399v-22.8h4.5V580z M418.6,580l-0.9-2.2h-0.1
					c-0.8,0.9-1.5,1.6-2.3,2c-0.8,0.4-1.8,0.5-3.1,0.5c-1.6,0-2.8-0.4-3.7-1.3c-0.9-0.9-1.3-2.2-1.3-3.8c0-1.7,0.6-3,1.8-3.8
					c1.2-0.8,3.1-1.3,5.5-1.4l2.8-0.1v-0.7c0-1.7-0.9-2.5-2.5-2.5c-1.3,0-2.8,0.4-4.6,1.2l-1.5-3c1.9-1,4-1.5,6.3-1.5
					c2.2,0,3.9,0.5,5.1,1.4c1.2,1,1.8,2.4,1.8,4.4V580H418.6z M417.3,572.4l-1.7,0.1c-1.3,0-2.3,0.3-2.9,0.7c-0.6,0.4-1,1.1-1,2
					c0,1.3,0.7,1.9,2.2,1.9c1,0,1.9-0.3,2.5-0.9c0.6-0.6,0.9-1.4,0.9-2.4V572.4z"/>
				<path class="st8" d="M585.2,523.6c0,1.4-0.5,2.5-1.5,3.4c-1,0.9-2.3,1.5-4,1.7v0.1c2,0.2,3.5,0.7,4.5,1.6c1.1,0.9,1.6,2,1.6,3.5
					c0,2-0.8,3.5-2.4,4.7c-1.6,1.1-3.8,1.7-6.6,1.7c-3.1,0-5.7-0.4-7.6-1.2v-3.8c0.9,0.4,2,0.8,3.2,1c1.2,0.2,2.4,0.4,3.5,0.4
					c3.6,0,5.4-1,5.4-3.1c0-0.9-0.6-1.7-1.7-2.2c-1.2-0.5-2.9-0.8-5.1-0.8h-2v-3.5h1.8c2.3,0,3.9-0.2,5-0.6c1-0.4,1.6-1.1,1.6-2.1
					c0-0.7-0.3-1.3-1-1.7c-0.6-0.4-1.6-0.7-2.9-0.7c-2,0-4,0.6-5.8,1.7l-2-3c1.2-0.8,2.5-1.4,3.9-1.8c1.4-0.4,2.9-0.6,4.6-0.6
					c2.3,0,4.2,0.5,5.6,1.5C584.5,520.7,585.2,522,585.2,523.6z M599.9,540l-0.9-2.2h-0.1c-0.8,0.9-1.5,1.6-2.3,2
					c-0.8,0.4-1.8,0.5-3.1,0.5c-1.6,0-2.8-0.4-3.7-1.3c-0.9-0.9-1.3-2.2-1.3-3.8c0-1.7,0.6-3,1.8-3.8c1.2-0.8,3.1-1.3,5.5-1.4
					l2.8-0.1v-0.7c0-1.7-0.8-2.5-2.5-2.5c-1.3,0-2.8,0.4-4.6,1.2l-1.5-3c1.9-1,4-1.5,6.3-1.5c2.2,0,3.9,0.5,5.1,1.4s1.8,2.4,1.8,4.4
					V540H599.9z M598.6,532.4l-1.7,0.1c-1.3,0-2.3,0.3-2.9,0.7c-0.6,0.4-1,1.1-1,2c0,1.3,0.7,1.9,2.2,1.9c1,0,1.9-0.3,2.5-0.9
					c0.6-0.6,0.9-1.4,0.9-2.4V532.4z M616.7,540.3c-1.9,0-3.4-0.7-4.5-2.1h-0.2c0.2,1.4,0.2,2.2,0.2,2.4v6.6h-4.5v-23.6h3.6l0.6,2.1
					h0.2c1-1.6,2.6-2.4,4.6-2.4c1.9,0,3.4,0.7,4.5,2.2c1.1,1.5,1.6,3.6,1.6,6.2c0,1.7-0.3,3.3-0.8,4.6c-0.5,1.3-1.2,2.3-2.2,2.9
					C619,539.9,617.9,540.3,616.7,540.3z M615.3,526.9c-1.1,0-1.9,0.3-2.4,1c-0.5,0.7-0.8,1.8-0.8,3.4v0.5c0,1.8,0.3,3,0.8,3.8
					c0.5,0.8,1.4,1.1,2.5,1.1c2,0,3-1.7,3-5c0-1.6-0.2-2.8-0.7-3.6C617.2,527.3,616.4,526.9,615.3,526.9z M633.4,526.5
					c-0.9,0-1.7,0.3-2.2,0.9c-0.5,0.6-0.8,1.4-0.9,2.5h6.3c0-1.1-0.3-2-0.9-2.5C635.1,526.8,634.4,526.5,633.4,526.5z M634.1,540.3
					c-2.6,0-4.7-0.7-6.2-2.2c-1.5-1.5-2.2-3.5-2.2-6.2c0-2.7,0.7-4.9,2.1-6.4c1.4-1.5,3.3-2.3,5.7-2.3c2.3,0,4.1,0.7,5.4,2
					c1.3,1.3,1.9,3.1,1.9,5.5v2.2h-10.6c0,1.3,0.4,2.3,1.1,3c0.7,0.7,1.7,1.1,3,1.1c1,0,1.9-0.1,2.8-0.3c0.9-0.2,1.8-0.5,2.8-1v3.5
					c-0.8,0.4-1.6,0.7-2.5,0.9C636.4,540.2,635.3,540.3,634.1,540.3z M655.7,523.6v3.4h-6.8v13h-4.5v-16.4H655.7z M663,523.6v6.5
					c0,0.7-0.1,2.4-0.3,5l7.6-11.5h5.4V540h-4.3v-6.5c0-1.2,0.1-2.8,0.3-4.9l-7.5,11.5h-5.4v-16.4H663z M687,540.3
					c-5.1,0-7.6-2.8-7.6-8.4c0-2.8,0.7-4.9,2.1-6.4c1.4-1.5,3.4-2.2,6-2.2c1.9,0,3.6,0.4,5.1,1.1l-1.3,3.5c-0.7-0.3-1.4-0.5-2-0.7
					c-0.6-0.2-1.2-0.3-1.8-0.3c-2.3,0-3.5,1.7-3.5,5c0,3.2,1.2,4.8,3.5,4.8c0.9,0,1.7-0.1,2.4-0.3c0.7-0.2,1.5-0.6,2.2-1.1v3.8
					c-0.7,0.5-1.5,0.8-2.2,1C689,540.2,688.1,540.3,687,540.3z M709.3,523.6v3.4H704v13h-4.5v-13h-5.4v-3.4H709.3z M721.4,540.3
					c-1.9,0-3.4-0.7-4.5-2.1h-0.2c0.2,1.4,0.2,2.2,0.2,2.4v6.6h-4.5v-23.6h3.6l0.6,2.1h0.2c1-1.6,2.6-2.4,4.6-2.4
					c1.9,0,3.4,0.7,4.5,2.2c1.1,1.5,1.6,3.6,1.6,6.2c0,1.7-0.3,3.3-0.8,4.6c-0.5,1.3-1.2,2.3-2.2,2.9
					C723.8,539.9,722.7,540.3,721.4,540.3z M720.1,526.9c-1.1,0-1.9,0.3-2.4,1c-0.5,0.7-0.8,1.8-0.8,3.4v0.5c0,1.8,0.3,3,0.8,3.8
					c0.5,0.8,1.4,1.1,2.5,1.1c2,0,3-1.7,3-5c0-1.6-0.2-2.8-0.7-3.6C721.9,527.3,721.1,526.9,720.1,526.9z M735.7,523.6v6.5
					c0,0.7-0.1,2.4-0.3,5l7.6-11.5h5.4V540H744v-6.5c0-1.2,0.1-2.8,0.3-4.9l-7.5,11.5h-5.4v-16.4H735.7z M762,540.3
					c-1.9,0-3.4-0.7-4.5-2.1h-0.2c0.2,1.4,0.2,2.2,0.2,2.4v6.6H753v-23.6h3.6l0.6,2.1h0.2c1-1.6,2.6-2.4,4.6-2.4
					c1.9,0,3.4,0.7,4.5,2.2c1.1,1.5,1.6,3.6,1.6,6.2c0,1.7-0.3,3.3-0.8,4.6c-0.5,1.3-1.2,2.3-2.2,2.9
					C764.4,539.9,763.3,540.3,762,540.3z M760.7,526.9c-1.1,0-1.9,0.3-2.4,1c-0.5,0.7-0.8,1.8-0.8,3.4v0.5c0,1.8,0.3,3,0.8,3.8
					c0.5,0.8,1.4,1.1,2.5,1.1c2,0,3-1.7,3-5c0-1.6-0.2-2.8-0.7-3.6C762.5,527.3,761.7,526.9,760.7,526.9z M769.6,523.6h4.9l3.1,9.2
					c0.3,0.8,0.4,1.7,0.5,2.8h0.1c0.1-1,0.3-2,0.6-2.8l3-9.2h4.8l-6.9,18.5c-0.6,1.7-1.5,3-2.7,3.8c-1.2,0.8-2.5,1.3-4.1,1.3
					c-0.8,0-1.5-0.1-2.3-0.2v-3.5c0.5,0.1,1.1,0.2,1.8,0.2c0.8,0,1.5-0.2,2.1-0.7c0.6-0.5,1.1-1.2,1.4-2.2l0.3-0.8L769.6,523.6z
					 M793.4,523.6v6.5c0,0.7-0.1,2.4-0.3,5l7.6-11.5h5.4V540h-4.3v-6.5c0-1.2,0.1-2.8,0.3-4.9l-7.5,11.5h-5.4v-16.4H793.4z
					 M804.7,516.6c-0.2,1.8-0.9,3.2-2.1,4c-1.2,0.8-2.9,1.2-5.2,1.2c-2.3,0-4-0.4-5.1-1.2c-1.1-0.8-1.7-2.1-1.9-4h4
					c0.1,1,0.3,1.7,0.7,2.1c0.4,0.4,1.2,0.6,2.3,0.6c1,0,1.7-0.2,2.2-0.7c0.5-0.4,0.8-1.1,0.9-2.1H804.7z M822.4,523.6v6
					c0,1.4,0.7,2.1,2,2.1c0.9,0,1.7-0.1,2.4-0.3c0.7-0.2,1.5-0.4,2.2-0.8v-7.1h4.5V540H829v-6.5c-1,0.5-2,0.9-2.9,1.2
					c-0.9,0.2-1.7,0.3-2.6,0.3c-1.8,0-3.2-0.5-4.1-1.4c-1-0.9-1.5-2.2-1.5-3.9v-6.1H822.4z M845,526.5c-0.9,0-1.7,0.3-2.2,0.9
					c-0.5,0.6-0.8,1.4-0.9,2.5h6.3c0-1.1-0.3-2-0.9-2.5C846.6,526.8,845.9,526.5,845,526.5z M845.6,540.3c-2.6,0-4.7-0.7-6.2-2.2
					c-1.5-1.5-2.2-3.5-2.2-6.2c0-2.7,0.7-4.9,2-6.4c1.4-1.5,3.3-2.3,5.7-2.3c2.3,0,4.1,0.7,5.4,2c1.3,1.3,1.9,3.1,1.9,5.5v2.2h-10.6
					c0,1.3,0.4,2.3,1.1,3s1.7,1.1,3,1.1c1,0,1.9-0.1,2.8-0.3c0.9-0.2,1.8-0.5,2.8-1v3.5c-0.8,0.4-1.6,0.7-2.5,0.9
					C847.9,540.2,846.9,540.3,845.6,540.3z M866.6,523.6h4.9l-6.5,7.9l7.1,8.5h-5.1l-6.7-8.3v8.3h-4.5v-16.4h4.5v8L866.6,523.6z"/>
				<path class="st8" d="M1026.3,540h-4.5v-17.6h-7.9V540h-4.5v-21.4h17V540z M1034.9,531.8c0,1.6,0.3,2.8,0.8,3.7
					c0.5,0.8,1.4,1.2,2.6,1.2c1.2,0,2-0.4,2.6-1.2c0.5-0.8,0.8-2.1,0.8-3.7c0-1.6-0.3-2.8-0.8-3.6c-0.5-0.8-1.4-1.2-2.6-1.2
					c-1.2,0-2.1,0.4-2.6,1.2C1035.2,528.9,1034.9,530.1,1034.9,531.8z M1046.2,531.8c0,2.7-0.7,4.8-2.1,6.3
					c-1.4,1.5-3.4,2.3-5.9,2.3c-1.6,0-3-0.3-4.2-1c-1.2-0.7-2.1-1.7-2.8-3c-0.6-1.3-1-2.8-1-4.5c0-2.7,0.7-4.8,2.1-6.2
					c1.4-1.5,3.4-2.2,5.9-2.2c1.6,0,3,0.3,4.2,1c1.2,0.7,2.1,1.7,2.8,2.9C1045.9,528.5,1046.2,530,1046.2,531.8z M1064.6,540h-4.5
					v-13h-4.1c-0.3,3.7-0.7,6.4-1.1,8.2c-0.4,1.8-1,3.1-1.8,3.9c-0.7,0.8-1.7,1.2-2.9,1.2c-1,0-1.9-0.2-2.5-0.5v-3.6
					c0.5,0.2,1,0.3,1.4,0.3c0.6,0,1-0.4,1.4-1.2c0.4-0.8,0.7-2.1,1-4c0.3-1.9,0.6-4.4,0.8-7.7h12.4V540z M1066.9,523.6h4.9l3.1,9.2
					c0.3,0.8,0.4,1.7,0.5,2.8h0.1c0.1-1,0.3-2,0.6-2.8l3-9.2h4.8l-6.9,18.5c-0.6,1.7-1.5,3-2.7,3.8c-1.2,0.8-2.5,1.3-4.1,1.3
					c-0.8,0-1.5-0.1-2.3-0.2v-3.5c0.5,0.1,1.1,0.2,1.8,0.2c0.8,0,1.5-0.2,2.1-0.7c0.6-0.5,1.1-1.2,1.4-2.2l0.3-0.8L1066.9,523.6z
					 M1090.3,523.6v6c0,1.4,0.7,2.1,2,2.1c0.9,0,1.7-0.1,2.4-0.3c0.7-0.2,1.5-0.4,2.2-0.8v-7.1h4.5V540h-4.5v-6.5
					c-1,0.5-2,0.9-2.9,1.2c-0.9,0.2-1.8,0.3-2.6,0.3c-1.8,0-3.2-0.5-4.2-1.4c-1-0.9-1.5-2.2-1.5-3.9v-6.1H1090.3z M1110.4,523.6v6.5
					c0,0.7-0.1,2.4-0.3,5l7.6-11.5h5.4V540h-4.3v-6.5c0-1.2,0.1-2.8,0.3-4.9l-7.5,11.5h-5.4v-16.4H1110.4z M1156.1,540h-4.2v-12.9
					l-0.2,0.9c-0.5,2.1-1,3.6-1.4,4.7l-2.9,7.3h-3.2l-2.9-7.4c-0.4-1.1-0.9-2.6-1.3-4.5l-0.3-1V540h-4.2v-16.4h6.2l2.8,7
					c0.3,0.8,0.6,1.6,0.8,2.6c0.3,1,0.4,1.8,0.5,2.5c0.3-1.5,0.6-2.5,0.7-3.1c0.2-0.6,0.4-1.2,0.6-1.8c0.2-0.5,1.2-2.9,2.9-7.2h6.1
					V540z M1171.2,540l-0.9-2.2h-0.1c-0.8,0.9-1.5,1.6-2.3,2c-0.8,0.4-1.8,0.5-3.1,0.5c-1.6,0-2.8-0.4-3.7-1.3
					c-0.9-0.9-1.4-2.2-1.4-3.8c0-1.7,0.6-3,1.8-3.8c1.2-0.8,3-1.3,5.5-1.4l2.8-0.1v-0.7c0-1.7-0.8-2.5-2.6-2.5
					c-1.3,0-2.8,0.4-4.6,1.2l-1.5-3c1.9-1,4-1.5,6.3-1.5c2.2,0,3.9,0.5,5.1,1.4c1.2,1,1.8,2.4,1.8,4.4V540H1171.2z M1169.9,532.4
					l-1.7,0.1c-1.3,0-2.3,0.3-2.9,0.7c-0.6,0.4-0.9,1.1-0.9,2c0,1.3,0.7,1.9,2.2,1.9c1,0,1.9-0.3,2.5-0.9c0.6-0.6,0.9-1.4,0.9-2.4
					V532.4z M1185.6,540.3c-5.1,0-7.6-2.8-7.6-8.4c0-2.8,0.7-4.9,2.1-6.4c1.4-1.5,3.4-2.2,6-2.2c1.9,0,3.6,0.4,5.1,1.1l-1.3,3.5
					c-0.7-0.3-1.3-0.5-2-0.7c-0.6-0.2-1.2-0.3-1.8-0.3c-2.3,0-3.5,1.7-3.5,5c0,3.2,1.2,4.8,3.5,4.8c0.8,0,1.7-0.1,2.4-0.3
					c0.7-0.2,1.5-0.6,2.2-1.1v3.8c-0.7,0.5-1.5,0.8-2.2,1C1187.6,540.2,1186.7,540.3,1185.6,540.3z M1205.1,523.6h4.9l-6.5,7.9
					l7.1,8.5h-5.1l-6.7-8.3v8.3h-4.5v-16.4h4.5v8L1205.1,523.6z M1210.6,523.6h4.9l3.1,9.2c0.3,0.8,0.5,1.7,0.5,2.8h0.1
					c0.1-1,0.3-2,0.6-2.8l3-9.2h4.8l-6.9,18.5c-0.6,1.7-1.6,3-2.7,3.8c-1.2,0.8-2.5,1.3-4.1,1.3c-0.8,0-1.5-0.1-2.3-0.2v-3.5
					c0.5,0.1,1.1,0.2,1.8,0.2c0.8,0,1.5-0.2,2.1-0.7c0.6-0.5,1.1-1.2,1.4-2.2l0.3-0.8L1210.6,523.6z M1248.1,536.7V527h-3.3
					c-0.2,1.8-0.6,3.5-1,5.2c-0.4,1.6-1,3.2-1.8,4.6H1248.1z M1254.9,545.9h-4V540h-11v5.9h-4v-9.1h1.4c0.9-1.5,1.7-3.3,2.4-5.5
					c0.6-2.2,1.1-4.8,1.3-7.6h11.6v13.1h2.4V545.9z M1272.4,540h-4.5v-13h-4.1c-0.3,3.7-0.7,6.4-1.1,8.2c-0.4,1.8-1.1,3.1-1.8,3.9
					c-0.7,0.8-1.7,1.2-2.9,1.2c-1,0-1.9-0.2-2.5-0.5v-3.6c0.5,0.2,1,0.3,1.4,0.3c0.6,0,1-0.4,1.4-1.2c0.4-0.8,0.7-2.1,1-4
					c0.3-1.9,0.6-4.4,0.8-7.7h12.4V540z M1279.6,540h-4.8l4.4-6.5c-1.1-0.4-1.9-1.1-2.4-1.9c-0.5-0.8-0.8-1.8-0.8-2.9
					c0-1.6,0.6-2.8,1.8-3.7c1.2-0.9,2.8-1.3,4.9-1.3h7.6V540h-4.5v-6.1h-2.5L1279.6,540z M1280.3,528.7c0,0.7,0.3,1.2,0.8,1.6
					c0.5,0.4,1.2,0.6,2.1,0.6h2.5v-4.1h-3.1c-0.7,0-1.3,0.2-1.7,0.5C1280.6,527.6,1280.3,528.1,1280.3,528.7z M1309.3,540.3
					c-5.1,0-7.6-2.8-7.6-8.4c0-2.8,0.7-4.9,2.1-6.4c1.4-1.5,3.4-2.2,6-2.2c1.9,0,3.6,0.4,5.1,1.1l-1.3,3.5c-0.7-0.3-1.3-0.5-2-0.7
					c-0.6-0.2-1.2-0.3-1.8-0.3c-2.3,0-3.5,1.7-3.5,5c0,3.2,1.2,4.8,3.5,4.8c0.8,0,1.7-0.1,2.4-0.3c0.7-0.2,1.5-0.6,2.2-1.1v3.8
					c-0.7,0.5-1.5,0.8-2.2,1C1311.4,540.2,1310.4,540.3,1309.3,540.3z M1322.6,523.6v6.3h6.2v-6.3h4.5V540h-4.5v-6.8h-6.2v6.8h-4.5
					v-16.4H1322.6z M1348.4,540l-0.9-2.2h-0.1c-0.8,0.9-1.5,1.6-2.3,2c-0.8,0.4-1.8,0.5-3.1,0.5c-1.6,0-2.8-0.4-3.7-1.3
					c-0.9-0.9-1.3-2.2-1.3-3.8c0-1.7,0.6-3,1.8-3.8c1.2-0.8,3.1-1.3,5.5-1.4l2.8-0.1v-0.7c0-1.7-0.9-2.5-2.5-2.5
					c-1.3,0-2.8,0.4-4.6,1.2l-1.5-3c1.9-1,4-1.5,6.3-1.5c2.2,0,3.9,0.5,5.1,1.4c1.2,1,1.8,2.4,1.8,4.4V540H1348.4z M1347.1,532.4
					l-1.7,0.1c-1.3,0-2.3,0.3-2.9,0.7c-0.6,0.4-1,1.1-1,2c0,1.3,0.7,1.9,2.2,1.9c1,0,1.9-0.3,2.5-0.9c0.6-0.6,0.9-1.4,0.9-2.4V532.4
					z"/>
				<path class="st8" d="M160.7,606.5v4.5h6v-4.5h1.6v10.7h-1.6v-4.8h-6v4.8h-1.6v-10.7H160.7z M178.4,617.2l-0.3-1.5H178
					c-0.5,0.7-1.1,1.1-1.6,1.4c-0.5,0.2-1.2,0.4-2,0.4c-1.1,0-1.9-0.3-2.5-0.8c-0.6-0.5-0.9-1.3-0.9-2.3c0-2.2,1.7-3.3,5.2-3.4
					l1.8-0.1v-0.7c0-0.8-0.2-1.5-0.5-1.9c-0.4-0.4-0.9-0.6-1.7-0.6c-0.9,0-1.9,0.3-3,0.8l-0.5-1.2c0.5-0.3,1.1-0.5,1.7-0.7
					c0.6-0.2,1.3-0.2,1.9-0.2c1.3,0,2.2,0.3,2.8,0.8c0.6,0.6,0.9,1.5,0.9,2.7v7.3H178.4z M174.7,616c1,0,1.8-0.3,2.4-0.8
					c0.6-0.6,0.9-1.3,0.9-2.3v-1l-1.6,0.1c-1.3,0-2.2,0.2-2.8,0.6c-0.6,0.4-0.9,0.9-0.9,1.7c0,0.6,0.2,1,0.5,1.3
					C173.6,615.9,174.1,616,174.7,616z M192.4,617.4c-1.5,0-2.8-0.5-3.6-1.4c-0.8-1-1.3-2.3-1.3-4.1c0-1.8,0.4-3.2,1.3-4.2
					c0.9-1,2.1-1.5,3.7-1.5c0.5,0,1,0.1,1.5,0.2c0.5,0.1,0.9,0.2,1.2,0.4l-0.5,1.4c-0.4-0.1-0.7-0.3-1.2-0.4
					c-0.4-0.1-0.8-0.1-1.1-0.1c-2.2,0-3.3,1.4-3.3,4.2c0,1.3,0.3,2.3,0.8,3c0.5,0.7,1.3,1.1,2.4,1.1c0.9,0,1.8-0.2,2.7-0.6v1.4
					C194.4,617.2,193.5,617.4,192.4,617.4z M196,606.5h1.7l2.3,6.1c0.5,1.4,0.8,2.4,1,3h0.1c0.1-0.3,0.3-0.9,0.5-1.7
					c0.3-0.8,1.2-3.3,2.7-7.4h1.7l-4.6,12.2c-0.5,1.2-1,2.1-1.6,2.6c-0.6,0.5-1.4,0.8-2.2,0.8c-0.5,0-1-0.1-1.5-0.2v-1.3
					c0.4,0.1,0.8,0.1,1.2,0.1c1.1,0,1.9-0.6,2.4-1.9l0.6-1.5L196,606.5z M213.3,615.6l0.3-0.9l0.4-1.2l2.9-7.1h2.1v10.7h-1.4v-8.8
					l-0.2,0.6l-0.6,1.5l-2.8,6.8h-1.4l-2.8-6.8c-0.3-0.9-0.6-1.6-0.7-2v8.8h-1.4v-10.7h2l2.8,6.8C212.8,614,213.1,614.8,213.3,615.6
					z M228,615.6l0.3-0.9l0.4-1.2l2.9-7.1h2.1v10.7h-1.4v-8.8l-0.2,0.6l-0.6,1.5l-2.8,6.8h-1.4l-2.8-6.8c-0.3-0.9-0.6-1.6-0.7-2v8.8
					h-1.4v-10.7h2l2.8,6.8C227.5,614,227.8,614.8,228,615.6z M235.4,606.5h1.7l2.3,6.1c0.5,1.4,0.8,2.4,1,3h0.1
					c0.1-0.3,0.3-0.9,0.5-1.7c0.3-0.8,1.2-3.3,2.7-7.4h1.7l-4.6,12.2c-0.5,1.2-1,2.1-1.6,2.6c-0.6,0.5-1.4,0.8-2.2,0.8
					c-0.5,0-1-0.1-1.5-0.2v-1.3c0.4,0.1,0.8,0.1,1.2,0.1c1.1,0,1.9-0.6,2.4-1.9l0.6-1.5L235.4,606.5z M261.7,611.8
					c0,1.7-0.4,3.1-1.3,4.1c-0.9,1-2.1,1.5-3.6,1.5c-1,0-1.8-0.2-2.5-0.7s-1.3-1.1-1.7-1.9c-0.4-0.8-0.6-1.8-0.6-2.9
					c0-1.7,0.4-3.1,1.3-4.1c0.9-1,2.1-1.5,3.6-1.5c1.5,0,2.7,0.5,3.6,1.5C261.2,608.8,261.7,610.1,261.7,611.8z M253.5,611.8
					c0,1.4,0.3,2.4,0.8,3.1c0.5,0.7,1.4,1.1,2.4,1.1c1.1,0,1.9-0.4,2.4-1.1c0.6-0.7,0.8-1.8,0.8-3.1c0-1.4-0.3-2.4-0.8-3.1
					c-0.5-0.7-1.4-1.1-2.4-1.1c-1.1,0-1.9,0.3-2.4,1C253.8,609.4,253.5,610.4,253.5,611.8z M271.7,607.9h-3.5v9.3h-1.6v-9.3h-3.4
					v-1.4h8.5V607.9z M278.5,611.1c0-2.8,0.5-4.9,1.6-6.3c1.1-1.4,2.7-2.1,4.8-2.1c0.7,0,1.3,0.1,1.7,0.2v1.4
					c-0.5-0.2-1.1-0.2-1.7-0.2c-1.5,0-2.7,0.5-3.5,1.4c-0.8,1-1.2,2.4-1.3,4.5h0.1c0.7-1.1,1.8-1.7,3.4-1.7c1.3,0,2.3,0.4,3,1.2
					c0.7,0.8,1.1,1.8,1.1,3.2c0,1.5-0.4,2.7-1.2,3.5c-0.8,0.8-1.9,1.3-3.3,1.3c-1.5,0-2.6-0.6-3.5-1.7
					C278.9,614.6,278.5,613.1,278.5,611.1z M283.3,616c0.9,0,1.6-0.3,2.1-0.9c0.5-0.6,0.8-1.4,0.8-2.5c0-0.9-0.2-1.7-0.7-2.2
					c-0.5-0.5-1.2-0.8-2.1-0.8c-0.6,0-1.1,0.1-1.6,0.4c-0.5,0.2-0.9,0.6-1.2,1c-0.3,0.4-0.4,0.9-0.4,1.3c0,0.7,0.1,1.3,0.4,1.9
					c0.3,0.6,0.6,1,1.1,1.4C282.1,615.8,282.6,616,283.3,616z M300.7,617.4c-0.7,0-1.3-0.1-1.9-0.4c-0.6-0.3-1.1-0.7-1.4-1.2h-0.1
					c0.1,0.6,0.1,1.2,0.1,1.8v4.4h-1.6v-15.5h1.3l0.2,1.5h0.1c0.4-0.6,0.9-1,1.5-1.3c0.6-0.3,1.2-0.4,1.9-0.4c1.4,0,2.5,0.5,3.3,1.5
					c0.8,1,1.2,2.3,1.2,4.1c0,1.8-0.4,3.1-1.2,4.1C303.1,616.9,302.1,617.4,300.7,617.4z M300.4,607.7c-1.1,0-1.9,0.3-2.4,0.9
					c-0.5,0.6-0.7,1.6-0.8,2.9v0.4c0,1.5,0.3,2.6,0.8,3.2c0.5,0.6,1.3,1,2.4,1c0.9,0,1.6-0.4,2.2-1.1c0.5-0.7,0.8-1.8,0.8-3.1
					c0-1.3-0.3-2.4-0.8-3.1C302.1,608,301.4,607.7,300.4,607.7z M306.2,606.5h1.7l2.3,6.1c0.5,1.4,0.8,2.4,1,3h0.1
					c0.1-0.3,0.3-0.9,0.5-1.7c0.3-0.8,1.2-3.3,2.7-7.4h1.7l-4.6,12.2c-0.5,1.2-1,2.1-1.6,2.6c-0.6,0.5-1.4,0.8-2.2,0.8
					c-0.5,0-1-0.1-1.5-0.2v-1.3c0.4,0.1,0.8,0.1,1.2,0.1c1.1,0,1.9-0.6,2.4-1.9l0.6-1.5L306.2,606.5z M317.5,610.8
					c0-2.3,0.3-4.2,1-5.5c0.7-1.3,1.8-2.1,3.3-2.5c1.9-0.4,3.5-0.7,4.9-1l0.3,1.4c-2.3,0.4-3.9,0.7-4.8,0.9
					c-0.9,0.2-1.7,0.7-2.1,1.5c-0.5,0.8-0.7,1.9-0.8,3.3h0.1c0.4-0.5,0.9-1,1.6-1.3c0.6-0.3,1.3-0.5,2-0.5c1.3,0,2.3,0.4,3.1,1.3
					c0.7,0.9,1.1,2,1.1,3.5c0,1.7-0.4,3-1.3,3.9c-0.9,0.9-2,1.4-3.6,1.4c-1.5,0-2.7-0.6-3.5-1.7S317.5,612.9,317.5,610.8z
					 M322.4,616c2,0,3-1.3,3-3.8c0-2.4-0.9-3.6-2.7-3.6c-0.5,0-1,0.1-1.4,0.3c-0.5,0.2-0.9,0.5-1.3,0.8c-0.4,0.3-0.7,0.7-0.9,1
					c0,1.7,0.3,3,0.8,3.9C320.5,615.6,321.3,616,322.4,616z M337.9,617.2h-1.6v-9.3h-3.2c-0.2,2.3-0.4,4.2-0.7,5.5
					c-0.3,1.4-0.7,2.4-1.2,3c-0.5,0.6-1.1,0.9-1.9,0.9c-0.4,0-0.6,0-0.8-0.1V616c0.1,0,0.3,0.1,0.5,0.1c0.7,0,1.3-0.8,1.8-2.4
					c0.4-1.6,0.8-4,1-7.2h6.3V617.2z M345.9,617.4c-1.6,0-2.8-0.5-3.8-1.4c-0.9-1-1.4-2.3-1.4-4c0-1.7,0.4-3.1,1.3-4.1
					c0.9-1,2-1.5,3.4-1.5c1.3,0,2.4,0.4,3.2,1.3c0.8,0.9,1.2,2,1.2,3.5v1h-7.4c0,1.3,0.3,2.2,0.9,2.9c0.6,0.7,1.5,1,2.5,1
					c1.2,0,2.3-0.2,3.4-0.7v1.4c-0.6,0.2-1.1,0.4-1.6,0.5C347.2,617.3,346.6,617.4,345.9,617.4z M345.5,607.6
					c-0.9,0-1.5,0.3-2.1,0.8c-0.5,0.6-0.8,1.3-0.9,2.3h5.6c0-1-0.2-1.8-0.7-2.3C347,607.9,346.3,607.6,345.5,607.6z M354.1,606.5
					v6.8l-0.1,1.8l0,0.6l5.8-9.1h2v10.7h-1.5v-6.5l0-1.3l0-1.3l-5.8,9.1h-2v-10.7H354.1z M357.2,605.1c-1.2,0-2.1-0.2-2.6-0.7
					c-0.6-0.5-0.9-1.2-0.9-2.3h1.5c0.1,0.7,0.2,1.1,0.5,1.4c0.3,0.3,0.8,0.4,1.6,0.4c0.7,0,1.2-0.1,1.5-0.4c0.3-0.3,0.5-0.7,0.6-1.4
					h1.5c-0.1,1-0.4,1.8-1,2.3C359.3,604.8,358.4,605.1,357.2,605.1z"/>
				
					<linearGradient id="SVGID_11_" gradientUnits="userSpaceOnUse" x1="1437.04" y1="958.108" x2="1398.05" y2="958.108" gradientTransform="matrix(1 0 0 -1 0 938)">
					<stop  offset="0" style="stop-color:#213951"/>
					<stop  offset="1" style="stop-color:#213951;stop-opacity:0"/>
				</linearGradient>
				<rect x="1398.1" y="-977.1" class="st15" width="41.9" height="1914"/>
				
					<linearGradient id="SVGID_12_" gradientUnits="userSpaceOnUse" x1="152.1632" y1="-1126.108" x2="114.5114" y2="-1126.108" gradientTransform="matrix(-1 0 0 1 155.0228 1106)">
					<stop  offset="0" style="stop-color:#213951"/>
					<stop  offset="1" style="stop-color:#213951;stop-opacity:0"/>
				</linearGradient>
				<rect y="-977.1" class="st16" width="40.5" height="1914"/>
			</g>
		</g>
	</g>
</g>
</svg>
