<svg width="1440" height="920" viewBox="0 0 1440 920" fill="none" xmlns="http://www.w3.org/2000/svg">
<rect x="-15" width="1455" height="920" fill="url(#paint0_linear)"/>
<path d="M547.605 45.1035H550.095C552.423 45.1035 554.164 44.6478 555.32 43.7363C556.475 42.8086 557.053 41.4658 557.053 39.708C557.053 37.9339 556.565 36.6237 555.588 35.7773C554.628 34.931 553.114 34.5078 551.047 34.5078H547.605V45.1035ZM564.695 39.4395C564.695 43.2806 563.49 46.2184 561.081 48.2529C558.689 50.2874 555.279 51.3047 550.852 51.3047H547.605V64H540.036V28.3066H551.438C555.767 28.3066 559.055 29.2425 561.301 31.1143C563.563 32.9697 564.695 35.7448 564.695 39.4395ZM591.99 64H571.433V28.3066H591.99V34.5078H579.001V42.3447H591.086V48.5459H579.001V57.75H591.99V64ZM622.019 28.3066V34.5566H607.029V64H599.46V28.3066H622.019ZM627.536 28.3066H634.348V45.543L634.25 50.1572L634.006 55.4062H634.153L650.632 28.3066H659.69V64H652.951V46.8613C652.951 44.5664 653.098 41.1647 653.391 36.6562H653.196L636.643 64H627.536V28.3066ZM683.86 34.0928C681.011 34.0928 678.806 35.167 677.243 37.3154C675.681 39.4476 674.9 42.4261 674.9 46.251C674.9 54.21 677.886 58.1895 683.86 58.1895C686.366 58.1895 689.402 57.5628 692.966 56.3096V62.6572C690.036 63.8779 686.765 64.4883 683.152 64.4883C677.96 64.4883 673.988 62.9176 671.238 59.7764C668.487 56.6188 667.112 52.0941 667.112 46.2021C667.112 42.4912 667.787 39.2441 669.138 36.4609C670.489 33.6615 672.426 31.5212 674.949 30.04C677.488 28.5426 680.458 27.7939 683.86 27.7939C687.326 27.7939 690.81 28.6322 694.309 30.3086L691.867 36.4609C690.533 35.8262 689.19 35.2728 687.839 34.8008C686.488 34.3288 685.162 34.0928 683.86 34.0928ZM714.353 64H706.784V34.6055H697.092V28.3066H724.045V34.6055H714.353V64ZM737.107 45.1035H739.597C741.924 45.1035 743.666 44.6478 744.822 43.7363C745.977 42.8086 746.555 41.4658 746.555 39.708C746.555 37.9339 746.067 36.6237 745.09 35.7773C744.13 34.931 742.616 34.5078 740.549 34.5078H737.107V45.1035ZM754.197 39.4395C754.197 43.2806 752.992 46.2184 750.583 48.2529C748.191 50.2874 744.781 51.3047 740.354 51.3047H737.107V64H729.538V28.3066H740.94C745.269 28.3066 748.557 29.2425 750.803 31.1143C753.065 32.9697 754.197 35.7448 754.197 39.4395ZM782.785 64L780.198 55.5039H767.185L764.597 64H756.443L769.04 28.1602H778.293L790.94 64H782.785ZM778.391 49.1562C775.998 41.4577 774.647 37.1038 774.338 36.0947C774.045 35.0856 773.834 34.2881 773.703 33.7021C773.166 35.7855 771.628 40.9368 769.089 49.1562H778.391ZM823.703 57.9941H829.026V74.4004H821.726V64H795.456V28.3066H803.025V57.7012H816.159V28.3066H823.703V57.9941ZM834.519 28.3066H841.33V45.543L841.233 50.1572L840.989 55.4062H841.135L857.615 28.3066H866.672V64H859.934V46.8613C859.934 44.5664 860.08 41.1647 860.373 36.6562H860.178L843.625 64H834.519V28.3066ZM887.693 50.3037L879.343 64H870.945L881.101 48.3018C879.083 47.488 877.536 46.2347 876.462 44.542C875.388 42.833 874.851 40.8229 874.851 38.5117C874.851 35.2402 876.006 32.7256 878.318 30.9678C880.645 29.1937 883.982 28.3066 888.327 28.3066H899.949V64H892.38V50.3037H887.693ZM892.38 34.5078H888.645C886.692 34.5078 885.178 34.8577 884.104 35.5576C883.03 36.2575 882.492 37.4212 882.492 39.0488C882.492 40.6276 883.013 41.8727 884.055 42.7842C885.097 43.6956 886.692 44.1514 888.84 44.1514H892.38V34.5078Z" fill="white"/>
<rect x="1398.09" width="41.9497" height="792" fill="url(#paint1_linear)"/>
<rect x="40.5557" y="792" width="40.5114" height="792" transform="rotate(-180 40.5557 792)" fill="url(#paint2_linear)"/>
<defs>
<linearGradient id="paint0_linear" x1="712.5" y1="387.952" x2="712.5" y2="731.566" gradientUnits="userSpaceOnUse">
<stop stop-color="#041537"/>
<stop offset="1" stop-color="#041537" stop-opacity="0"/>
</linearGradient>
<linearGradient id="paint1_linear" x1="1437.08" y1="360.191" x2="1398.09" y2="360.191" gradientUnits="userSpaceOnUse">
<stop stop-color="#213951"/>
<stop offset="1" stop-color="#213951" stop-opacity="0"/>
</linearGradient>
<linearGradient id="paint2_linear" x1="78.2075" y1="1152.19" x2="40.5557" y2="1152.19" gradientUnits="userSpaceOnUse">
<stop stop-color="#213951"/>
<stop offset="1" stop-color="#213951" stop-opacity="0"/>
</linearGradient>
</defs>
</svg>
