<?xml version="1.0" encoding="utf-8"?>
<!-- Generator: Adobe Illustrator 24.2.3, SVG Export Plug-In . SVG Version: 6.00 Build 0)  -->
<svg version="1.1" id="Слой_1" xmlns="http://www.w3.org/2000/svg" xmlns:xlink="http://www.w3.org/1999/xlink" x="0px" y="0px"
	 viewBox="0 0 1440 1001.2" style="enable-background:new 0 0 1440 1001.2;" xml:space="preserve">
<style type="text/css">
	.st0{fill-rule:evenodd;clip-rule:evenodd;fill:url(#SVGID_1_);}
	.st1{fill:#FFFFFF;}
	.st2{fill:#203D90;}
	.st3{fill-rule:evenodd;clip-rule:evenodd;fill:#36BDE6;}
	.st4{opacity:0.3;fill:#FFFFFF;enable-background:new    ;}
	.st5{clip-path:url(#SVGID_3_);}
	.st6{fill:none;stroke:#FFFFFF;stroke-width:2;stroke-miterlimit:10;}
	.st7{fill:none;stroke:#FFFFFF;}
	.st8{fill:url(#SVGID_4_);}
	.st9{fill:url(#SVGID_5_);}
</style>
<g id="b1d9ef1c-7311-46ba-8104-37a569059ce3">
	<g id="a7d4165a-fea6-42f9-98b3-0f9335af2565">
		
			<linearGradient id="SVGID_1_" gradientUnits="userSpaceOnUse" x1="12.8528" y1="-409.385" x2="1433.9943" y2="-409.385" gradientTransform="matrix(1 0 0 1 0 910)">
			<stop  offset="0" style="stop-color:#203D90"/>
			<stop  offset="7.000000e-02" style="stop-color:#1E4596"/>
			<stop  offset="0.28" style="stop-color:#135DA9"/>
			<stop  offset="0.45" style="stop-color:#056CB5"/>
			<stop  offset="0.55" style="stop-color:#0172B9"/>
			<stop  offset="0.63" style="stop-color:#056CB5"/>
			<stop  offset="0.76" style="stop-color:#135DA9"/>
			<stop  offset="0.92" style="stop-color:#1E4596"/>
			<stop  offset="1" style="stop-color:#20388C"/>
		</linearGradient>
		<path class="st0" d="M718.1,0C287,0,12.9,61.1,12.9,61.1v879c0,0,284.8,61.1,715.9,61.1s705.3-61.1,705.3-61.1v-879
			C1434,61.1,1149.2,0,718.1,0z"/>
		<path class="st1" d="M526.1,203.9l-11,25.2c-1,2.5-2.3,4.7-3.9,6.8c-1.2,1.4-2.6,2.4-4.3,3.1c-1.9,0.7-4,1-6,1
			c-1.9,0-3.8-0.2-5.7-0.7v-6.5c1.7,0.6,3.5,0.9,5.4,0.9c1.2,0.1,2.3-0.3,3.3-0.9c1-0.9,1.7-2,2.1-3.3l-12.4-25.6h8l8.8,19.9h0.2
			l0.4-1.2l7.4-18.7H526.1z M545.8,209.7c-2.6-0.1-5.1,1.1-6.6,3.2c-1.6,2.1-2.3,5.1-2.3,8.9c0,8,3,11.9,9,11.9
			c3.1-0.1,6.2-0.8,9.1-1.9v6.3c-3.1,1.3-6.5,1.9-9.8,1.8c-5.2,0-9.2-1.6-11.9-4.7s-4.1-7.7-4.1-13.6c-0.1-3.4,0.6-6.7,2-9.7
			c1.2-2.7,3.3-4.9,5.8-6.4c2.7-1.5,5.8-2.3,8.9-2.2c3.6,0,7.2,0.9,10.5,2.5l-2.4,6.1c-1.3-0.6-2.6-1.2-4-1.7
			C548.5,210,547.2,209.7,545.8,209.7L545.8,209.7z M590.8,239.6h-7.5v-29.4h-8.7l-0.4,3.3c-1,8.3-1.9,14.2-2.7,17.5
			c-0.8,3.3-1.9,5.7-3.4,7.1c-1.7,1.4-3.8,2.1-6,2c-1.2,0-2.4-0.2-3.6-0.5v-6.2c0.9,0.3,1.8,0.5,2.7,0.5c0.8,0,1.6-0.5,2-1.2
			c0.7-1.4,1.2-2.9,1.4-4.4c0.5-2.2,1.1-5.7,1.8-10.5c0.7-4.9,1.4-9.5,1.9-13.9h22.5L590.8,239.6z M632.2,221.7
			c0,5.9-1.5,10.4-4.4,13.6c-2.9,3.2-7.1,4.8-12.6,4.8c-5.5,0-9.7-1.6-12.6-4.8c-2.9-3.2-4.4-7.7-4.4-13.7c0-5.9,1.5-10.5,4.4-13.6
			c2.9-3.1,7.1-4.7,12.6-4.7c5.5,0,9.7,1.6,12.6,4.7S632.2,215.8,632.2,221.7L632.2,221.7z M606.2,221.7c0,4,0.8,7,2.3,9
			c1.6,2.1,4.2,3.2,6.8,3c6,0,9.1-4,9.1-12s-3-12-9-12.1c-2.6-0.2-5.2,1-6.8,3.1C606.9,214.7,606.2,217.7,606.2,221.7L606.2,221.7z
			 M639.6,203.9h11.1c5.1,0,8.7,0.7,11,2.2s3.4,3.7,3.5,6.9c0.1,1.9-0.5,3.7-1.5,5.2c-0.9,1.3-2.4,2.2-4,2.5v0.2
			c1.9,0.3,3.7,1.3,4.9,2.8c2.6,4.3,1.8,9.8-2,13.1c-2.4,1.8-5.5,2.7-9.6,2.7h-13.3L639.6,203.9z M647.2,218.1h4.4
			c1.5,0.1,3.1-0.2,4.4-0.9c1-0.7,1.5-1.9,1.4-3.1c0.1-1.2-0.5-2.3-1.5-2.9c-1.5-0.7-3.1-1-4.7-0.9h-4L647.2,218.1z M647.2,224.1
			v9.3h4.9c1.6,0.1,3.3-0.3,4.6-1.2c1-0.9,1.6-2.3,1.5-3.7c0-3-2.1-4.4-6.3-4.4H647.2z M673.2,203.9h6.8v17.2l-0.1,4.6l-0.2,5.2h0.1
			l16.5-27.1h9.1v35.7h-6.7v-17.1c0-2.3,0.1-5.7,0.4-10.2h-0.2l-16.6,27.4h-9.1V203.9z M726.4,225.9l-8.4,13.7h-8.4l10.2-15.7
			c-1.9-0.7-3.5-2-4.6-3.8c-1.1-1.8-1.7-3.9-1.6-6c-0.2-2.9,1.1-5.8,3.5-7.6c2.3-1.8,5.7-2.7,10-2.7h11.6v35.7H731V226L726.4,225.9z
			 M731,210.1h-3.7c-1.6-0.1-3.2,0.3-4.5,1.1c-1.1,0.8-1.7,2.1-1.6,3.5c-0.1,1.4,0.5,2.8,1.6,3.7c1.4,1,3.1,1.5,4.8,1.4h3.5V210.1z
			 M782.4,239.6l-2.6-8.5h-13l-2.6,8.5h-8.2l12.6-35.8h9.3l12.6,35.8H782.4z M778,224.8c-2.4-7.7-3.8-12.1-4.1-13.1
			c-0.3-1-0.5-1.8-0.6-2.4c-0.5,2.1-2.1,7.2-4.6,15.4H778z M824.2,239.6h-8.6l-12.9-18.1v18.1h-7.6v-35.7h7.6v17.3l12.8-17.3h8.1
			l-13,17.1L824.2,239.6z M856.9,233.6h5.3V250H855v-10.4h-26.3v-35.7h7.6v29.4h13.1v-29.4h7.6L856.9,233.6z M867.8,203.9h6.8v17.2
			l-0.1,4.6l-0.2,5.2h0.1l16.5-27.1h9.1v35.7h-6.7v-17.1c0-2.3,0.1-5.7,0.4-10.2h-0.2l-16.6,27.4h-9.1L867.8,203.9z M908.9,203.9
			h6.8v17.2l-0.1,4.6l-0.2,5.2h0.2l16.4-27.1h9v35.7h-6.7v-17.1c0-2.3,0.1-5.7,0.4-10.2h-0.2L918,239.6h-9.1L908.9,203.9z"/>
		<path class="st2" d="M1180.2,514.9c48.2,0,87.2-39,87.2-87.2s-39-87.2-87.2-87.2s-87.2,39-87.2,87.2c0,0,0,0,0,0
			C1093,475.8,1132,514.9,1180.2,514.9C1180.2,514.9,1180.2,514.9,1180.2,514.9z"/>
		<path class="st3" d="M1093,428.1c0-48.2,39.1-87.2,87.3-87.1c4.9,0,9.7,0.4,14.5,1.2c-47.4,8.1-79.3,53.1-71.2,100.6
			c6.2,36.4,34.8,65,71.2,71.2c-47.5,8.1-92.5-23.9-100.6-71.4C1093.4,437.9,1093,433,1093,428.1z"/>
		<path class="st1" d="M1242.8,416.9c-15.4-5.4-31.3-8.3-47.5-10c-9-1-18.1-2-27,0.6c-21,6.2-40.3,16.9-56.8,31.3
			c-3.4,2.9-5.4,7.3-8.1,11l0.5,3.4c3.2,3.8,7.6,4.5,12.2,4.5c3.6,0,7.2-0.2,10.6-0.4c0.2,0.4,0.4,0.6,0.4,0.7
			c3.2,11.1,10.4,18,22,19.4c11,1.3,20.3-4.2,26.1-14.9c3.4-6.3,11-7.6,16.6-3.1c2.6,2.3,5.5,4.3,8.4,6c18.1,10,36.3-4.8,36.4-21.3
			c0-1.1,0.2-2.2,0.2-3.4c1.3-0.2,2.7-0.5,4-0.9c6.7-2,14-3,18.2-9.6l-0.6-4.1C1254.4,421.5,1248.7,418.9,1242.8,416.9z
			 M1230.8,449.9c-0.6,2.5-1.6,5-3,7.2c-4.7,7.2-19.6,8.7-27,4.6c-7-4-10-9-17.5-7.9s-9.9,7.6-15.7,13.5c-2.8,2.8-7.3,4.8-11.9,5.5
			c-5.2,0.8-10.7-0.1-14.1-3c-8.7-7.5-10.3-20.4-3.7-29.8c3.2-4.6,8.2-7.6,13.7-8.4l55.8-8.1c11.4-1.6,22,6.6,23.8,18.4
			C1231.5,444.4,1231.4,447.2,1230.8,449.9L1230.8,449.9z M1236.4,436.6c-2.2-3.4-3.7-6.9-6.1-9.6c-6-7-14-9.7-23.1-8.4
			c-19.4,2.8-38.8,5.5-58.2,8.5c-13.2,2-20.2,10.1-22.6,26.3c-5-0.1-10.2-0.1-15.2-0.7c-3.3-0.4-3.9-2.2-1.8-4.9
			c2-2.8,4.4-5.4,7.1-7.6c15.8-12.7,33.1-22.7,52.7-28.1c6.8-1.9,14.5-1.6,21.7-1c18.9,1.4,37.5,4.7,55.2,11.8
			c3.2,1.3,6,3.5,9.6,5.6C1249.4,434.4,1242.5,434.9,1236.4,436.6L1236.4,436.6z"/>
		<path class="st4" d="M1200.8,461.5c-7-4-10-9-17.6-7.9s-9.9,7.6-15.7,13.5c-5.9,6.1-19.6,8-26,2.5c-4.1-3.5-6.8-8.4-7.5-13.7
			c-1.7-11.9,6.1-22.8,17.5-24.5l55.8-8.1c11.4-1.6,22,6.6,23.8,18.4c0.8,5.3-0.4,10.8-3.4,15.3
			C1223.2,464.2,1208.3,465.7,1200.8,461.5z"/>
		<path class="st1" d="M1173.5,382.7l-2.8,0.1l-1.6,2.4l-0.9-2.7l-2.8-0.7l2.2-1.6l-0.2-2.8l2.3,1.6l2.7-1l-0.8,2.7L1173.5,382.7z"
			/>
		<path class="st1" d="M1221.6,389.6l-3.4,0.1l-1.9,2.9l-1.1-3.3l-3.4-0.9l2.8-2.1l-0.2-3.5l2.8,2l3.2-1.3l-1,3.4L1221.6,389.6z"/>
		<path class="st1" d="M1147.3,381.8h-2.9l-1.6,2.5l-1-2.8l-2.8-0.8l2.3-1.8l-0.2-2.8l2.4,1.6l2.7-1l-0.8,2.8L1147.3,381.8z"/>
		<path class="st1" d="M1170.4,362.4l-2.1-0.8l-1.9,1.3l0.2-2.2l-1.8-1.3l2.2-0.6l0.8-2.1l1.2,1.9l2.2,0.1l-1.4,1.7L1170.4,362.4z"
			/>
		<path class="st1" d="M1216.6,373.3l-2.1-0.8l-1.9,1.3l0.2-2.2l-1.8-1.4l2.2-0.5l0.8-2.2l1.2,2l2.2,0.1l-1.4,1.7L1216.6,373.3z"/>
		<path class="st1" d="M1203.4,375.3c0,8.9-7.2,16.2-16.2,16.2c0,0,0,0,0,0c-1.7,0-3.3-0.3-4.9-0.8c8.5-2.7,13.2-11.9,10.5-20.4
			c-1.6-5-5.5-8.9-10.5-10.5c1.6-0.5,3.3-0.8,4.9-0.8c8.9,0,16.2,7.2,16.2,16.1C1203.4,375.2,1203.4,375.2,1203.4,375.3z"/>
		<path class="st2" d="M720,516c48.1,0,87.1-39,87.1-87.1c0-48.1-39-87.1-87.1-87.1c-48.1,0-87.1,39-87.1,87.1c0,0,0,0,0,0
			C632.9,477,671.9,516,720,516z"/>
		<path class="st3" d="M719.9,516L719.9,516c48.2-0.5,86.8-39.9,86.3-88c-0.5-47.4-38.8-85.7-86.2-86.2h-0.1V516z"/>
		<path class="st1" d="M741.7,381.9c0.1,1.2-0.8,2.2-2,2.3c-1.2,0.1-2.2-0.8-2.3-2c0-0.1,0-0.2,0-0.3h-2.2c0.1,1.2-0.8,2.2-2,2.3
			c-1.2,0.1-2.2-0.8-2.3-2c0-0.1,0-0.2,0-0.3h-2.2c0.1,1.2-0.8,2.2-2,2.3c-1.2,0.1-2.2-0.8-2.3-2c0-0.1,0-0.2,0-0.3h-2.2
			c0.1,1.2-0.8,2.2-2,2.3c-1.2,0.1-2.2-0.8-2.3-2c0-0.1,0-0.2,0-0.3h-2.2c0,1.2-1,2.2-2.2,2.2c-1.2,0-2.2-1-2.2-2.2h-2.2
			c0.1,1.2-0.8,2.2-2,2.3c-1.2,0.1-2.2-0.8-2.3-2c0-0.1,0-0.2,0-0.3h-2.2c0.1,1.2-0.8,2.2-2,2.3c-1.2,0.1-2.2-0.8-2.3-2
			c0-0.1,0-0.2,0-0.3h-1.1v91.7h45.8v-91.7H741.7z M736.6,457.4h-33.1c-0.4,0-0.7-0.3-0.7-0.7c0-0.4,0.3-0.7,0.6-0.7
			c0,0,0.1,0,0.1,0h33.1c0.4,0,0.8,0.3,0.8,0.8C737.3,457,737,457.4,736.6,457.4C736.6,457.4,736.6,457.4,736.6,457.4L736.6,457.4z
			 M736.6,453.3h-33.1c-0.4,0-0.7-0.3-0.7-0.8c0-0.4,0.3-0.7,0.7-0.7h33.1c0.4,0,0.7,0.3,0.7,0.7c0,0,0,0,0,0
			C737.3,452.9,737,453.3,736.6,453.3C736.6,453.3,736.6,453.3,736.6,453.3L736.6,453.3z M706,419.9l0.6-1l1.4,1l-0.2-1.7h1.2
			l-0.2,1.7l1.4-1l0.6,1l-1.6,0.7l1.6,0.7l-0.6,1l-1.4-1l0.2,1.7h-1.2l0.2-1.7l-1.4,1l-0.6-1l1.6-0.7L706,419.9z M712.2,419.9l0.6-1
			l1.4,1l-0.2-1.7h1.2l-0.2,1.7l1.4-1l0.6,1l-1.6,0.7l1.6,0.7l-0.6,1l-1.4-1.1l0.2,1.7H714l0.2-1.7l-1.4,1l-0.6-1l1.6-0.7
			L712.2,419.9z M718.5,419.9l0.6-1l1.4,1l-0.2-1.7h1.2l-0.2,1.7l1.4-1l0.6,1l-1.6,0.7l1.6,0.7l-0.6,1l-1.4-1l0.2,1.7h-1.2l0.2-1.7
			l-1.4,1l-0.6-1l1.6-0.7L718.5,419.9z M729.1,419.9l0.6-1l1.4,1l-0.2-1.7h1.2l-0.2,1.7l1.4-1l0.6,1l-1.6,0.7l1.6,0.7l-0.6,1l-1.4-1
			l0.2,1.7H731l0.2-1.7l-1.4,1l-0.6-1l1.6-0.7L729.1,419.9z M736.5,403.7h-33c-0.4,0-0.7-0.3-0.7-0.8c0-0.4,0.3-0.7,0.6-0.7
			c0,0,0.1,0,0.1,0h33.1c0.4,0,0.8,0.3,0.8,0.8c0,0.4-0.3,0.7-0.7,0.8C736.6,403.7,736.6,403.7,736.5,403.7L736.5,403.7z
			 M736.5,399.6h-33c-0.4,0-0.7-0.4-0.7-0.8c0-0.3,0.3-0.6,0.7-0.7h33.1c0.4,0,0.8,0.3,0.8,0.8c0,0.4-0.3,0.7-0.7,0.7
			C736.6,399.6,736.6,399.6,736.5,399.6L736.5,399.6z"/>
		<path class="st1" d="M743.6,359h-47.2c-5.9,0-10.8,4.8-10.8,10.8l0,0v116c0,5.9,4.8,10.8,10.8,10.8l0,0h47.2
			c5.9,0,10.7-4.8,10.8-10.8V369.8C754.4,363.8,749.5,359,743.6,359C743.6,359,743.6,359,743.6,359z M716.3,364h7.7
			c0.5,0,0.8,0.4,0.8,0.8s-0.4,0.8-0.8,0.8l0,0h-7.7c-0.5,0-0.8-0.4-0.8-0.8S715.9,364,716.3,364L716.3,364z M751.5,485h-63.1V370.4
			h63L751.5,485L751.5,485z"/>
		<path class="st2" d="M260.5,517.5c48.1,0,87.1-39,87.1-87.1s-39-87.1-87.1-87.1c-48.1,0-87.1,39-87.1,87.1c0,0,0,0,0,0
			C173.4,478.5,212.4,517.5,260.5,517.5z"/>
		<path class="st3" d="M245.8,516.2c47.4,8.1,92.4-23.9,100.5-71.3c8.1-47.4-23.9-92.4-71.3-100.5c-9.7-1.6-19.5-1.6-29.2,0
			c47.4,8.1,79.3,53.2,71.2,100.6C310.7,481.5,282.2,510,245.8,516.2z"/>
		<path class="st1" d="M239.7,407.1c-0.1,0.3-0.5,0.5-0.9,0.6c-0.5,0-1-0.3-1.3-0.8c-0.2-0.5-0.2-1-0.8-1.4
			c-0.4-0.2-0.9-0.3-1.4-0.3c-1-0.1-1.9,0.6-2,1.6c0,0,0,0.1,0,0.1c-0.1,1.5,0.7,2.9,1.9,4.7c1.6,2.4,3.1,4.9,1.4,6.7
			c-1,1-2.4,1.6-3.8,1.5c-1.8,0.1-3.4-0.7-4.5-2.1c-0.4-0.4-0.4-1.1,0-1.6s1.1-0.4,1.6,0c0,0,0.1,0.1,0.1,0.1
			c0.7,0.7,0.9,2.1,2.6,2.5c0.6,0.1,1.1-0.1,1.5-0.5c1.2-1.3-0.4-3.7-1.8-5.4c-0.2-0.2-0.4-0.5-0.5-0.7c-1.1-1.3-1.5-3.1-1-4.8
			c0.6-1.4,1.8-2.4,3.3-2.7c0.5-0.1,1.1-0.2,1.6-0.1c1,0,2,0.3,2.9,0.8C239.4,405.5,239.8,406.3,239.7,407.1z M228.9,404.5
			c-0.1-0.1-0.3-0.1-0.4-0.1c-0.6-0.1-1.2,0.1-1.7,0.5c-0.2,0.6-0.4,1.2-0.6,1.9c-0.2,0.7-0.4,1.5-0.7,2.1c-2.8,6.5-6,9.2-7,9.4
			c-0.5,0.1-0.8-0.1-0.8-0.4c-0.2-0.5,0.2-1.6,0.7-2.8c0.1-0.2,0.1-0.4,0.2-0.6c0.8-1.9,1.5-4,2-6c0.4-1.9,0.3-3-0.4-3.5
			c-0.4-0.3-0.9-0.5-1.3-0.5c-0.3,0-0.6,0.1-0.9,0.2v0.1c0.2,0.7,0.4,2.1-1.2,6.4c-0.1,0.2-0.2,0.4-0.2,0.6l-0.2,0.6
			c-0.2,0.5-0.4,1.3-0.7,2c-0.3,0.9-0.5,1.9-0.5,2.8v0.7c0,0.1,0.1,0.2,0.1,0.4c0.2,0.8,1,1.3,1.8,1.2c0.4,0.1,0.8,0,1.3-0.1
			c1.4-0.5,2.7-1.4,3.7-2.5c0.8-0.9,1.6-1.9,2.3-3c0.2-0.5,0.5-1,0.8-1.4l-0.2,1.4c-1.2,6-2.8,10.1-8.1,12.2
			c-0.4,0.2-0.9,0.3-1.3,0.4c-0.2,0-0.5,0.1-0.7,0.2c0.3,0.4,0.8,0.7,1.3,0.8c0.2,0.1,0.5,0.1,0.7,0.1c2.1-0.1,4.2-1,5.8-2.4
			c3.5-3.4,4.2-7.2,4.9-10.6c0.1-0.7,0.3-1.4,0.4-2.1C228.4,409.9,228.7,407.2,228.9,404.5L228.9,404.5z M179.9,418.6
			c-1.4-1.3-1.4-3.4-0.8-5.7c1.3-4.4,2.8-8.7,4.6-12.9c0.6-1.6,1.2-2.9,1.2-3.1c-0.3-0.2-0.6-0.3-0.9-0.3c-0.6,0-1.1,0.2-1.6,0.5
			c-0.7,0.9-1.3,1.9-1.6,3c-0.9,2.2-2.3,6.3-3.4,9.5c-0.1,0.5-0.5,1.6-0.5,1.6c-0.7,2.1-1.9,5.5-3.4,6.2c-0.2,0.1-0.4,0.2-0.7,0.1
			c-0.4,0-0.6,0-0.8-0.3c-0.5-0.8-0.5-1.8-0.1-2.7c0.1-0.4,0.1-0.8,0.2-1.1l0.1-0.2c0.5-1.9,1.2-3.7,1.6-4.9c0.1-0.4,0.3-0.8,0.4-1
			h-0.2c-1,0-1.9,0.6-2.4,1.5c-0.8,1.8-2.9,6.2-4.9,8.2c-0.6,0.7-1.4,1.2-2.3,1.3c-0.3,0-0.7-0.2-0.8-0.5c-0.3-0.6-0.4-1.3-0.1-1.9
			c1.4-4.7,5-8.5,9.7-10c1.2-0.4,1.6-0.2,1.8-0.5s-0.1-0.6-0.7-0.9c-0.6-0.3-1.2-0.4-1.9-0.4c-1.6,0.1-3.1,0.5-4.4,1.3
			c-2.2,1.2-5.9,4.5-6.9,8.7c-0.4,1.9-0.4,3.4,0.4,4.4c0.6,0.6,1.4,1,2.3,1c0.6,0,1.2-0.1,1.7-0.4c1.5-0.9,2.9-2.1,3.9-3.5l0.3-0.5
			c-0.2,0.8-0.2,1.7,0,2.5c0.3,1,1.2,1.7,2.2,1.8h0.1c1.8-0.1,2.9-1.4,4.3-3.7c0-0.1,0.1-0.2,0.1-0.2s0.1,3.4,2.8,4.4
			c1.3,0.4,2.1,0.1,2.3-0.3C181.5,419.2,180.5,419.2,179.9,418.6L179.9,418.6z M213.3,418.6c-0.7-0.7-1.2-1.6-0.7-3.8
			c0.1-0.8,0.7-2.7,0.9-3.4c0.4-1.3,0.8-2.3,1-3.1c0.1-0.5,0.3-0.8,0.4-1h-0.2c-1,0-1.9,0.6-2.4,1.5c-0.8,1.8-2.9,6.2-4.9,8.2
			c-0.6,0.7-1.4,1.2-2.3,1.3c-0.3,0-0.6-0.1-0.8-0.4c-0.4-0.6-0.5-1.3-0.2-2c1.1-3.8,3.6-7,7.1-8.9h0.1c0.1-0.1,0.2-0.1,0.3-0.1
			l0.1-0.1c0.1-0.1,0.1-0.1,0.2-0.1s0.1-0.1,0.1-0.1s0.1-0.1,0.2-0.1s0.1-0.1,0.2-0.1s0.1,0,0.1-0.1c0.4-0.2,0.8-0.4,1.3-0.5
			c1.2-0.4,1.6-0.2,1.8-0.5s-0.1-0.6-0.7-0.9c-0.6-0.3-1.2-0.4-1.9-0.4c-1.6,0.1-3.1,0.5-4.4,1.3c-0.6,0.4-1.2,0.8-1.8,1.2
			c-0.6,0.5-1.2,1.1-1.8,1.6c-0.6,0.3-1.3,0.6-2,0.6h-0.3c-0.6-0.1-1-0.7-1-1.3v-0.1c0.1-0.2,0.1-0.4,0.2-0.5c0.3-0.8,0.8-2,0.5-2.6
			c-0.2-0.2-0.6-0.3-0.9-0.3c-0.1,0-0.3,0-0.4,0.1c-0.8,0.1-1.5,0.6-1.9,1.3c-0.4,0.7-0.5,1.6-0.3,2.5v0.1c-0.2,1.3-0.7,2.5-1.3,3.7
			l-0.3,0.6l-0.4,0.9c-0.8,1.9-2.8,5.3-4.2,5.4c-0.2,0-0.4-0.1-0.4-0.1c-1.5-0.7-0.1-4.1,1.6-8.4l0.2-0.6c0.1-0.5,0.3-0.8,0.4-1.1
			c0.2-0.5,0.2-1.1,0.1-1.6c-0.1-0.1-0.2-0.2-0.4-0.3c-0.2-0.1-0.3-0.1-0.5-0.1c-0.5,0-0.8,0.1-1.4,1.4v0.1
			c-0.1,0.4-0.3,0.8-0.5,1.1c-1.9,3.9-3.8,6.7-5.6,8.2c-0.3,0.3-0.6,0.5-1,0.5H185c-0.2,0-0.5-0.2-0.6-0.4c-0.4-0.6,0.2-1.6,1.8-5.2
			c0.2-0.5,0.4-0.9,0.6-1.4l0.2-0.5c0.8-1.7,1.5-4.1,0-5c-0.3-0.2-0.7-0.3-1.1-0.3c-0.4,0-0.8,0.1-1.1,0.4l-0.1,0.1
			c0.1,2.1-0.8,4-1.6,6c-0.2,0.5-0.4,1-0.7,1.5s-0.4,0.9-0.5,1.3c-0.3,0.8-0.5,1.6-0.6,2.4v0.7c0,0.3,0.1,0.6,0.2,0.9
			c0.3,0.8,0.9,1.4,1.7,1.6h0.4c1,0,2-0.4,2.8-1.1l0.1-0.1c1-1,2.1-2.3,2.7-3l0.7-1c-0.1,0.4-0.2,0.7-0.3,1.1
			c-0.3,1.1-0.2,2.2,0.4,3.2c0.6,0.7,1.4,1.1,2.3,1c0.7,0,1.4-0.1,2.1-0.4c1.4-0.5,3-2.2,4.4-4.5c0.8-1.4,1.4-2.9,1.9-4.4
			c0-0.1,0.1-0.1,0.1-0.1h0.1c0.3,0.1,0.6,0.2,0.9,0.1c0.7,0,1.4-0.2,2-0.6c-1,1.3-1.8,2.8-2.2,4.5c-0.4,1.9-0.4,3.4,0.4,4.4
			c0.5,0.7,1.3,1,2.2,1c0.6,0,1.3-0.1,1.9-0.4c1.5-0.9,2.8-2.1,3.8-3.5c0.1-0.2,0.2-0.4,0.2-0.4s-0.4,3.6,2.3,4.6
			c0.8,0.4,1.7,0.3,2.3-0.3C214.8,419.2,213.8,419.2,213.3,418.6L213.3,418.6z"/>
		<path class="st1" d="M248.4,486.2h-95c-4.5,0-8.2-3.7-8.2-8.2v-95c0-4.5,3.7-8.2,8.2-8.2h95c4.5,0,8.2,3.7,8.2,8.2v95
			C256.6,482.5,253,486.2,248.4,486.2z M153.4,376.5c-3.5,0-6.4,2.8-6.4,6.4l0,0v95c0,3.5,2.8,6.4,6.3,6.4h0h95
			c3.5,0,6.3-2.8,6.3-6.3c0,0,0,0,0,0V383c0-3.5-2.8-6.3-6.3-6.3h-95V376.5z"/>
		<path class="st1" d="M200.9,394.6c-21.9,0-39.4-5.7-52.4-17l1.3-1.4c22,19.2,57.6,21.6,105.8,7.4l0.5,1.8
			C235.4,391.5,217,394.6,200.9,394.6z"/>
		<path class="st1" d="M193.4,395c-27.4,0-43.3-7.2-47.5-10.5l1.2-1.5c4.8,3.7,25.1,12.7,61.4,9.4l0.1,1.9
			C203.2,394.8,198.1,395,193.4,395z"/>
		<path class="st1" d="M255.2,442.3c-6.7-5.2-28.2-14.3-61.4-11.3l-0.1-1.9c33.8-3.1,55.8,6.4,62.7,11.7L255.2,442.3z"/>
		<path class="st1" d="M200.9,478.7c-0.3,0-0.6,0-0.9-0.1c-3.8-0.4-6.8-3.4-7.3-7.2c-0.1-1.5,0.1-3,0.7-4.3c0.7-1.5,1.1-3.1,1.1-4.7
			v-6.6c0-1.7-0.4-3.4-1.1-5c-0.5-1-0.7-2.2-0.7-3.3c0-2.4,1-4.6,2.8-6.2c1.8-1.6,4.1-2.3,6.5-2.1c3.8,0.4,6.8,3.4,7.3,7.2
			c0.1,1.5-0.1,3-0.7,4.3c-0.7,1.5-1.1,3.1-1.1,4.7v6.6c0,1.7,0.4,3.4,1.1,5c0.5,1,0.7,2.2,0.7,3.3
			C209.2,475,205.5,478.7,200.9,478.7L200.9,478.7z M200.9,441.1c-3.5,0-6.4,2.9-6.4,6.4c0,0.9,0.2,1.7,0.5,2.5
			c0.8,1.8,1.3,3.8,1.3,5.8v6.6c-0.1,1.9-0.5,3.8-1.3,5.5c-0.4,1.1-0.6,2.2-0.5,3.4c0.4,3,2.7,5.3,5.7,5.6c1.8,0.2,3.6-0.3,5-1.6
			c1.4-1.2,2.1-2.9,2.2-4.8c0-0.9-0.2-1.7-0.5-2.5c-0.8-1.8-1.3-3.8-1.3-5.8v-6.6c0.1-1.9,0.5-3.8,1.3-5.5c0.4-1.1,0.6-2.2,0.5-3.4
			c-0.4-3-2.7-5.3-5.7-5.6C201.4,441.2,201.2,441.1,200.9,441.1L200.9,441.1z"/>
		<path class="st1" d="M200.7,473c0-0.2,0.2-0.5,0.4-0.5c0.2,0,0.4,0.2,0.5,0.5c0,0.3-0.2,0.5-0.4,0.5
			C200.9,473.5,200.7,473.3,200.7,473z M198.5,472.8c-0.2-0.1-0.3-0.4-0.2-0.7c0,0,0,0,0,0c0.1-0.2,0.4-0.4,0.6-0.2
			c0.2,0.1,0.4,0.4,0.2,0.6c0,0,0,0.1-0.1,0.1c-0.1,0.1-0.2,0.2-0.4,0.2C198.7,472.9,198.6,472.8,198.5,472.8L198.5,472.8z
			 M203,472.5c-0.1-0.2-0.1-0.5,0.1-0.7c0.2-0.1,0.5-0.1,0.7,0.1c0.1,0.2,0.1,0.5-0.1,0.7c-0.1,0.1-0.1,0.1-0.3,0.1
			C203.2,472.6,203.1,472.6,203,472.5L203,472.5z M196.7,470.8c-0.1-0.2,0-0.5,0.2-0.6c0,0,0,0,0.1,0c0.2-0.1,0.5,0,0.6,0.2
			c0.1,0.2,0,0.5-0.2,0.6c-0.1,0.1-0.1,0.1-0.2,0.1C197,471,196.8,471,196.7,470.8L196.7,470.8z M204.7,470.8
			c-0.2-0.1-0.4-0.4-0.3-0.6c0.1-0.2,0.4-0.4,0.6-0.3c0.2,0.1,0.4,0.4,0.3,0.6c-0.1,0.2-0.2,0.3-0.4,0.3H204.7z M196.7,468.7
			c-0.2-0.1-0.4-0.3-0.4-0.5s0.3-0.4,0.5-0.4s0.4,0.3,0.4,0.5S197,468.7,196.7,468.7L196.7,468.7z M204.5,468
			c-0.1-0.3,0.1-0.5,0.4-0.6c0,0,0,0,0,0c0.3-0.1,0.5,0.1,0.6,0.3c0,0,0,0,0,0c0.1,0.3-0.1,0.5-0.4,0.6c0,0,0,0,0,0h-0.1
			C204.8,468.4,204.6,468.2,204.5,468L204.5,468z M197.4,466.3c-0.2-0.1-0.4-0.3-0.3-0.6c0,0,0,0,0,0c0.1-0.2,0.4-0.3,0.6-0.2
			c0.2,0.1,0.3,0.4,0.2,0.6c-0.1,0.2-0.2,0.3-0.4,0.3C197.5,466.3,197.5,466.3,197.4,466.3L197.4,466.3z M203.8,465.7
			c-0.1-0.3,0.1-0.5,0.4-0.6c0,0,0,0,0,0c0.3-0.1,0.5,0.1,0.6,0.4c0,0,0,0,0,0c0.1,0.2-0.1,0.4-0.3,0.5c0,0-0.1,0-0.1,0h-0.1
			C204.1,466,203.9,465.9,203.8,465.7L203.8,465.7z M197.3,463.5c0-0.2,0.2-0.5,0.4-0.5c0.2,0,0.5,0.2,0.5,0.4c0,0,0,0,0,0
			c0,0.2-0.2,0.4-0.4,0.4c0,0,0,0,0,0C197.5,463.9,197.3,463.8,197.3,463.5L197.3,463.5z M203.7,463.1c0-0.2,0.2-0.4,0.4-0.4
			c0,0,0,0,0,0c0.2,0,0.4,0.2,0.4,0.4c0,0,0,0,0,0c0,0.2-0.1,0.5-0.4,0.5c-0.2,0-0.5-0.1-0.5-0.4
			C203.7,463.2,203.7,463.2,203.7,463.1z M197.3,461c0-0.2,0.2-0.4,0.4-0.5c0,0,0,0,0,0c0.2,0,0.4,0.2,0.4,0.5
			c0,0.2-0.2,0.4-0.4,0.5c0,0,0,0,0,0C197.5,461.4,197.3,461.2,197.3,461z M203.7,460.6c0-0.2,0.2-0.4,0.4-0.4c0,0,0,0,0,0
			c0.2,0,0.4,0.2,0.4,0.4c0,0,0,0,0,0c0,0.2-0.1,0.5-0.4,0.5c-0.2,0-0.5-0.1-0.5-0.4C203.7,460.7,203.7,460.7,203.7,460.6z
			 M197.3,458.5c0-0.2,0.2-0.5,0.4-0.5c0.2,0,0.5,0.2,0.5,0.4c0,0,0,0,0,0c0,0.2-0.2,0.4-0.5,0.4C197.5,459,197.3,458.8,197.3,458.5
			z M203.7,458.2c0-0.2,0.1-0.5,0.4-0.5c0.2,0,0.5,0.1,0.5,0.4c0,0,0,0.1,0,0.1c0,0.2-0.2,0.4-0.4,0.4
			C203.9,458.7,203.7,458.5,203.7,458.2L203.7,458.2z M197.3,456.1c0-0.2,0.2-0.4,0.4-0.5c0,0,0,0,0,0c0.2,0,0.5,0.1,0.5,0.4
			c0,0.2-0.1,0.5-0.4,0.5c0,0-0.1,0-0.1,0C197.5,456.6,197.3,456.4,197.3,456.1L197.3,456.1z M203.7,455.8c0-0.2,0.1-0.5,0.4-0.5
			c0.2,0,0.5,0.1,0.5,0.4c0,0,0,0.1,0,0.1c0,0.2-0.2,0.4-0.4,0.4c0,0,0,0-0.1,0C203.9,456.2,203.7,456,203.7,455.8L203.7,455.8z
			 M197.3,453.7c0-0.2,0.2-0.5,0.4-0.5c0.3,0,0.5,0.2,0.5,0.5c0,0.3-0.2,0.5-0.4,0.5C197.6,454.2,197.4,454,197.3,453.7L197.3,453.7
			z M204.1,453.8c-0.3,0-0.4-0.2-0.4-0.5c0-0.3,0.3-0.5,0.5-0.5c0.3,0,0.5,0.3,0.5,0.5C204.6,453.6,204.4,453.8,204.1,453.8
			L204.1,453.8L204.1,453.8z M196.8,451.5c-0.1-0.2,0-0.5,0.2-0.6c0,0,0,0,0.1,0c0.2-0.1,0.5,0,0.6,0.3c0,0,0,0,0,0
			c0.1,0.2-0.1,0.5-0.3,0.6c-0.1,0-0.1,0-0.1,0.1C197.1,451.8,196.9,451.7,196.8,451.5L196.8,451.5z M204.5,451.4
			c-0.2-0.1-0.3-0.3-0.3-0.5c0,0,0,0,0-0.1v-0.1c0.1-0.2,0.3-0.3,0.5-0.3c0,0,0.1,0,0.1,0c0.2,0.1,0.3,0.3,0.3,0.5c0,0,0,0,0,0.1
			c-0.1,0.2-0.3,0.3-0.4,0.3C204.7,451.5,204.6,451.5,204.5,451.4L204.5,451.4z M196.7,449.4c-0.3,0-0.4-0.2-0.4-0.5
			c0-0.3,0.3-0.5,0.5-0.5c0.3,0,0.4,0.2,0.4,0.5C197.2,449.2,197,449.5,196.7,449.4L196.7,449.4z M204.6,448.6
			c-0.1-0.2,0.1-0.5,0.3-0.5c0,0,0,0,0,0c0.2,0,0.5,0.1,0.5,0.4c0,0.2-0.1,0.5-0.4,0.5l0,0h-0.1C204.9,449,204.7,448.9,204.6,448.6
			L204.6,448.6z M197.3,447c-0.2-0.2-0.2-0.5,0-0.7c0.2-0.2,0.5-0.2,0.7,0c0.2,0.2,0.2,0.5,0,0.7c-0.1,0.1-0.2,0.2-0.4,0.2
			C197.5,447.2,197.4,447.2,197.3,447L197.3,447z M203.7,446.7c-0.2-0.2-0.2-0.5,0-0.7c0.2-0.2,0.5-0.2,0.7,0c0.2,0.2,0.2,0.5,0,0.7
			c-0.1,0.1-0.2,0.1-0.3,0.1C203.9,446.8,203.8,446.8,203.7,446.7L203.7,446.7z M199.1,445.4c-0.1-0.2,0.1-0.5,0.3-0.6
			c0.2-0.1,0.5,0.1,0.6,0.3c0.1,0.2-0.1,0.5-0.3,0.6h-0.1C199.4,445.7,199.2,445.6,199.1,445.4L199.1,445.4z M201.8,445.6
			c-0.3-0.1-0.4-0.3-0.4-0.6s0.3-0.4,0.6-0.4c0.3,0.1,0.4,0.3,0.4,0.6c0,0,0,0,0,0c-0.1,0.2-0.2,0.4-0.4,0.4
			C201.9,445.7,201.9,445.7,201.8,445.6L201.8,445.6z"/>
		<path class="st1" d="M200.9,481.8c-0.4,0-0.7,0-1.1-0.1c-4.5-0.5-8.1-4.1-8.7-8.6c-0.1-0.7-0.1-1.3,0-2v-1.6
			c0-1.1-0.4-2.8-3.5-4.5c-1.1-0.5-1.9-1.7-1.8-2.9v-9.6c-0.1-1.2,0.6-2.4,1.8-2.9c3.4-1.9,3.5-3.6,3.5-4.2v-0.4
			c0.2-2.6,1.5-5.1,3.6-6.7c4.2-3.5,10.4-2.9,13.8,1.3c1.2,1.5,2,3.2,2.2,5.1v0.3c0,1.2,0.4,2.8,3.5,4.5c1.1,0.5,1.8,1.7,1.8,2.9
			v9.6c0.1,1.3-0.6,2.4-1.8,2.9c-3.2,1.7-3.5,3.4-3.5,4.5l0.1,2.3c0,2.8-1.2,5.4-3.3,7.3C205.8,480.9,203.4,481.8,200.9,481.8z
			 M201,438.1c-1.8,0-3.6,0.6-5,1.8c-1.6,1.3-2.7,3.3-2.8,5.4v0.3c-0.1,2.4-1.6,4.3-4.5,5.8c-0.7,0.5-0.8,0.7-0.8,1.3v9.6
			c0,0.6,0.1,0.8,0.8,1.3c3,1.6,4.5,3.6,4.5,6.1v1.6c-0.1,0.6-0.1,1.1,0,1.7c0.5,3.6,3.3,6.4,6.9,6.9c4.3,0.5,8.2-2.5,8.7-6.8
			c0-0.3,0.1-0.7,0.1-1l-0.1-2.3c0-2.5,1.5-4.5,4.5-6.1c0.7-0.5,0.8-0.7,0.8-1.3v-9.6c0-0.6-0.1-0.8-0.8-1.3c-3-1.6-4.5-3.7-4.5-6.1
			v-0.1c-0.5-3.6-3.3-6.4-6.9-6.9C201.6,438.2,201.3,438.1,201,438.1L201,438.1z"/>
		<path class="st1" d="M255.8,448h-45.6c-0.5,0.1-1.1-0.2-1.2-0.7s0.2-1.1,0.7-1.2c0.2,0,0.3,0,0.5,0h45.6c0.5,0.1,0.9,0.7,0.7,1.2
			C256.4,447.6,256.1,447.9,255.8,448z"/>
		<path class="st1" d="M191.6,448h-45.5c-0.5,0.1-1.1-0.2-1.2-0.7s0.2-1.1,0.7-1.2c0.2,0,0.3,0,0.5,0h45.5c0.5-0.1,1.1,0.2,1.2,0.7
			s-0.2,1.1-0.7,1.2C191.9,448,191.7,448,191.6,448z"/>
		<path class="st1" d="M255.7,469.5h-45.9c-0.5,0.1-1.1-0.2-1.2-0.7s0.2-1.1,0.7-1.2c0.2,0,0.3,0,0.5,0h45.9
			c0.5,0.1,0.9,0.7,0.7,1.2C256.3,469.2,256,469.5,255.7,469.5z"/>
		<path class="st1" d="M192,467.7h-45.9v1.9H192V467.7z"/>
		<path class="st1" d="M253.3,447.8c-14.2-12.4-34.8-18.1-59.5-16.8l-1.7,0.1c-12.8,0.7-27.3,1.5-45.2,10.8l-0.9-1.6
			c18.2-9.5,32.9-10.3,45.9-11l1.7-0.1c25.2-1.4,46.3,4.6,60.8,17.2L253.3,447.8z"/>
		<path class="st1" d="M153.1,438.3h-1.9v8.9h1.9V438.3z"/>
		<path class="st1" d="M160.7,435.4h-1.9v11.7h1.9V435.4z"/>
		<path class="st1" d="M168.1,433.2h-1.9v13.9h1.9V433.2z"/>
		<path class="st1" d="M175.7,431.7h-1.9v15.4h1.9V431.7z"/>
		<path class="st1" d="M183.2,430.8h-1.9v16.4h1.9V430.8z"/>
		<path class="st1" d="M190.7,430.2h-1.9v16.9h1.9V430.2z"/>
		<path class="st1" d="M198.2,429.8h-1.9v8.1h1.9V429.8z"/>
		<path class="st1" d="M205.8,430h-1.9v8h1.9V430z"/>
		<path class="st1" d="M213.2,430.4h-1.9v16.6h1.9V430.4z"/>
		<path class="st1" d="M220.8,431.5h-1.9v15.7h1.9V431.5z"/>
		<path class="st1" d="M228.3,433.3h-1.9v13.8h1.9V433.3z"/>
		<path class="st1" d="M235.8,435.7h-1.9v11.3h1.9V435.7z"/>
		<path class="st1" d="M243.3,439.2h-1.9v7.9h1.9V439.2z"/>
		<path class="st1" d="M250.8,443.8H249v3.3h1.9L250.8,443.8z"/>
		<g>
			<defs>
				<rect id="SVGID_2_" x="265.2" y="375.4" width="110.6" height="110.6"/>
			</defs>
			<clipPath id="SVGID_3_">
				<use xlink:href="#SVGID_2_"  style="overflow:visible;"/>
			</clipPath>
			<g class="st5">
				<path class="st1" d="M375,477.6c-0.6,0-1.2-0.2-1.7-0.6c-0.4-0.3-0.7-0.6-1.1-0.8c-2.9-1.6-4.9-5.9-4.9-13
					c0-1.4,0.1-2.9,0.2-4.3c-0.6,1.3-1.2,2.6-1.9,3.9c-3.5,6.2-7.4,8.9-10.7,8.8c-0.5,0-1,0.1-1.4,0.2c-0.6,0.1-1.3,0-1.8-0.3
					c-0.5-0.4-0.9-0.9-1.1-1.4c-0.1-0.4-0.3-0.9-0.6-1.3c-1.7-2.9-1.3-7.6,2.2-13.8c0.7-1.3,1.5-2.5,2.4-3.6
					c-1.2,0.9-2.4,1.7-3.6,2.4c-6.2,3.5-10.9,3.9-13.8,2.2c-0.4-0.2-0.8-0.4-1.3-0.6c-0.6-0.2-1.1-0.6-1.4-1.1
					c-0.3-0.6-0.4-1.2-0.3-1.8c0.1-0.5,0.2-1,0.2-1.4c0-3.3,2.6-7.2,8.8-10.7c1.3-0.7,2.6-1.4,3.8-1.9c-1.4,0.2-2.9,0.2-4.3,0.2
					c-7.1,0-11.4-2-13-4.9c-0.2-0.4-0.5-0.8-0.8-1.1c-0.4-0.5-0.6-1.1-0.6-1.7c0-0.6,0.2-1.2,0.6-1.7c0.3-0.4,0.6-0.7,0.8-1.1
					c1.6-2.9,5.9-4.9,13-4.9c1.4,0,2.9,0.1,4.3,0.2c-1.3-0.6-2.6-1.2-3.8-1.9c-6.2-3.5-8.9-7.5-8.8-10.7c0-0.5-0.1-1-0.2-1.4
					c-0.1-0.6,0-1.3,0.3-1.8c0.3-0.5,0.8-0.9,1.4-1.1c0.4-0.1,0.9-0.3,1.3-0.6c2.9-1.7,7.6-1.3,13.8,2.2c1.3,0.7,2.5,1.5,3.6,2.4
					c-0.9-1.1-1.7-2.4-2.4-3.6c-3.5-6.2-3.9-10.9-2.2-13.8c0.2-0.4,0.4-0.8,0.6-1.3c0.2-0.6,0.6-1.1,1.1-1.4
					c0.6-0.3,1.2-0.4,1.8-0.3c0.5,0.1,1,0.1,1.4,0.2c3.3,0,7.2,2.6,10.7,8.8c0.7,1.3,1.4,2.6,1.9,3.8c-0.2-1.4-0.2-2.9-0.2-4.3
					c0-7.1,2-11.4,4.9-13c0.4-0.2,0.8-0.5,1.1-0.8c0.5-0.4,1.1-0.6,1.7-0.6v31.3c-1.1,0-2.1,0.1-3.2,0.3c-0.6-0.8-1.1-1.6-1.5-2.5
					c0.1,1,0,2-0.1,3c-2.1,0.7-4,1.8-5.6,3.2c-0.9-0.4-1.7-0.8-2.6-1.4c0.6,0.8,1,1.7,1.4,2.6c-1.5,1.6-2.6,3.5-3.2,5.6
					c-1,0.2-2,0.2-3,0.1c0.9,0.4,1.7,0.9,2.5,1.5c-0.2,1.1-0.3,2.1-0.3,3.2c0,1.1,0.1,2.1,0.3,3.2c-0.7,0.6-1.6,1.1-2.5,1.5
					c1-0.1,2,0,3,0.1c0.7,2.1,1.8,4,3.2,5.6c-0.4,0.9-0.8,1.7-1.4,2.6c0.8-0.6,1.7-1,2.6-1.4c1.6,1.5,3.5,2.6,5.6,3.2
					c0.2,1,0.2,2,0.1,3c0.4-0.9,0.9-1.7,1.5-2.5c1.1,0.2,2.1,0.3,3.2,0.3V477.6z"/>
				<path class="st6" d="M368.9,376.2h-96.7c-3.4,0-6.1,2.8-6.2,6.2V479c0,3.4,2.8,6.2,6.2,6.2c0,0,0,0,0,0h96.7
					c3.4,0,6.2-2.8,6.2-6.2l0,0v-96.7C375,378.9,372.3,376.2,368.9,376.2C368.9,376.2,368.9,376.2,368.9,376.2z"/>
				<path class="st7" d="M353.7,437.9l2.1,25.9h-89.3v-25.9H353.7z"/>
				<path class="st1" d="M321.2,420.3c-0.9,0.1-1.8-0.3-2.4-1c-0.9-1.4-0.5-3.2,0-5.4c0.2-0.5,0.3-1.1,0.4-1.7
					c1-4.9,0.5-6.7,0.2-7.3c0.7,0.1,1.2,0.5,1.6,1c0.6,1,0.7,2.2,0.3,4.2c-0.2,0.6-0.6,2.8-1,4.1c-0.3,0.9-0.5,1.9-0.7,2.9
					C319.2,418.5,319.9,419.8,321.2,420.3z"/>
				<path class="st1" d="M317.7,419.8c-0.8,0-1.6-0.3-2.1-0.9c-0.3-0.4-0.4-0.9-0.5-1.4l-0.1-0.6l-0.2,0.5c-0.6,1.4-2,2.2-3.4,2.2
					h-0.3c-0.8,0-1.6-0.4-2.1-1.1c-0.6-0.9-0.8-2-0.5-3c0.5-2.2,2.1-4,3.8-4.1h0.4c0.7,0.1,1.2,0.7,1.2,1.4c0.1,1.4-1.2,3.7-3.4,5
					l-0.2,0.1l0.1,0.2c0.3,0.5,0.9,0.9,1.5,0.8c1.5-0.1,2.8-1.1,3.2-2.6c0.1-1.5,0.4-2.9,0.7-4.3c0.1-0.2,0.1-0.4,0.2-0.6
					c1-4.3,0.6-6.2,0.3-6.9c0.5,0,1.1,0.2,1.4,0.6c0.6,0.7,0.6,1.8,0.3,3.8c0,0-0.6,2.8-1,4.5c-0.3,0.9-0.6,1.9-0.6,2.9
					C316.2,418.5,317.2,419.5,317.7,419.8z M312.1,412c-1,0-1.7,2-1.9,3.2c-0.2,0.7-0.2,1.3-0.1,2l0.1,0.3l0.2-0.2
					c1.4-1.4,2.4-3.8,2.2-4.8c0-0.2-0.1-0.4-0.3-0.4C312.2,412,312.2,412,312.1,412L312.1,412z"/>
				<path class="st1" d="M284,420.9c-0.6,0-1.2-0.2-1.6-0.6c-1.9-1.7-1.4-5.7-0.4-8.5c0.4-1.1,0.8-2.2,1.2-3c0.9-2.2,1.4-3.4,1-4
					c-0.1-0.2-0.3-0.3-0.5-0.3h-0.2c-0.2,0-0.4,0.1-0.6,0.2c-1.8,1-4.9,7.3-5.4,9.4c-0.5,1.9-0.6,3.9-0.3,5.8h-0.1
					c-0.5,0-0.9-0.1-1.3-0.4c-1.3-1.1-0.6-4.2-0.2-6.2c0.1-0.2,0.1-0.5,0.2-0.7l0-0.6c1-5,1-7.3-0.3-7.6c-0.2,0-0.3-0.1-0.5-0.1
					c-1.1,0-2.1,1.1-2.6,2.2c-0.5,0.9-0.6,1.9-0.5,2.9c-0.1,0.1-0.2,0.1-0.2,0.1c-0.1,0-0.1,0-0.2-0.1s-0.8-0.7,0.2-2.8
					c0.6-1.5,1.9-2.5,3.5-2.7h0.1c0.5,0,1,0.3,1.4,0.6c1.2,1.5,1.7,3.5,1.3,5.4c0,0.2-0.1,0.4,0,0.4s0.1,0,0.2-0.2
					c0.6-1.4,2.6-5.4,4.8-6.2c0.2-0.1,0.5-0.1,0.7-0.2c0.2,0,0.4,0,0.6,0.1c0.5,0.1,1,0.5,1.2,1c0.7,1.5-0.1,3.5-1.3,6.2
					c-0.1,0.2-0.2,0.5-0.3,0.7c-1.4,3.3-1.6,6.6-0.8,7.9c0.3,0.4,0.8,0.8,1.3,1c-0.1,0.1-0.3,0.1-0.4,0.1L284,420.9z"/>
				<path class="st1" d="M327.8,419.6c-0.3,0-0.6-0.1-0.8-0.2c-0.5-0.3-0.9-0.9-1-1.5l-0.1-0.4l-0.2,0.4c-0.3,0.8-1,1.4-1.8,1.7
					c-0.2,0.1-0.4,0.1-0.6,0.1c-0.6,0-1.1-0.2-1.4-0.7c-0.5-1-0.6-2.1-0.2-3.1c0.6-2.6,2.2-3.9,3.6-4c0.5,0,1,0.1,1.4,0.5l0.1,0.1
					l0.1-0.1c0.4-0.2,0.9-0.4,1.4-0.4c0.2,0,0.2,0.1,0.2,0.1v0.1c-0.6,1.4-0.9,2.8-1.1,4.2c-0.2,1.5,0.1,2.3,0.5,2.6
					c0.1,0.1,0.3,0.1,0.5,0.2h0.1c0.2,0,0.5-0.1,0.7-0.2c0.2-0.1,0.2-0.2,0.4-0.2C329.1,419.1,328.5,419.5,327.8,419.6z
					 M325.6,412.4c-0.7,0-1.9,1-2.3,3c-0.3,1.6-0.3,2.6,0,3.1c0.1,0.2,0.4,0.3,0.6,0.3c0.1,0,0.3,0,0.4-0.1c1.1-0.6,1.4-2,1.5-3
					v-0.1c0-0.2,0.1-0.3,0.1-0.5c0.2-0.7,0.3-1.3,0.4-2c0.1-0.4-0.2-0.7-0.5-0.8C325.7,412.4,325.6,412.4,325.6,412.4L325.6,412.4z"
					/>
				<path class="st1" d="M304.2,420.9c-1.4-0.1-2.5-1.2-2.6-2.6l-0.1-0.5l-0.2,0.4c-0.2,0.9-1,1.5-1.9,1.5h-0.1
					c-0.5,0-1.1-0.3-1.4-0.6c-0.1-0.1-0.1-0.2-0.2-0.2l-0.1-0.2l-0.2,0.2c-0.6,0.6-1.3,1-2.2,1.1c-0.2,0-0.4,0-0.6-0.1
					c-0.5-0.1-1-0.5-1.2-1l-0.1-0.2l-0.2,0.2c-0.4,0.7-1.1,1.1-1.8,1.1c-0.3,0-0.6-0.1-0.9-0.2c-0.5-0.3-0.9-0.9-1-1.5l-0.1-0.4
					l-0.2,0.4c-0.3,0.8-1,1.4-1.8,1.7c-0.2,0.1-0.4,0.1-0.6,0.1c-0.6,0-1.1-0.2-1.4-0.7c-0.5-1-0.6-2.1-0.2-3.1
					c0.6-2.6,2.2-3.9,3.6-4c0.5,0,1,0.1,1.4,0.5l0.1,0.1l0.1-0.1c0.4-0.2,0.9-0.4,1.4-0.4c0.2,0,0.2,0.1,0.2,0.1v0.2
					c-0.6,1.4-0.9,2.8-1.1,4.2c-0.2,1.5,0.1,2.3,0.5,2.6c0.1,0.1,0.3,0.1,0.5,0.2c0.5,0,1.2-0.6,1.5-1.6c0-0.1,0-0.2,0.1-0.2v-0.2
					c0.1-2.1,0.5-4.2,1.1-6.2l0.1-0.2c-1.2-0.2-2.4-0.1-3.4,0.5c0.2-0.5,0.5-0.9,1-1.1c0.6-0.4,1.3-0.6,2-0.6h0.8v-0.1
					c0.2-0.6,0.4-1.3,0.4-2c0.3,0,0.6,0.2,0.8,0.4c0.2,0.4,0.3,0.8,0.2,1.2c-0.1,0.1-0.1,0.3-0.1,0.4l-0.1,0.2
					c0.6,0.1,1.2,0.1,1.8,0c0.6,0,1.2-0.3,1.8-0.6c-0.2,0.5-0.5,0.9-1,1.2c-0.6,0.3-1.4,0.6-2.1,0.6h-1v0.2c-1.3,4.6-1.4,7.3-0.5,8
					c0.2,0.1,0.4,0.2,0.6,0.2c0.4,0,0.7-0.1,1-0.3c0.3-0.1,0.5-0.4,0.6-0.6l0.1-0.1v-0.1c-0.4-0.6-0.5-1.3-0.3-2
					c0.1-1.1,0.4-2.3,0.7-3.4c0.2-0.4,1.4-0.7,1.8-0.8c0.1,0,0.2,0,0.2,0.1v0.2l-0.1,0.2c-0.4,1.1-0.8,2.2-1,3.4
					c-0.3,0.9-0.2,1.9,0.2,2.8c0.2,0.2,0.4,0.3,0.6,0.2h0.1c0.5-0.1,1.1-0.4,1.6-2.8c0.2-1.1,0.6-2.7,0.8-3.6c0.1-0.4,1-0.6,1.5-0.6
					c0.2,0,0.2,0.1,0.2,0.1v0.1c-0.6,1.4-0.9,2.8-1.1,4.2c-0.3,1.2-0.1,2.5,0.5,3.6c0.3,0.4,0.8,0.7,1.4,0.7h0.2
					C304.8,420.8,304.5,420.9,304.2,420.9z M289.1,412.7c-0.7,0-1.9,1-2.3,3c-0.3,1.6-0.3,2.6,0,3.1c0.1,0.2,0.4,0.3,0.6,0.3
					c0.1,0,0.3,0,0.4-0.1c1.1-0.6,1.4-2,1.5-3V416c0-0.2,0.1-0.3,0.1-0.5c0.2-0.7,0.3-1.3,0.4-2
					C289.8,413.1,289.5,412.7,289.1,412.7C289.1,412.7,289.1,412.7,289.1,412.7z"/>
				<path class="st1" d="M306.4,419.6c-0.2,0-0.4,0-0.6-0.1c-1.4-0.5-1.1-2.3-0.6-4.2l0.1-0.5c0.4-1.9,0.6-3.1,0.2-3.8
					c-0.1-0.2-0.4-0.4-0.6-0.4c0.2-0.1,0.5-0.1,0.7-0.2c0.3,0,0.6,0.1,0.9,0.2c0.2,0.2,0.4,0.4,0.4,1.3v0.6c0,0,1.3-2.8,2.7-3
					c0.6-0.1,1.3,0.3,1.4,1c0,0,0,0,0,0c-0.6-0.1-1.6-0.5-3.4,2.3c-0.1,0.1-0.8,1.1-1.3,4.2v0.1C305.9,418,306,418.8,306.4,419.6
					L306.4,419.6z"/>
				<path class="st1" d="M308.3,403.6c2.2-1,2.2-2.1,2-2.6s-1-1.1-3.2-0.2c-1.3,0.6-2.4,1.4-3.3,2.5c-0.1-0.1-0.2-0.2-0.3-0.3
					c1.2-0.9,2.3-2,3-3.4c1.2-2.2,0.6-3.1,0.2-3.4s-1.5-0.2-2.8,1.9c-0.7,1.3-1.2,2.8-1.3,4.3c-0.2-0.1-0.3-0.1-0.5-0.1
					c0.4-1.2,0.5-2.4,0.3-3.6c-0.3-2.1-1.3-2.4-1.7-2.3s-1.3,0.6-1,2.7c0.2,1.2,0.6,2.4,1.3,3.4l-0.5,0.2c-0.3-0.8-0.7-1.5-1.3-2.2
					c-1.1-1.2-1.9-0.9-2.2-0.6s-0.6,1,0.5,2.2c0.6,0.6,1.3,1.1,2.1,1.4c0,0,0,0.1-0.1,0.1c-0.1,0.1-0.1,0.2-0.2,0.2
					c-0.5-0.4-1.1-0.7-1.8-0.9c-1.2-0.2-1.5,0.4-1.6,0.7s0.1,1,1.3,1.2c0.7,0.1,1.4,0.1,2-0.2c0,0.9,0.5,1.7,1.3,2.2
					c0.8,0.5,1.8,0.4,2.6-0.1c0.1,0.7,0.4,1.3,0.9,1.8c0.8,0.9,1.4,0.6,1.7,0.4s0.6-0.9-0.2-1.8c-0.4-0.5-1-0.8-1.7-1
					c0.1-0.1,0.1-0.2,0.2-0.2s0.1-0.1,0.1-0.2c0.8,0.6,1.7,1,2.7,1.1c1.8,0.3,2.3-0.3,2.4-0.7s-0.2-1.2-1.9-1.6
					c-0.9-0.2-1.9-0.2-2.9,0c0-0.2,0-0.3-0.1-0.5C305.6,404.6,307,404.3,308.3,403.6z"/>
			</g>
		</g>
		<path class="st1" d="M176.9,604.1h-5.1l-7.8-10.9v10.8h-4.5v-21.4h4.5V593l7.7-10.4h4.8l-7.8,10.3L176.9,604.1z M176.9,587.7h4.9
			l3.1,9.2c0.3,0.9,0.5,1.9,0.5,2.8h0.1c0.1-1,0.3-1.9,0.6-2.8l3-9.2h4.8l-6.9,18.5c-0.5,1.5-1.5,2.9-2.7,3.8
			c-1.2,0.9-2.6,1.3-4.1,1.3c-0.8,0-1.5-0.1-2.3-0.2v-3.6c0.6,0.1,1.2,0.2,1.8,0.2c0.8,0,1.5-0.2,2.1-0.7c0.7-0.6,1.1-1.3,1.4-2.2
			l0.3-0.8L176.9,587.7z M211.2,587.7v16.4h-4.5v-13h-5.9v13h-4.5v-16.4H211.2z M220.2,587.7v6.5c0,0.7-0.1,2.3-0.3,5l7.6-11.5h5.4
			v16.4h-4.3v-6.5c0-1.2,0.1-2.8,0.3-4.9l-7.5,11.5h-5.4v-16.4H220.2z M249.8,587.7v6.3h6.2v-6.3h4.5v16.4H256v-6.8h-6.2v6.8h-4.5
			v-16.4H249.8z M268.8,595.9c-0.1,1.3,0.2,2.6,0.8,3.7c0.6,0.9,1.6,1.3,2.6,1.2c1,0.1,2-0.4,2.6-1.2c0.6-1.1,0.9-2.4,0.8-3.7
			c0.1-1.3-0.2-2.5-0.8-3.6c-0.6-0.8-1.6-1.3-2.6-1.2c-1-0.1-2,0.4-2.6,1.2C269,593.3,268.7,594.6,268.8,595.9L268.8,595.9z
			 M280.1,595.9c0.1,2.3-0.6,4.5-2.1,6.3c-1.5,1.6-3.7,2.4-5.9,2.2c-1.5,0-2.9-0.3-4.2-1c-1.2-0.7-2.2-1.7-2.8-3
			c-0.7-1.4-1-2.9-1-4.5c-0.1-2.3,0.6-4.5,2.1-6.2c1.6-1.5,3.7-2.4,5.9-2.2c1.5,0,2.9,0.3,4.2,1c1.2,0.7,2.2,1.7,2.8,3
			C279.8,592.8,280.1,594.3,280.1,595.9L280.1,595.9z M287.7,587.7v6c0,1.4,0.7,2.1,2,2.1c0.8,0,1.6-0.1,2.4-0.3
			c0.8-0.2,1.5-0.5,2.2-0.8v-7.1h4.5v16.4h-4.5v-6.5c-0.9,0.5-1.9,0.9-2.9,1.2c-0.8,0.2-1.7,0.3-2.6,0.3c-1.5,0.1-3-0.4-4.1-1.4
			c-1-1-1.6-2.5-1.5-3.9v-6.1L287.7,587.7z M307.9,587.7v6.3h6.2v-6.3h4.5v16.4h-4.5v-6.8h-6.2v6.8h-4.5v-16.4H307.9z M327.8,594
			h2.1c1.9-0.1,3.9,0.3,5.5,1.2c1.2,0.8,1.9,2.2,1.8,3.6c0.1,1.5-0.6,3-1.8,3.9c-1.6,1-3.5,1.4-5.4,1.3h-6.8v-16.3h4.5L327.8,594z
			 M332.8,598.9c0-0.6-0.3-1.1-0.8-1.4c-0.7-0.3-1.5-0.5-2.3-0.4h-2v3.9h2.1C331.8,601,332.8,600.3,332.8,598.9L332.8,598.9z
			 M344.1,604h-4.5v-16.3h4.5V604z M355.6,590.5c-0.8,0-1.7,0.3-2.2,0.9c-0.6,0.7-0.9,1.6-0.9,2.5h6.3c0-0.9-0.3-1.8-0.9-2.5
			C357.2,590.9,356.4,590.5,355.6,590.5L355.6,590.5z M356.2,604.3c-2.3,0.1-4.5-0.6-6.2-2.2c-1.6-1.7-2.4-3.9-2.2-6.2
			c-0.1-2.3,0.6-4.6,2-6.4c1.5-1.5,3.6-2.4,5.7-2.2c2-0.1,4,0.6,5.4,2c1.4,1.5,2.1,3.5,1.9,5.5v2.2h-10.5c0,1.1,0.4,2.2,1.1,3
			c0.8,0.8,1.9,1.1,3,1.1c0.9,0,1.9-0.1,2.8-0.3c1-0.2,1.9-0.6,2.8-1v3.5c-0.8,0.4-1.6,0.7-2.5,0.9
			C358.4,604.3,357.3,604.4,356.2,604.3L356.2,604.3z M112.8,644.1l-1.6-5.1h-7.8l-1.6,5.1H97l7.6-21.5h5.6l7.6,21.5H112.8z
			 M110.1,635.2c-1.4-4.6-2.2-7.2-2.4-7.8s-0.3-1.1-0.4-1.4c-0.3,1.3-1.2,4.3-2.8,9.3H110.1z M124.5,644.1H120v-22.8h4.5
			L124.5,644.1z M142.7,644.1l-1.3-5.7l-1.7-7.2h-0.1l-3,13h-4.8l-4.7-16.4h4.4l1.9,7.2c0.3,1.3,0.6,3.1,0.9,5.4h0.1
			c0.1-1.2,0.3-2.4,0.5-3.5l0.2-1.2l2-7.9h4.9l1.9,7.9c0,0.2,0.1,0.5,0.2,1s0.2,0.9,0.2,1.3s0.1,0.9,0.2,1.4
			c0.1,0.4,0.1,0.7,0.1,1.1h0.2c0.1-0.7,0.2-1.7,0.5-2.9s0.4-2.1,0.5-2.5l2-7.2h4.4l-4.7,16.4L142.7,644.1z M165.3,644.1l-0.9-2.2
			h-0.1c-0.6,0.8-1.4,1.5-2.3,2c-1,0.4-2,0.6-3.1,0.5c-1.4,0.1-2.7-0.4-3.7-1.3c-1-1-1.4-2.4-1.4-3.8c-0.1-1.5,0.6-3,1.8-3.8
			c1.7-1,3.6-1.4,5.5-1.4l2.8-0.1v-0.7c0.2-1.2-0.7-2.3-1.9-2.5c-0.2,0-0.4,0-0.6,0c-1.6,0.1-3.2,0.5-4.6,1.2l-1.5-3
			c1.9-1,4.1-1.5,6.3-1.5c1.8-0.1,3.6,0.4,5.1,1.4c1.2,1.1,1.9,2.7,1.8,4.4v10.9L165.3,644.1z M164,636.5l-1.7,0.1
			c-1,0-2,0.2-2.9,0.7c-0.7,0.4-1,1.2-0.9,2c0,1.3,0.7,1.9,2.2,1.9c0.9,0,1.8-0.3,2.5-0.9c0.6-0.6,1-1.5,0.9-2.4L164,636.5z
			 M170.7,627.7h4.9l3.1,9.2c0.3,0.9,0.5,1.9,0.5,2.8h0.1c0.1-1,0.3-1.9,0.6-2.8l3-9.2h4.8l-6.9,18.5c-0.5,1.5-1.4,2.8-2.7,3.8
			c-1.2,0.9-2.6,1.3-4.1,1.3c-0.8,0-1.5-0.1-2.3-0.2v-3.5c0.6,0.1,1.2,0.2,1.8,0.2c0.8,0,1.5-0.2,2.1-0.7c0.7-0.6,1.1-1.3,1.4-2.2
			l0.3-0.8L170.7,627.7z M201.6,639.2c0.1,1.5-0.6,2.9-1.8,3.8c-1.6,1-3.4,1.4-5.2,1.3c-1,0-2-0.1-3.1-0.2c-0.8-0.1-1.6-0.4-2.4-0.7
			v-3.7c0.9,0.4,1.8,0.8,2.8,1c0.9,0.2,1.8,0.4,2.8,0.4c1.6,0,2.4-0.5,2.4-1.4c0-0.3-0.1-0.6-0.3-0.8c-0.3-0.3-0.7-0.6-1.1-0.8
			c-0.5-0.3-1.2-0.6-2.1-1c-1-0.4-1.9-0.9-2.8-1.5c-0.5-0.4-1-0.9-1.3-1.5c-0.3-0.7-0.4-1.4-0.4-2.2c-0.1-1.3,0.6-2.6,1.7-3.4
			c1.4-0.9,3.1-1.3,4.8-1.2c2,0,4,0.4,5.8,1.3l-1.4,3.2c-0.8-0.3-1.6-0.6-2.3-0.9c-0.7-0.2-1.4-0.3-2.2-0.3c-1.3,0-2,0.3-2,1.1
			c0,0.4,0.3,0.8,0.6,1c0.9,0.5,1.8,0.9,2.8,1.3c1,0.4,1.9,0.9,2.8,1.5c0.6,0.4,1,0.9,1.3,1.5C201.4,637.8,201.6,638.5,201.6,639.2
			L201.6,639.2z M217.2,627.7v6.5c0,0.7-0.1,2.3-0.3,5l7.6-11.5h5.4v16.4h-4.3v-6.5c0-1.2,0.1-2.8,0.3-4.9l-7.5,11.5h-5.4v-16.4
			H217.2z M249.2,644.1h-4.5v-13h-4.1c-0.2,2.8-0.6,5.5-1.1,8.2c-0.3,1.4-0.9,2.8-1.8,3.9c-0.8,0.8-1.8,1.2-2.9,1.2
			c-0.9,0-1.7-0.1-2.6-0.5v-3.6c0.5,0.2,0.9,0.3,1.4,0.3c0.6,0,1-0.4,1.4-1.2c0.5-1.3,0.8-2.6,1-4c0.3-1.9,0.6-4.5,0.8-7.7h12.3
			L249.2,644.1z M258.2,627.7v6.5c0,0.7-0.1,2.3-0.3,5l7.6-11.5h5.4v16.4h-4.4v-6.5c0-1.2,0.1-2.8,0.3-4.9l-7.5,11.5h-5.4v-16.4
			H258.2z M302.6,644.1h-5.8l-9.3-16.2h-0.1c0.2,2.9,0.3,4.9,0.3,6.1v10.1h-4.1v-21.4h5.7l9.3,16h0.1c-0.1-2.8-0.2-4.7-0.2-5.9
			v-10.1h4.1L302.6,644.1z M318.1,644.1l-0.9-2.2H317c-0.6,0.8-1.4,1.5-2.3,2c-1,0.4-2,0.6-3.1,0.5c-1.4,0.1-2.7-0.4-3.7-1.3
			c-0.9-1-1.4-2.4-1.3-3.8c-0.1-1.5,0.6-3,1.8-3.8c1.7-1,3.6-1.4,5.5-1.4l2.8-0.1v-0.7c0.2-1.2-0.7-2.3-1.9-2.5c-0.2,0-0.4,0-0.6,0
			c-1.6,0.1-3.2,0.5-4.6,1.2l-1.5-3c1.9-1,4.1-1.5,6.3-1.5c1.8-0.1,3.6,0.4,5,1.4c1.2,1.1,1.9,2.7,1.8,4.4v10.9L318.1,644.1z
			 M316.7,636.5l-1.7,0.1c-1,0-2,0.2-2.9,0.7c-0.6,0.5-1,1.2-1,2c0,1.3,0.7,1.9,2.2,1.9c0.9,0,1.8-0.3,2.5-0.9
			c0.6-0.6,1-1.5,0.9-2.4V636.5z M332.7,640.8c1,0,1.9-0.2,2.8-0.5v3.3c-1.3,0.5-2.7,0.8-4.1,0.7c-1.4,0.1-2.9-0.4-3.9-1.3
			c-0.9-1.2-1.3-2.6-1.2-4.1v-7.9h-2.2v-1.9l2.5-1.5l1.3-3.5h2.9v3.5h4.6v3.4h-4.6v7.9c0,0.5,0.1,1,0.5,1.4
			C331.6,640.7,332.1,640.9,332.7,640.8L332.7,640.8z M350.4,644.1l-0.6-2.1h-0.2c-0.5,0.8-1.2,1.4-2,1.8c-0.9,0.4-2,0.6-3,0.6
			c-1.6,0.1-3.2-0.4-4.4-1.5c-1.1-1.2-1.6-2.8-1.5-4.5v-10.7h4.5v9.6c-0.1,0.9,0.2,1.9,0.6,2.7c0.5,0.6,1.2,0.9,2,0.9
			c1.1,0.1,2.1-0.4,2.7-1.2c0.7-1.3,0.9-2.7,0.8-4.2v-7.7h4.5v16.4H350.4z M367.7,627.4c0.5,0,1,0,1.5,0.1l-0.3,4.2
			c-0.4-0.1-0.9-0.2-1.3-0.2c-1.2-0.1-2.4,0.3-3.3,1.1c-0.8,0.8-1.2,1.9-1.2,3.1v8.3h-4.5v-16.4h3.4l0.7,2.8h0.2
			c0.5-0.9,1.2-1.7,2-2.2C365.7,627.7,366.7,627.4,367.7,627.4L367.7,627.4z M379,630.6c-0.8,0-1.7,0.3-2.2,0.9
			c-0.6,0.7-0.9,1.6-0.9,2.5h6.2c0-0.9-0.3-1.8-0.9-2.5C380.6,630.9,379.8,630.6,379,630.6L379,630.6z M379.6,644.4
			c-2.3,0.1-4.5-0.7-6.2-2.2c-1.6-1.7-2.4-3.9-2.2-6.2c-0.1-2.3,0.6-4.6,2-6.4c1.5-1.5,3.6-2.4,5.7-2.2c2-0.1,4,0.6,5.4,2
			c1.4,1.5,2,3.5,1.9,5.5v2.1h-10.6c0,1.1,0.4,2.2,1.1,3c0.8,0.8,1.9,1.1,3,1.1c0.9,0,1.9-0.1,2.8-0.3c0.9-0.2,1.9-0.6,2.8-1v3.5
			c-0.8,0.4-1.6,0.7-2.5,0.9C381.8,644.3,380.7,644.4,379.6,644.4L379.6,644.4z M394.4,644.1h-4.5v-22.8h4.5V644.1z M403.5,644.1
			H399v-22.8h4.5L403.5,644.1z M418.6,644.1l-0.9-2.2h-0.1c-0.6,0.8-1.4,1.5-2.3,2c-1,0.4-2,0.6-3.1,0.5c-1.4,0.1-2.7-0.4-3.7-1.3
			c-1-1-1.4-2.4-1.4-3.8c-0.1-1.5,0.6-3,1.8-3.8c1.7-1,3.6-1.4,5.5-1.4l2.8-0.1v-0.7c0.2-1.2-0.7-2.3-1.9-2.5c-0.2,0-0.4,0-0.6,0
			c-1.6,0.1-3.2,0.5-4.6,1.2l-1.5-3c1.9-1,4.1-1.5,6.3-1.5c1.8-0.1,3.5,0.4,5,1.4c1.2,1.1,1.9,2.7,1.8,4.4v10.9L418.6,644.1z
			 M417.3,636.5l-1.7,0.1c-1,0-2,0.2-2.9,0.7c-0.6,0.5-1,1.2-1,2c0,1.3,0.7,1.9,2.2,1.9c0.9,0,1.8-0.3,2.5-0.9
			c0.6-0.6,1-1.5,0.9-2.4V636.5z"/>
		<path class="st1" d="M585.2,587.7c0,1.3-0.5,2.6-1.5,3.4c-1.1,1-2.5,1.6-4,1.7v0.1c1.6,0.1,3.2,0.6,4.5,1.6c1,0.8,1.6,2.1,1.6,3.5
			c0.1,1.9-0.9,3.6-2.4,4.7c-2,1.2-4.3,1.8-6.6,1.7c-2.6,0.1-5.1-0.3-7.6-1.2v-3.8c1,0.5,2.1,0.8,3.2,1c1.1,0.2,2.3,0.4,3.5,0.4
			c3.6,0,5.4-1,5.4-3.2c-0.1-1-0.8-1.9-1.7-2.2c-1.6-0.6-3.4-0.8-5.1-0.8h-2v-3.5h1.8c1.7,0.1,3.4-0.1,5-0.7
			c0.9-0.3,1.6-1.2,1.5-2.1c0-0.7-0.4-1.4-1-1.7c-0.9-0.5-1.9-0.7-2.9-0.7c-2.1,0-4.1,0.6-5.8,1.7l-2-3c1.2-0.8,2.5-1.4,3.9-1.8
			c1.5-0.4,3-0.6,4.5-0.6c2-0.1,3.9,0.4,5.6,1.5C584.4,584.6,585.2,586.1,585.2,587.7z M599.9,604.1l-0.9-2.2h-0.1
			c-0.6,0.8-1.4,1.5-2.3,2c-1,0.4-2,0.6-3.1,0.5c-1.4,0.1-2.7-0.4-3.7-1.3c-1-1-1.4-2.4-1.3-3.8c-0.1-1.5,0.6-3,1.8-3.8
			c1.7-1,3.6-1.4,5.5-1.4l2.8-0.1v-0.7c0.2-1.2-0.7-2.3-1.9-2.5c-0.2,0-0.4,0-0.6,0c-1.6,0.1-3.2,0.5-4.6,1.2l-1.5-3
			c1.9-1,4.1-1.5,6.3-1.5c1.8-0.1,3.6,0.4,5.1,1.4c1.2,1.1,1.9,2.7,1.8,4.4v10.9L599.9,604.1z M598.6,596.5l-1.7,0.1
			c-1,0-2,0.2-2.9,0.7c-0.7,0.4-1.1,1.2-1,2c0,1.3,0.7,1.9,2.2,1.9c0.9,0,1.8-0.3,2.5-0.9c0.6-0.6,1-1.5,0.9-2.4L598.6,596.5z
			 M616.6,604.4c-1.8,0.1-3.4-0.7-4.5-2.1h-0.2c0.2,1.4,0.2,2.2,0.2,2.4v6.6h-4.5v-23.6h3.6l0.6,2.1h0.2c1-1.6,2.8-2.5,4.6-2.4
			c1.8-0.1,3.5,0.8,4.5,2.2c1.2,1.8,1.8,4,1.6,6.2c0,1.6-0.2,3.1-0.8,4.6c-0.4,1.2-1.2,2.2-2.2,2.9C619,604,617.8,604.4,616.6,604.4
			L616.6,604.4z M615.3,591c-0.9-0.1-1.8,0.3-2.4,1c-0.6,1-0.9,2.2-0.8,3.3v0.5c-0.1,1.3,0.2,2.6,0.8,3.8c0.6,0.8,1.5,1.2,2.5,1.2
			c2,0,3-1.7,3-5c0.1-1.2-0.2-2.5-0.8-3.6C617.1,591.4,616.3,590.9,615.3,591z M633.4,590.6c-0.8,0-1.7,0.3-2.2,0.9
			c-0.6,0.7-0.9,1.6-0.9,2.5h6.3c0-0.9-0.3-1.8-0.9-2.5C635.1,590.9,634.3,590.5,633.4,590.6L633.4,590.6z M634.1,604.4
			c-2.3,0.1-4.5-0.6-6.2-2.2c-1.6-1.7-2.4-3.9-2.2-6.2c-0.1-2.3,0.6-4.6,2-6.4c1.5-1.5,3.6-2.4,5.7-2.2c2-0.1,4,0.6,5.4,2
			c1.4,1.5,2.1,3.5,1.9,5.5v2.1h-10.6c0,1.1,0.4,2.2,1.1,3c0.8,0.8,1.9,1.1,3,1.1c0.9,0,1.9-0.1,2.8-0.3c1-0.2,1.9-0.6,2.8-1v3.5
			c-0.8,0.4-1.6,0.7-2.5,0.9C636.3,604.3,635.2,604.4,634.1,604.4L634.1,604.4z M655.7,587.7v3.4h-6.8v13h-4.5v-16.4L655.7,587.7z
			 M663.1,587.7v6.5c0,0.7-0.1,2.3-0.3,5l7.6-11.5h5.4v16.4h-4.3v-6.5c0-1.2,0.1-2.8,0.3-4.9l-7.5,11.5h-5.4v-16.4L663.1,587.7z
			 M687.1,604.4c-5.1,0-7.7-2.8-7.7-8.4c0-2.8,0.7-4.9,2.1-6.4c1.6-1.6,3.8-2.4,6-2.2c1.8,0,3.5,0.4,5.1,1.1l-1.4,3.5
			c-0.7-0.3-1.3-0.5-2-0.7c-0.6-0.2-1.2-0.3-1.8-0.3c-2.3,0-3.5,1.7-3.5,5c0,3.2,1.2,4.8,3.5,4.8c0.8,0,1.6-0.1,2.4-0.3
			c0.8-0.3,1.5-0.6,2.2-1.1v3.8c-0.7,0.5-1.4,0.8-2.2,1C688.8,604.4,687.9,604.4,687.1,604.4L687.1,604.4z M709.4,587.7v3.4H704v13
			h-4.5v-13h-5.4v-3.4H709.4z M721.4,604.4c-1.8,0.1-3.4-0.7-4.5-2.1h-0.2c0.2,1.4,0.2,2.2,0.2,2.4v6.6h-4.5v-23.6h3.6l0.6,2.1h0.2
			c1-1.6,2.8-2.5,4.7-2.4c1.8-0.1,3.5,0.8,4.5,2.2c1.2,1.8,1.8,4,1.6,6.2c0,1.6-0.2,3.1-0.8,4.6c-0.4,1.2-1.2,2.2-2.2,2.9
			C723.7,604,722.6,604.4,721.4,604.4L721.4,604.4z M720.1,591c-0.9-0.1-1.8,0.3-2.4,1c-0.6,1-0.9,2.2-0.8,3.3v0.5
			c-0.1,1.3,0.2,2.6,0.8,3.8c0.6,0.8,1.5,1.2,2.5,1.2c2,0,3-1.7,3-5c0.1-1.2-0.2-2.5-0.7-3.6C721.9,591.4,721,590.9,720.1,591z
			 M735.7,587.7v6.5c0,0.7-0.1,2.3-0.3,5l7.6-11.5h5.4v16.4H744v-6.5c0-1.2,0.1-2.8,0.3-4.9l-7.5,11.5h-5.4v-16.4L735.7,587.7z
			 M762,604.4c-1.8,0.1-3.5-0.7-4.5-2.1h-0.2c0.2,1.4,0.2,2.2,0.2,2.4v6.6H753v-23.6h3.6l0.6,2.1h0.2c1-1.6,2.8-2.5,4.6-2.4
			c1.8-0.1,3.5,0.8,4.5,2.2c1.2,1.8,1.8,4,1.6,6.2c0,1.6-0.2,3.1-0.8,4.6c-0.4,1.2-1.2,2.2-2.2,2.9
			C764.4,604.1,763.2,604.4,762,604.4z M760.7,591c-0.9-0.1-1.8,0.3-2.4,1c-0.6,1-0.9,2.2-0.8,3.3v0.5c-0.1,1.3,0.2,2.6,0.8,3.8
			c0.6,0.8,1.5,1.2,2.5,1.2c2,0,3-1.7,3-5c0.1-1.2-0.2-2.5-0.8-3.6C762.5,591.4,761.6,590.9,760.7,591z M769.7,587.7h4.9l3.1,9.2
			c0.3,0.9,0.5,1.9,0.5,2.8h0.1c0.1-1,0.3-1.9,0.6-2.8l3-9.2h4.8l-6.9,18.5c-0.5,1.5-1.5,2.9-2.7,3.8c-1.2,0.9-2.6,1.3-4.1,1.3
			c-0.8,0-1.5-0.1-2.3-0.2v-3.6c0.6,0.1,1.2,0.2,1.8,0.2c0.8,0,1.5-0.2,2.1-0.7c0.7-0.6,1.1-1.3,1.4-2.2l0.3-0.8L769.7,587.7z
			 M793.4,587.7v6.5c0,0.7-0.1,2.3-0.3,5l7.6-11.5h5.4v16.4h-4.3v-6.5c0-1.2,0.1-2.8,0.3-4.9l-7.5,11.5h-5.4v-16.4L793.4,587.7z
			 M804.7,580.7c-0.1,1.6-0.8,3-2.1,4c-3.2,1.6-7.1,1.6-10.3,0c-1.2-1-1.9-2.5-1.9-4h4c0,0.8,0.3,1.5,0.8,2.1
			c0.7,0.5,1.5,0.7,2.3,0.6c1.5,0.2,2.8-0.8,3.1-2.3c0-0.2,0-0.3,0-0.5H804.7z M822.5,587.7v6c0,1.4,0.7,2.1,2,2.1
			c0.8,0,1.6-0.1,2.4-0.3c0.8-0.2,1.5-0.5,2.2-0.8v-7.1h4.5v16.4H829v-6.5c-0.9,0.5-1.9,0.9-2.9,1.2c-0.8,0.2-1.7,0.3-2.6,0.3
			c-1.5,0.1-3-0.4-4.2-1.4c-1-1-1.5-2.5-1.5-3.9v-6.1L822.5,587.7z M845,590.6c-0.8,0-1.7,0.3-2.2,0.9c-0.6,0.7-0.9,1.6-0.9,2.5h6.3
			c0-0.9-0.3-1.8-0.9-2.5C846.7,590.9,845.8,590.5,845,590.6z M845.6,604.4c-2.3,0.1-4.5-0.6-6.2-2.2c-1.6-1.7-2.4-3.9-2.2-6.2
			c-0.1-2.3,0.6-4.6,2-6.4c1.5-1.5,3.6-2.4,5.7-2.2c2-0.1,4,0.6,5.4,2c1.3,1.5,2,3.5,1.9,5.5v2.1h-10.6c0,1.1,0.4,2.2,1.1,3
			c0.8,0.7,1.9,1.1,3,1.1c0.9,0,1.9-0.1,2.8-0.3c1-0.2,1.9-0.6,2.8-1v3.5c-0.8,0.4-1.6,0.7-2.5,0.9
			C847.8,604.3,846.7,604.4,845.6,604.4L845.6,604.4z M866.6,587.7h4.9l-6.5,7.9l7.1,8.5H867l-6.7-8.3v8.3h-4.5v-16.4h4.5v8
			L866.6,587.7z"/>
		<path class="st1" d="M1026.3,604.1h-4.5v-17.6h-7.9v17.6h-4.5v-21.4h17V604.1z M1034.9,595.9c-0.1,1.3,0.2,2.5,0.8,3.7
			c0.6,0.9,1.6,1.3,2.6,1.2c1,0.1,2-0.4,2.6-1.2c0.6-1.1,0.9-2.4,0.8-3.7c0.1-1.3-0.2-2.5-0.8-3.6c-1.2-1.4-3.3-1.6-4.7-0.5
			c-0.2,0.1-0.3,0.3-0.5,0.5C1035.1,593.3,1034.8,594.6,1034.9,595.9L1034.9,595.9z M1046.2,595.9c0.1,2.3-0.6,4.5-2.1,6.3
			c-1.5,1.6-3.7,2.4-5.9,2.2c-1.5,0-2.9-0.3-4.2-1c-1.2-0.7-2.2-1.7-2.8-3c-0.7-1.4-1-2.9-1-4.5c-0.1-2.3,0.6-4.5,2.1-6.2
			c1.6-1.5,3.7-2.4,5.9-2.2c1.5,0,2.9,0.3,4.2,1c1.2,0.7,2.2,1.7,2.8,3C1045.9,592.8,1046.2,594.3,1046.2,595.9L1046.2,595.9z
			 M1064.6,604.1h-4.5v-13h-4.1c-0.2,2.8-0.6,5.5-1.1,8.2c-0.3,1.4-0.9,2.8-1.8,3.9c-0.8,0.8-1.8,1.2-2.9,1.2
			c-0.9,0-1.7-0.1-2.6-0.5v-3.6c0.5,0.2,0.9,0.3,1.4,0.3c0.6,0,1-0.4,1.4-1.2c0.5-1.3,0.8-2.6,1-4c0.3-1.9,0.6-4.5,0.8-7.7h12.4
			L1064.6,604.1z M1066.9,587.7h4.9l3.1,9.2c0.3,0.9,0.5,1.9,0.5,2.8h0.1c0.1-1,0.3-1.9,0.6-2.8l3-9.2h4.8l-6.9,18.5
			c-0.5,1.5-1.5,2.9-2.7,3.8c-1.2,0.9-2.6,1.3-4.1,1.3c-0.8,0-1.5-0.1-2.3-0.2v-3.6c0.6,0.1,1.2,0.2,1.8,0.2c0.8,0,1.5-0.2,2.1-0.7
			c0.7-0.6,1.1-1.3,1.4-2.2l0.3-0.8L1066.9,587.7z M1090.3,587.7v6c0,1.4,0.7,2.1,2,2.1c0.8,0,1.6-0.1,2.4-0.3
			c0.8-0.2,1.5-0.5,2.2-0.8v-7.1h4.5v16.4h-4.5v-6.5c-0.9,0.5-1.9,0.9-2.9,1.2c-0.8,0.2-1.7,0.3-2.6,0.3c-1.5,0.1-3-0.4-4.2-1.4
			c-1-1-1.5-2.5-1.5-3.9v-6.1L1090.3,587.7z M1110.4,587.7v6.5c0,0.7-0.1,2.3-0.3,5l7.6-11.5h5.4v16.4h-4.3v-6.5
			c0-1.2,0.1-2.8,0.3-4.9l-7.5,11.5h-5.4v-16.4H1110.4z M1156.1,604.1h-4.2v-12.9l-0.2,0.9c-0.4,1.6-0.9,3.2-1.4,4.7l-2.9,7.3h-3.2
			l-2.9-7.4c-0.5-1.5-1-3-1.3-4.5l-0.3-1v12.9h-4.2v-16.4h6.2l2.8,7c0.3,0.8,0.6,1.7,0.8,2.6c0.2,0.8,0.4,1.7,0.5,2.5
			c0.3-1.5,0.6-2.5,0.7-3.2s0.4-1.2,0.6-1.8l2.9-7.2h6.1L1156.1,604.1z M1171.2,604.1l-0.9-2.2h-0.1c-0.6,0.8-1.4,1.5-2.3,2
			c-1,0.4-2,0.6-3.1,0.5c-1.4,0.1-2.7-0.4-3.7-1.3c-1-1-1.4-2.4-1.3-3.8c-0.1-1.5,0.6-3,1.8-3.8c1.7-0.9,3.6-1.4,5.5-1.4l2.8-0.1
			v-0.7c0.2-1.2-0.7-2.3-1.9-2.5c-0.2,0-0.4,0-0.6,0c-1.6,0.1-3.2,0.5-4.6,1.2l-1.5-3c1.9-1,4.1-1.5,6.3-1.5
			c1.8-0.1,3.6,0.4,5.1,1.4c1.2,1.1,1.9,2.7,1.8,4.4v10.9L1171.2,604.1z M1169.9,596.5l-1.7,0.1c-1,0-2,0.2-2.9,0.7
			c-0.7,0.4-1.1,1.2-1,2c0,1.3,0.7,1.9,2.2,1.9c0.9,0,1.8-0.3,2.5-0.9c0.6-0.6,1-1.5,0.9-2.4L1169.9,596.5z M1185.6,604.4
			c-5.1,0-7.7-2.8-7.7-8.4c0-2.8,0.7-4.9,2.1-6.4c1.6-1.6,3.8-2.4,6-2.2c1.8,0,3.5,0.4,5.1,1.1l-1.3,3.5c-0.7-0.3-1.3-0.5-2-0.7
			c-0.6-0.2-1.2-0.3-1.8-0.3c-2.3,0-3.5,1.7-3.5,5c0,3.2,1.2,4.8,3.5,4.8c0.8,0,1.6-0.1,2.4-0.3c0.8-0.3,1.5-0.6,2.2-1.1v3.8
			c-0.7,0.5-1.4,0.8-2.2,1C1187.5,604.4,1186.5,604.4,1185.6,604.4L1185.6,604.4z M1205.1,587.7h4.9l-6.5,7.9l7.1,8.5h-5.1l-6.7-8.3
			v8.3h-4.5v-16.4h4.5v8L1205.1,587.7z M1210.6,587.7h4.9l3.1,9.2c0.3,0.9,0.5,1.9,0.5,2.8h0.1c0.1-1,0.3-1.9,0.6-2.8l3-9.2h4.8
			l-6.9,18.5c-0.5,1.5-1.4,2.8-2.7,3.8c-1.2,0.9-2.6,1.3-4.1,1.3c-0.8,0-1.5-0.1-2.3-0.2v-3.5c0.6,0.1,1.2,0.2,1.8,0.2
			c0.8,0,1.5-0.2,2.1-0.7c0.7-0.6,1.1-1.3,1.4-2.2l0.3-0.8L1210.6,587.7z M1248.1,600.8v-9.8h-3.3c-0.2,1.7-0.6,3.5-1,5.2
			c-0.4,1.6-1,3.1-1.8,4.6H1248.1z M1254.9,610h-4v-5.9h-11v5.9h-4v-9.1h1.4c1.1-1.7,1.8-3.6,2.4-5.5c0.7-2.5,1.1-5,1.3-7.6h11.6
			v13.1h2.4L1254.9,610z M1272.4,604.1h-4.5v-13h-4.1c-0.2,2.8-0.6,5.5-1.2,8.2c-0.3,1.4-0.9,2.8-1.8,3.9c-0.8,0.8-1.8,1.2-2.9,1.2
			c-0.9,0-1.7-0.1-2.6-0.5v-3.6c0.5,0.2,0.9,0.3,1.4,0.3c0.6,0,1-0.4,1.4-1.2c0.5-1.3,0.8-2.6,1-4c0.3-1.9,0.6-4.5,0.8-7.7h12.4
			L1272.4,604.1z M1279.6,604.1h-4.8l4.4-6.5c-1-0.4-1.8-1-2.4-1.9c-0.6-0.9-0.8-1.9-0.8-2.9c-0.1-1.5,0.6-2.8,1.8-3.7
			c1.4-1,3.1-1.4,4.9-1.3h7.6v16.4h-4.5V598h-2.5L1279.6,604.1z M1280.3,592.8c0,0.6,0.3,1.2,0.8,1.6c0.6,0.4,1.4,0.6,2.1,0.6h2.5
			v-4.1h-3.1c-0.6,0-1.2,0.2-1.7,0.5C1280.6,591.8,1280.3,592.3,1280.3,592.8L1280.3,592.8z M1309.3,604.4c-5.1,0-7.7-2.8-7.7-8.4
			c0-2.8,0.7-4.9,2.1-6.4c1.6-1.6,3.8-2.4,6-2.2c1.8,0,3.5,0.4,5.1,1.1l-1.4,3.5c-0.7-0.3-1.3-0.5-2-0.7c-0.6-0.2-1.2-0.3-1.8-0.3
			c-2.3,0-3.5,1.7-3.5,5c0,3.2,1.2,4.8,3.5,4.8c0.8,0,1.6-0.1,2.4-0.3c0.8-0.3,1.5-0.6,2.2-1.1v3.8c-0.7,0.5-1.4,0.8-2.2,1
			C1311.2,604.4,1310.2,604.4,1309.3,604.4L1309.3,604.4z M1322.6,587.7v6.3h6.2v-6.3h4.5v16.4h-4.5v-6.8h-6.2v6.8h-4.5v-16.4
			H1322.6z M1348.4,604.1l-0.9-2.2h-0.1c-0.6,0.8-1.4,1.5-2.3,2c-1,0.4-2,0.6-3.1,0.5c-1.4,0.1-2.7-0.4-3.7-1.3
			c-1-1-1.4-2.4-1.3-3.8c-0.1-1.5,0.6-3,1.8-3.8c1.7-1,3.6-1.4,5.5-1.4l2.8-0.1v-0.7c0.2-1.2-0.7-2.3-1.9-2.5c-0.2,0-0.4,0-0.6,0
			c-1.6,0.1-3.2,0.5-4.6,1.2l-1.5-3c1.9-1,4.1-1.5,6.3-1.5c1.8-0.1,3.5,0.4,5,1.4c1.2,1.1,1.9,2.7,1.8,4.4v10.9L1348.4,604.1z
			 M1347.1,596.5l-1.7,0.1c-1,0-2,0.2-2.9,0.7c-0.7,0.4-1,1.2-1,2c0,1.3,0.7,1.9,2.2,1.9c0.9,0,1.8-0.3,2.5-0.9
			c0.6-0.6,1-1.5,0.9-2.4L1347.1,596.5z"/>
		<path class="st1" d="M160.7,670.6v4.5h6v-4.5h1.6v10.7h-1.6v-4.8h-6v4.8h-1.6v-10.7H160.7z M178.4,681.3l-0.3-1.5H178
			c-0.4,0.6-1,1-1.6,1.4c-0.6,0.3-1.3,0.4-2,0.3c-0.9,0.1-1.8-0.2-2.5-0.8c-0.6-0.6-1-1.5-0.9-2.3c0-2.2,1.7-3.3,5.2-3.4l1.8-0.1
			v-0.7c0.1-0.7-0.1-1.3-0.5-1.8c-0.5-0.4-1.1-0.7-1.7-0.6c-1,0.1-2.1,0.3-3,0.8l-0.5-1.2c0.5-0.3,1.1-0.5,1.7-0.7
			c0.6-0.2,1.3-0.2,1.9-0.2c1-0.1,2,0.2,2.8,0.8c0.7,0.7,1,1.7,0.9,2.7v7.3L178.4,681.3z M174.7,680.1c0.9,0,1.7-0.2,2.4-0.8
			c0.6-0.6,1-1.4,0.9-2.3v-1l-1.6,0.1c-1,0-1.9,0.2-2.8,0.6c-0.6,0.4-0.9,1-0.9,1.7c0,0.5,0.2,1,0.5,1.3
			C173.7,680,174.2,680.2,174.7,680.1z M192.4,681.5c-1.4,0.1-2.7-0.4-3.6-1.4c-0.9-1.1-1.3-2.6-1.3-4c-0.1-1.5,0.4-3,1.3-4.2
			c1-1,2.3-1.6,3.7-1.5c0.5,0,1,0.1,1.6,0.2c0.4,0.1,0.8,0.2,1.2,0.4l-0.5,1.4c-0.4-0.1-0.8-0.3-1.2-0.3c-0.4-0.1-0.7-0.1-1.1-0.2
			c-2.2,0-3.3,1.4-3.3,4.2c-0.1,1.1,0.2,2.1,0.8,3c0.6,0.7,1.5,1.1,2.4,1c0.9,0,1.9-0.2,2.7-0.6v1.4
			C194.3,681.3,193.3,681.5,192.4,681.5L192.4,681.5z M196,670.6h1.7l2.3,6.1c0.4,1,0.7,2,1,3h0.1c0.1-0.3,0.3-0.9,0.5-1.7
			s1.1-3.3,2.6-7.4h1.7l-4.6,12.2c-0.3,1-0.9,1.9-1.6,2.6c-0.6,0.5-1.4,0.8-2.2,0.8c-0.5,0-1-0.1-1.5-0.2v-1.3
			c0.4,0.1,0.8,0.1,1.2,0.1c1.1,0,2.1-0.8,2.4-1.9l0.6-1.5L196,670.6z M213.3,679.7l0.3-0.9l0.4-1.2l2.9-7.1h2.1v10.7h-1.4v-8.8
			l-0.2,0.6l-0.6,1.5l-2.8,6.8h-1.4l-2.8-6.8c-0.3-0.7-0.5-1.3-0.7-2v8.8h-1.4v-10.7h2l2.8,6.8C212.8,678.1,213.1,678.9,213.3,679.7
			L213.3,679.7z M228,679.7l0.3-0.9l0.4-1.2l2.9-7.1h2.1v10.7h-1.4v-8.8L232,673l-0.6,1.5l-2.8,6.8h-1.4l-2.8-6.8
			c-0.3-0.9-0.6-1.6-0.7-2v8.8h-1.4v-10.7h2l2.8,6.8C227.5,678.2,227.8,678.9,228,679.7L228,679.7z M235.4,670.6h1.7l2.3,6.1
			c0.4,1,0.7,2,1,3h0.1c0.1-0.3,0.3-0.9,0.5-1.7s1.2-3.3,2.6-7.4h1.7l-4.6,12.2c-0.3,1-0.9,1.9-1.6,2.6c-0.6,0.5-1.4,0.8-2.2,0.8
			c-0.5,0-1-0.1-1.5-0.2v-1.3c0.4,0.1,0.8,0.1,1.2,0.1c1.1,0,2.1-0.8,2.4-1.9l0.6-1.5L235.4,670.6z M261.6,675.9
			c0.1,1.5-0.4,2.9-1.3,4.1c-0.9,1-2.3,1.5-3.6,1.5c-0.9,0-1.8-0.2-2.6-0.7c-0.8-0.5-1.3-1.1-1.7-1.9c-0.4-0.9-0.6-2-0.6-3
			c-0.1-1.5,0.4-2.9,1.3-4.1c0.9-1,2.3-1.5,3.6-1.5c1.4-0.1,2.7,0.5,3.6,1.5C261.3,673,261.7,674.4,261.6,675.9L261.6,675.9z
			 M253.5,675.9c-0.1,1.1,0.2,2.2,0.8,3.1c1.2,1.3,3.3,1.4,4.6,0.2c0.1-0.1,0.1-0.1,0.2-0.2c0.6-0.9,0.9-2,0.8-3.1
			c0.1-1.1-0.2-2.2-0.8-3.1c-1.2-1.3-3.3-1.4-4.6-0.2c-0.1,0.1-0.1,0.1-0.2,0.2C253.7,673.7,253.4,674.8,253.5,675.9L253.5,675.9z
			 M271.7,672h-3.5v9.3h-1.6V672h-3.4v-1.4h8.5V672z M278.5,675.2c0-2.8,0.5-4.9,1.6-6.3c1.2-1.4,3-2.2,4.8-2.1c0.6,0,1.2,0,1.7,0.2
			v1.4c-0.6-0.2-1.1-0.2-1.7-0.2c-1.3-0.1-2.6,0.4-3.5,1.4c-0.9,1.3-1.4,2.9-1.3,4.5h0.1c0.7-1.1,2-1.8,3.4-1.7
			c1.1-0.1,2.2,0.4,3,1.2c0.8,0.9,1.2,2,1.1,3.2c0.1,1.3-0.4,2.5-1.2,3.5c-0.9,0.9-2.1,1.3-3.3,1.3c-1.4,0.1-2.7-0.6-3.5-1.7
			C278.8,678.5,278.3,676.8,278.5,675.2L278.5,675.2z M283.3,680.1c0.8,0,1.6-0.3,2.1-0.9c0.6-0.7,0.8-1.6,0.8-2.5
			c0-0.8-0.2-1.6-0.7-2.2c-0.6-0.6-1.3-0.9-2.1-0.8c-0.6,0-1.1,0.1-1.6,0.4c-0.5,0.2-0.9,0.6-1.2,1c-0.3,0.4-0.4,0.8-0.4,1.3
			c0,0.6,0.1,1.3,0.4,1.9c0.2,0.5,0.6,1,1.1,1.4C282.1,680,282.7,680.1,283.3,680.1L283.3,680.1z M300.7,681.5
			c-0.7,0-1.3-0.1-1.9-0.4c-0.6-0.3-1.1-0.7-1.4-1.2h-0.1c0.1,0.6,0.1,1.2,0.1,1.8v4.4h-1.6v-15.5h1.3l0.2,1.5h0.1
			c0.4-0.5,0.9-1,1.5-1.3c0.6-0.3,1.3-0.4,1.9-0.4c1.3-0.1,2.5,0.5,3.3,1.5c0.8,1.2,1.2,2.6,1.2,4.1c0.1,1.5-0.3,2.9-1.2,4.1
			C303.1,681,301.9,681.5,300.7,681.5L300.7,681.5z M300.4,671.8c-0.9-0.1-1.8,0.3-2.4,0.9c-0.6,0.9-0.8,1.9-0.8,2.9v0.4
			c-0.1,1.1,0.2,2.3,0.8,3.2c0.6,0.7,1.5,1.1,2.4,1c0.9,0,1.7-0.4,2.2-1.1c0.6-0.9,0.9-2,0.8-3.1c0.1-1.1-0.2-2.2-0.8-3.1
			C302.1,672.2,301.3,671.7,300.4,671.8L300.4,671.8z M306.2,670.6h1.8l2.4,6.1c0.4,1,0.7,2,1,3h0.1c0.1-0.3,0.3-0.9,0.5-1.7
			s1.2-3.3,2.7-7.4h1.7l-4.6,12.2c-0.3,1-0.9,1.9-1.6,2.6c-0.6,0.5-1.4,0.8-2.2,0.8c-0.5,0-1-0.1-1.5-0.2v-1.3
			c0.4,0.1,0.8,0.1,1.2,0.1c1.1,0,2.1-0.8,2.4-1.9l0.6-1.5L306.2,670.6z M317.5,674.9c-0.1-1.9,0.2-3.8,1-5.5
			c0.6-1.3,1.9-2.2,3.3-2.5c1.9-0.4,3.5-0.7,4.9-1l0.3,1.4c-2.3,0.4-3.9,0.7-4.9,0.9c-0.9,0.2-1.7,0.7-2.1,1.5
			c-0.5,1-0.8,2.1-0.8,3.3h0.1c0.4-0.6,0.9-1,1.6-1.3c0.6-0.3,1.3-0.5,2-0.5c1.2-0.1,2.3,0.4,3.1,1.3c0.8,1,1.2,2.3,1.1,3.5
			c0.1,1.4-0.4,2.8-1.3,3.9c-0.9,1-2.2,1.5-3.6,1.4c-1.4,0.1-2.7-0.6-3.5-1.7C317.8,678.3,317.4,676.6,317.5,674.9L317.5,674.9z
			 M322.5,680.2c2,0,3-1.3,3-3.8c0-2.4-0.9-3.6-2.7-3.6c-0.5,0-1,0.1-1.4,0.3c-0.5,0.2-0.9,0.5-1.3,0.8c-0.3,0.3-0.6,0.6-0.9,1
			c-0.1,1.4,0.2,2.7,0.8,3.9C320.5,679.6,321.4,680.1,322.5,680.2L322.5,680.2z M338,681.3h-1.6V672h-3.2c-0.1,1.9-0.4,3.7-0.7,5.5
			c-0.2,1.1-0.6,2.1-1.2,3c-0.4,0.6-1.2,1-1.9,1c-0.3,0-0.6,0-0.8-0.1v-1.2c0.2,0,0.3,0.1,0.5,0.1c0.8,0,1.4-0.8,1.8-2.4
			c0.6-2.4,0.9-4.8,1-7.2h6.3V681.3z M346,681.5c-1.4,0.1-2.8-0.5-3.8-1.5c-1-1.1-1.4-2.5-1.4-4c-0.1-1.5,0.4-2.9,1.3-4.1
			c0.8-1,2.1-1.6,3.4-1.5c1.2-0.1,2.4,0.4,3.2,1.3c0.8,1,1.2,2.2,1.2,3.5v1h-7.4c0,1,0.3,2.1,1,2.9c0.7,0.7,1.6,1,2.5,1
			c1.2,0,2.3-0.3,3.4-0.7v1.5c-0.5,0.2-1.1,0.4-1.6,0.5C347.2,681.5,346.6,681.5,346,681.5L346,681.5z M345.5,671.8
			c-0.8,0-1.5,0.3-2.1,0.8c-0.5,0.7-0.9,1.5-0.9,2.3h5.6c0.1-0.8-0.2-1.7-0.7-2.3C347,672,346.2,671.7,345.5,671.8L345.5,671.8z
			 M354.2,670.6v6.8l-0.1,1.8v0.6l5.8-9.1h2v10.7h-1.5v-6.5v-1.3l0-1.3l-5.8,9.1h-2v-10.7H354.2z M357.3,669.2
			c-0.9,0.1-1.9-0.2-2.6-0.7c-0.6-0.6-0.9-1.4-0.9-2.3h1.5c0,0.5,0.2,1,0.5,1.4c0.5,0.3,1,0.5,1.5,0.4c0.5,0,1.1-0.1,1.5-0.4
			c0.4-0.4,0.6-0.9,0.6-1.4h1.5c0,0.9-0.4,1.7-1,2.3C359.1,669,358.1,669.3,357.3,669.2L357.3,669.2z"/>
	</g>
</g>
<g id="Слой_2">
	
		<linearGradient id="SVGID_4_" gradientUnits="userSpaceOnUse" x1="1437.2651" y1="501.3914" x2="1398.2751" y2="501.3914" gradientTransform="matrix(1 0 0 -1 0 1002)">
		<stop  offset="0" style="stop-color:#213951"/>
		<stop  offset="1" style="stop-color:#213951;stop-opacity:0"/>
	</linearGradient>
	<rect x="1398.3" y="0" class="st8" width="41.9" height="1001.1"/>
	
		<linearGradient id="SVGID_5_" gradientUnits="userSpaceOnUse" x1="111.4267" y1="1159.6085" x2="73.7749" y2="1159.6085" gradientTransform="matrix(-1 0 0 1 114.5114 -659)">
		<stop  offset="0" style="stop-color:#213951"/>
		<stop  offset="1" style="stop-color:#213951;stop-opacity:0"/>
	</linearGradient>
	<rect x="0.2" y="0" class="st9" width="40.5" height="1001.1"/>
</g>
</svg>
